<svg width="24" height="24" viewBox="0 0 24 24" fill="none" xmlns="http://www.w3.org/2000/svg">
<g clip-path="url(#clip0_56_387)">
<mask id="mask0_56_387" style="mask-type:alpha" maskUnits="userSpaceOnUse" x="0" y="0" width="24" height="24">
<path d="M24 0H0V24H24V0Z" fill="#D9D9D9"/>
</mask>
<g mask="url(#mask0_56_387)">
<path d="M18.1739 8.67826V20.6957C18.1739 21.4174 17.5913 22 16.8696 22H7.30435C6.58261 22 6 21.4174 6 20.6957V3.30435C6 2.58261 6.58261 2 7.30435 2H11.6261C12.3913 2 13.1304 2.31304 13.6609 2.86087L17.3826 6.70435C17.8957 7.23478 18.1826 7.93913 18.1826 8.66957L18.1739 8.67826Z" stroke="black" stroke-miterlimit="10"/>
<path d="M6.86914 5.47824C6.86914 5.23812 7.0638 5.04346 7.30392 5.04346H9.91262C10.1527 5.04346 10.3474 5.23812 10.3474 5.47824C10.3474 5.71836 10.1527 5.91302 9.91262 5.91302H7.30392C7.0638 5.91302 6.86914 5.71836 6.86914 5.47824Z" fill="black"/>
<path d="M6.86914 7.21737C6.86914 6.97725 7.0638 6.78259 7.30392 6.78259H9.91262C10.1527 6.78259 10.3474 6.97725 10.3474 7.21737C10.3474 7.45749 10.1527 7.65215 9.91262 7.65215H7.30392C7.0638 7.65215 6.86914 7.45749 6.86914 7.21737Z" fill="black"/>
<path d="M12.139 19.7082C11.6421 19.7082 11.2004 19.6551 10.8139 19.549C10.4274 19.4428 10.0582 19.2676 9.70626 19.0234C9.63034 18.9809 9.57168 18.9304 9.53028 18.872C9.49577 18.8083 9.47852 18.7446 9.47852 18.6809C9.47852 18.58 9.52682 18.4898 9.62344 18.4102C9.72006 18.3305 9.84083 18.2907 9.98576 18.2907C10.0962 18.2907 10.1997 18.3199 10.2963 18.3783C10.5586 18.5641 10.8312 18.7048 11.1141 18.8004C11.404 18.8959 11.7421 18.9437 12.1286 18.9437C12.4047 18.9437 12.6566 18.9092 12.8843 18.8402C13.119 18.7712 13.3053 18.6783 13.4433 18.5615C13.5813 18.4447 13.6504 18.3093 13.6504 18.1553C13.6504 17.9642 13.5779 17.8076 13.433 17.6855C13.2949 17.558 13.0914 17.4545 12.8222 17.3749C12.56 17.2899 12.2425 17.2183 11.8698 17.1599C11.5248 17.1121 11.2142 17.0457 10.9381 16.9608C10.669 16.8758 10.4378 16.7696 10.2446 16.6422C10.0513 16.5095 9.90295 16.3529 9.79943 16.1724C9.69591 15.9919 9.64415 15.7822 9.64415 15.5432C9.64415 15.2194 9.75457 14.9407 9.97541 14.7071C10.1963 14.4735 10.4965 14.293 10.876 14.1655C11.2556 14.0381 11.6835 13.9744 12.1597 13.9744C12.5945 13.9744 13.0016 14.0275 13.3812 14.1337C13.7608 14.2346 14.0679 14.3726 14.3025 14.5478C14.4682 14.6593 14.551 14.7787 14.551 14.9062C14.551 15.0017 14.4992 15.092 14.3957 15.1769C14.2991 15.2566 14.1852 15.2964 14.0541 15.2964C13.9575 15.2964 13.8747 15.2751 13.8056 15.2327C13.6952 15.1424 13.5468 15.0628 13.3605 14.9938C13.1742 14.9194 12.974 14.8584 12.7601 14.8106C12.553 14.7628 12.3529 14.7389 12.1597 14.7389C11.9953 14.7389 11.8434 14.7486 11.7042 14.7679C11.5804 14.7851 11.4665 14.81 11.3626 14.8424C11.1417 14.9062 10.9726 14.9964 10.8553 15.1132C10.738 15.2247 10.6793 15.3574 10.6793 15.5114C10.6793 15.6919 10.7449 15.8406 10.876 15.9574C11.0141 16.0742 11.2038 16.1697 11.4454 16.244C11.5277 16.2676 11.6139 16.2904 11.7042 16.3127C11.879 16.3558 12.0688 16.3967 12.2735 16.4352C12.4365 16.4625 12.5917 16.4913 12.7394 16.5216C12.9358 16.5619 13.1186 16.6047 13.288 16.6502C13.5917 16.7298 13.847 16.8334 14.0541 16.9608C14.2611 17.0829 14.4199 17.2368 14.5303 17.4227C14.6407 17.6085 14.6959 17.8394 14.6959 18.1155C14.6959 18.434 14.5786 18.7128 14.3439 18.9517C14.1093 19.1906 13.7987 19.3764 13.4123 19.5091C13.0327 19.6419 12.6083 19.7082 12.139 19.7082Z" fill="black"/>
<path d="M11.7145 13.38V14.0606C11.7145 14.3424 11.9648 14.571 12.2735 14.571C12.5823 14.571 12.8326 14.3424 12.8326 14.0606V13.38C12.8326 13.0981 12.5823 12.8696 12.2735 12.8696C11.9648 12.8696 11.7145 13.0981 11.7145 13.38Z" fill="black"/>
<path d="M11.7145 19.5048V20.1853C11.7145 20.4672 11.9648 20.6957 12.2735 20.6957C12.5823 20.6957 12.8326 20.4672 12.8326 20.1853V19.5048C12.8326 19.2229 12.5823 18.9944 12.2735 18.9944C11.9648 18.9944 11.7145 19.2229 11.7145 19.5048Z" fill="black"/>
<path d="M11.5 9V2C15.1303 3.61322 16.6638 5.04513 18 9H11.5Z" fill="black"/>
</g>
</g>
<defs>
<clipPath id="clip0_56_387">
<rect width="24" height="24" fill="white"/>
</clipPath>
</defs>
</svg>
