<svg width="210" height="210" viewBox="0 0 210 210" fill="none" xmlns="http://www.w3.org/2000/svg">
<mask id="mask0_4_295" style="mask-type:alpha" maskUnits="userSpaceOnUse" x="0" y="0" width="210" height="210">
<rect width="210" height="210" fill="#D9D9D9"/>
</mask>
<g mask="url(#mask0_4_295)">
<path d="M189.673 54.8835C190.26 54.6737 190.688 54.2176 190.883 53.6729C190.961 54.1057 191 54.5485 191 55V155C191 156.949 190.571 158.494 189.643 159.747C188.707 161.011 187.105 162.19 184.368 163.103L184.33 163.115L184.292 163.129L184.519 163.728C184.292 163.13 184.292 163.13 184.291 163.13L184.289 163.131L184.279 163.134L184.239 163.15L184.081 163.209L183.461 163.443C182.919 163.648 182.121 163.949 181.104 164.331C179.071 165.096 176.158 166.189 172.644 167.501C165.616 170.125 156.184 173.623 146.567 177.12C136.946 180.619 127.151 184.112 119.392 186.73C115.51 188.039 112.156 189.124 109.595 189.878C108.546 190.188 107.644 190.437 106.901 190.624C106.965 190.428 107 190.218 107 190V84.4094L189.673 54.8835ZM189.974 51.2531C189.488 50.9825 188.892 50.9147 188.327 51.1165L104.998 80.877L21.1691 51.1153C20.8357 50.9969 20.4918 50.9723 20.1661 51.0277C21.2542 49.3415 23.1077 47.911 25.7428 46.857C35.8433 42.8167 54.5667 35.8263 71.3952 29.8443C79.8084 26.8537 87.7319 24.1209 93.8569 22.1377C96.9216 21.1454 99.5184 20.3464 101.494 19.7976C102.483 19.5228 103.296 19.3162 103.924 19.1799C104.238 19.1118 104.491 19.0644 104.687 19.0349C104.784 19.0202 104.86 19.011 104.917 19.0057C104.975 19.0002 105.001 19 105 19L105 19C105.002 19 105.028 19.0004 105.083 19.0057C105.14 19.011 105.216 19.0202 105.313 19.0349C105.509 19.0644 105.762 19.1118 106.076 19.1799C106.704 19.3162 107.517 19.5228 108.506 19.7976C110.482 20.3464 113.078 21.1454 116.143 22.1377C122.268 24.1209 130.192 26.8537 138.605 29.8443C155.433 35.8263 174.157 42.8167 184.257 46.857C187.009 47.9576 188.908 49.4689 189.974 51.2531ZM19.027 54.3535C19.2406 54.5863 19.5125 54.7717 19.8309 54.8847L103 84.4122V190C103 190.218 103.035 190.428 103.099 190.624C102.356 190.437 101.454 190.188 100.405 189.878C97.8442 189.124 94.4897 188.039 90.6081 186.73C82.8492 184.112 73.0541 180.619 63.4335 177.12C53.8157 173.623 44.3839 170.125 37.3558 167.501C33.8419 166.189 30.9294 165.096 28.8956 164.331C27.8787 163.949 27.0815 163.648 26.5386 163.443L25.9194 163.209L25.761 163.15L25.7211 163.134L25.7111 163.131L25.7086 163.13C25.708 163.13 25.7078 163.129 25 165L25.7078 163.129L25.6704 163.115L25.6325 163.103C22.8951 162.19 21.2934 161.011 20.3571 159.747C19.4288 158.494 19 156.949 19 155L19 55C19 54.7824 19.009 54.5669 19.027 54.3535Z" stroke="white" stroke-width="4" stroke-linecap="round"/>
</g>
</svg>
