<svg width="24" height="24" viewBox="0 0 24 24" fill="none" xmlns="http://www.w3.org/2000/svg">
<mask id="mask0_51_155" style="mask-type:alpha" maskUnits="userSpaceOnUse" x="0" y="0" width="24" height="24">
<path d="M24 0H0V24H24V0Z" fill="#D9D9D9"/>
</mask>
<g mask="url(#mask0_51_155)">
<path fill-rule="evenodd" clip-rule="evenodd" d="M18.2003 3.39152C18.1168 3.29688 17.9723 3.28788 17.8777 3.37142C17.783 3.45496 17.774 3.59941 17.8576 3.69405L18.8524 4.82108C18.8397 4.84952 18.8326 4.88104 18.8326 4.91421H18.9346C18.8326 4.91422 18.8326 4.9142 18.8326 4.91421V8.28564C18.8326 9.43726 19.6356 10.1714 20.6096 10.1714H20.7258V16.3428C20.7258 16.8469 20.5285 17.1965 20.2547 17.4242C19.9747 17.6567 19.6022 17.7714 19.2489 17.7714C18.9035 17.7714 18.5542 17.648 18.2974 17.3726C18.042 17.0987 17.8547 16.6491 17.8819 15.9517C17.9289 14.7517 17.868 13.7725 17.5482 13.0888C17.3848 12.7394 17.1514 12.4616 16.829 12.2739C16.5089 12.0874 16.1185 11.9999 15.6563 11.9999C15.53 11.9999 15.4277 12.1022 15.4277 12.2285C15.4277 12.3548 15.53 12.4571 15.6563 12.4571C16.0622 12.4571 16.3672 12.5339 16.5989 12.6688C16.8285 12.8026 17.0035 13.0034 17.1341 13.2824C17.4024 13.8559 17.4721 14.7339 17.4251 15.9339C17.3942 16.7223 17.6058 17.3012 17.9632 17.6844C18.319 18.0661 18.7965 18.2285 19.2489 18.2285C19.6932 18.2285 20.1734 18.086 20.5468 17.7757C20.9262 17.4605 21.1829 16.9815 21.1829 16.3428V7.37135C21.1829 7.04466 21.03 6.74039 20.8481 6.47175C20.7069 6.26331 20.5312 6.05303 20.3645 5.85357C20.3163 5.79587 20.2689 5.73903 20.2232 5.68344L20.2206 5.68029L18.2003 3.39152ZM20.7258 9.71421V7.37135C20.7258 7.18378 20.636 6.97374 20.4696 6.72811C20.3426 6.54063 20.1875 6.35495 20.0238 6.15896L20.0237 6.15886C19.9739 6.09922 19.9234 6.03861 19.8725 5.97671L19.2898 5.31655V8.28564C19.2898 9.19117 19.8944 9.71421 20.6096 9.71421H20.7258Z" fill="black"/>
<path fill-rule="evenodd" clip-rule="evenodd" d="M7.42773 6.51438C7.42773 6.00943 7.83707 5.6001 8.34202 5.6001H11.6563C12.1612 5.6001 12.5706 6.00943 12.5706 6.51438V9.94295C12.5706 10.4479 12.1612 10.8572 11.6563 10.8572H8.34202C7.83707 10.8572 7.42773 10.4479 7.42773 9.94295V6.51438ZM8.34202 6.05724H11.6563C11.9088 6.05724 12.1134 6.26191 12.1134 6.51438V9.94295C12.1134 10.1954 11.9088 10.4001 11.6563 10.4001H8.34202C8.08955 10.4001 7.88488 10.1954 7.88488 9.94295V6.51438C7.88488 6.26191 8.08955 6.05724 8.34202 6.05724Z" fill="black"/>
<path fill-rule="evenodd" clip-rule="evenodd" d="M4.22787 21.6V4.22859C4.22787 2.96622 5.25122 1.94287 6.51359 1.94287H13.3707C14.6331 1.94287 15.6564 2.96622 15.6564 4.22859V21.6H16.7993C16.9256 21.6 17.0279 21.7023 17.0279 21.8286C17.0279 21.9549 16.9256 22.0572 16.7993 22.0572H3.08502C2.95878 22.0572 2.85645 21.9549 2.85645 21.8286C2.85645 21.7023 2.95878 21.6 3.08502 21.6H4.22787ZM6.51359 2.40001H13.3707C14.3807 2.40001 15.1993 3.21869 15.1993 4.22859V18.6286H4.68502V4.22859C4.68502 3.21869 5.50369 2.40001 6.51359 2.40001ZM4.68502 19.0857H15.1993V21.6H4.68502V19.0857Z" fill="black"/>
</g>
</svg>
