<svg width="210" height="210" viewBox="0 0 210 210" fill="none" xmlns="http://www.w3.org/2000/svg">
<mask id="mask0_4_266" style="mask-type:alpha" maskUnits="userSpaceOnUse" x="0" y="0" width="210" height="210">
<rect width="210" height="210" fill="#D9D9D9"/>
</mask>
<g mask="url(#mask0_4_266)">
<path fill-rule="evenodd" clip-rule="evenodd" d="M159.26 29.6765C158.529 28.8484 157.265 28.7696 156.437 29.5006C155.609 30.2316 155.53 31.4955 156.261 32.3236L164.966 42.1851C164.855 42.434 164.793 42.7098 164.793 43H165.685C164.793 43.0001 164.793 42.9999 164.793 43V72.5C164.793 82.5767 171.819 89 180.341 89H181.358V143C181.358 147.411 179.632 150.47 177.236 152.462C174.786 154.497 171.527 155.5 168.435 155.5C165.413 155.5 162.357 154.421 160.11 152.011C157.875 149.614 156.236 145.68 156.474 139.578C156.885 129.078 156.352 120.51 153.554 114.528C152.124 111.47 150.082 109.04 147.261 107.397C144.46 105.765 141.044 105 137 105C135.895 105 135 105.895 135 107C135 108.105 135.895 109 137 109C140.552 109 143.22 109.672 145.248 110.853C147.257 112.023 148.788 113.78 149.931 116.222C152.278 121.24 152.888 128.922 152.477 139.422C152.207 146.321 154.058 151.386 157.185 154.739C160.299 158.079 164.477 159.5 168.435 159.5C172.323 159.5 176.525 158.253 179.792 155.538C183.112 152.78 185.358 148.589 185.358 143V64.5C185.358 61.6414 184.02 58.9791 182.428 56.6285C181.193 54.8046 179.655 52.9647 178.197 51.2194C177.775 50.7145 177.36 50.2172 176.96 49.7308L176.938 49.7032L159.26 29.6765ZM181.358 85V64.5C181.358 62.8587 180.572 61.0209 179.116 58.8716C178.005 57.2312 176.648 55.6065 175.216 53.8916L175.215 53.8907C174.779 53.3688 174.337 52.8385 173.892 52.2969L168.793 46.5205V72.5C168.793 80.4234 174.083 85 180.341 85H181.358Z" fill="white"/>
<path fill-rule="evenodd" clip-rule="evenodd" d="M65 57C65 52.5817 68.5817 49 73 49H102C106.418 49 110 52.5817 110 57V87C110 91.4183 106.418 95 102 95H73C68.5817 95 65 91.4183 65 87V57ZM73 53H102C104.209 53 106 54.7909 106 57V87C106 89.2091 104.209 91 102 91H73C70.7909 91 69 89.2091 69 87V57C69 54.7909 70.7909 53 73 53Z" fill="white"/>
<path fill-rule="evenodd" clip-rule="evenodd" d="M37 189V37C37 25.9543 45.9543 17 57 17H117C128.046 17 137 25.9543 137 37V189H147C148.105 189 149 189.895 149 191C149 192.105 148.105 193 147 193H27C25.8954 193 25 192.105 25 191C25 189.895 25.8954 189 27 189H37ZM57 21H117C125.837 21 133 28.1634 133 37V163H41V37C41 28.1634 48.1634 21 57 21ZM41 167H133V189H41V167Z" fill="white"/>
</g>
</svg>
