<svg width="210" height="210" viewBox="0 0 210 210" fill="none" xmlns="http://www.w3.org/2000/svg">
<mask id="mask0_4_248" style="mask-type:alpha" maskUnits="userSpaceOnUse" x="0" y="0" width="210" height="210">
<rect width="210" height="210" fill="#D9D9D9"/>
</mask>
<g mask="url(#mask0_4_248)">
<path d="M51 37H69C76.732 37 83 43.268 83 51V69C83 76.732 76.732 83 69 83H51C43.268 83 37 76.732 37 69V51C37 43.268 43.268 37 51 37ZM141 37H159C166.732 37 173 43.268 173 51V69C173 76.732 166.732 83 159 83H141C133.268 83 127 76.732 127 69V51C127 43.268 133.268 37 141 37ZM141 127H159C166.732 127 173 133.268 173 141V159C173 166.732 166.732 173 159 173H141C133.268 173 127 166.732 127 159V141C127 133.268 133.268 127 141 127ZM51 127H69C76.732 127 83 133.268 83 141V159C83 166.732 76.732 173 69 173H51C43.268 173 37 166.732 37 159V141C37 133.268 43.268 127 51 127Z" stroke="white" stroke-width="4"/>
</g>
</svg>
