<svg width="210" height="210" viewBox="0 0 210 210" fill="none" xmlns="http://www.w3.org/2000/svg">
<mask id="mask0_4_257" style="mask-type:alpha" maskUnits="userSpaceOnUse" x="0" y="0" width="210" height="210">
<rect width="210" height="210" fill="#D9D9D9"/>
</mask>
<g mask="url(#mask0_4_257)">
<path d="M65.5 103C64.3954 103 63.5 103.895 63.5 105C63.5 106.105 64.3954 107 65.5 107H145C146.105 107 147 106.105 147 105C147 103.895 146.105 103 145 103H65.5ZM66 123C64.8954 123 64 123.895 64 125C64 126.105 64.8954 127 66 127H119C120.105 127 121 126.105 121 125C121 123.895 120.105 123 119 123H66ZM65.5 83C64.3954 83 63.5 83.8954 63.5 85C63.5 86.1046 64.3954 87 65.5 87H145C146.105 87 147 86.1046 147 85C147 83.8954 146.105 83 145 83H65.5ZM61 19H149C156.732 19 163 25.268 163 33V177C163 184.732 156.732 191 149 191H61C53.268 191 47 184.732 47 177V33C47 25.268 53.268 19 61 19Z" stroke="white" stroke-width="4" stroke-linecap="round"/>
</g>
</svg>
