<svg width="210" height="210" viewBox="0 0 210 210" fill="none" xmlns="http://www.w3.org/2000/svg">
<mask id="mask0_4_289" style="mask-type:alpha" maskUnits="userSpaceOnUse" x="0" y="0" width="210" height="210">
<rect width="210" height="210" fill="#D9D9D9"/>
</mask>
<g mask="url(#mask0_4_289)">
<path d="M122.806 36.9882H124.806V34.9882V21.9799C124.806 21.9798 124.806 21.9796 124.806 21.9794C124.806 21.9793 124.806 21.9792 124.807 21.979C124.807 21.9789 124.807 21.9788 124.807 21.9787C124.807 21.9787 124.807 21.9786 124.807 21.9786C124.808 21.9786 124.808 21.9787 124.808 21.9787C124.808 21.9788 124.808 21.9789 124.808 21.979C124.808 21.9792 124.809 21.9793 124.809 21.9794C124.809 21.9796 124.809 21.9798 124.809 21.9799V34.9882V36.9882H126.809H139.817C139.817 36.9882 139.817 36.9882 139.817 36.9882C139.818 36.9883 139.818 36.9885 139.818 36.9886C139.818 36.9887 139.818 36.9889 139.818 36.989C139.818 36.9891 139.818 36.9893 139.818 36.9895C139.818 36.9897 139.818 36.9898 139.818 36.99C139.818 36.9901 139.818 36.9903 139.818 36.9904C139.818 36.9905 139.818 36.9907 139.818 36.9908C139.817 36.9908 139.817 36.9908 139.817 36.9908H126.809H124.809V38.9908V51.9991C124.809 51.9992 124.809 51.9994 124.809 51.9995C124.809 51.9997 124.808 51.9998 124.808 52C124.808 52.0001 124.808 52.0002 124.808 52.0003C124.808 52.0003 124.808 52.0003 124.807 52.0003C124.807 52.0003 124.807 52.0003 124.807 52.0003C124.807 52.0002 124.807 52.0001 124.807 52C124.806 51.9998 124.806 51.9997 124.806 51.9996C124.806 51.9994 124.806 51.9992 124.806 51.9991V38.9908V36.9908H122.806H109.798C109.798 36.9908 109.798 36.9908 109.797 36.9908C109.797 36.9907 109.797 36.9905 109.797 36.9904C109.797 36.9903 109.797 36.9901 109.797 36.99C109.797 36.9899 109.797 36.9897 109.797 36.9895C109.797 36.9893 109.797 36.9892 109.797 36.989C109.797 36.9889 109.797 36.9887 109.797 36.9886C109.797 36.9885 109.797 36.9883 109.797 36.9882C109.798 36.9882 109.798 36.9882 109.798 36.9882H122.806ZM154.827 88.0208H156.827V86.0208V58.0029C156.827 58.0027 156.827 58.0026 156.827 58.0024C156.827 58.0023 156.827 58.0021 156.827 58.002C156.827 58.0019 156.827 58.0017 156.827 58.0016C156.827 58.0016 156.828 58.0016 156.828 58.0016C156.828 58.0016 156.828 58.0016 156.828 58.0016C156.828 58.0017 156.829 58.0019 156.829 58.002C156.829 58.0021 156.829 58.0022 156.829 58.0024C156.829 58.0025 156.829 58.0027 156.829 58.0029V86.0208V88.0208H158.829H186.847C186.847 88.0208 186.847 88.0208 186.847 88.0208C186.848 88.0209 186.848 88.021 186.848 88.0211C186.848 88.0213 186.848 88.0214 186.848 88.0215C186.848 88.0217 186.848 88.0219 186.848 88.022C186.848 88.0222 186.848 88.0224 186.848 88.0225C186.848 88.0226 186.848 88.0228 186.848 88.0229C186.848 88.0231 186.848 88.0232 186.848 88.0233C186.847 88.0233 186.847 88.0233 186.847 88.0233H158.829H156.829V90.0233V118.041C156.829 118.041 156.829 118.042 156.829 118.042C156.829 118.042 156.829 118.042 156.829 118.042C156.829 118.042 156.829 118.042 156.828 118.042C156.828 118.042 156.828 118.042 156.828 118.042C156.828 118.042 156.828 118.042 156.827 118.042C156.827 118.042 156.827 118.042 156.827 118.042C156.827 118.042 156.827 118.042 156.827 118.042C156.827 118.042 156.827 118.041 156.827 118.041V90.0233V88.0233H154.827H126.809C126.809 88.0233 126.808 88.0233 126.808 88.0233C126.808 88.0232 126.808 88.0231 126.808 88.0229C126.808 88.0228 126.808 88.0227 126.807 88.0226C126.807 88.0224 126.807 88.0222 126.807 88.022C126.807 88.0219 126.807 88.0217 126.807 88.0216C126.808 88.0214 126.808 88.0213 126.808 88.0211C126.808 88.021 126.808 88.0209 126.808 88.0208C126.808 88.0208 126.809 88.0208 126.809 88.0208L154.827 88.0208ZM81.91 23.5784C89.1617 21.1654 96.5042 19.7717 103.783 19.3181C103.783 19.3214 103.782 19.3241 103.78 19.3273C103.778 19.3304 103.771 19.3422 103.751 19.3612C78.7624 42.6431 68.1754 79.2033 79.6659 113.736C91.5696 149.51 123.747 172.831 159.171 175.186C159.199 175.188 159.212 175.193 159.215 175.194C159.218 175.195 159.22 175.196 159.222 175.197C159.223 175.198 159.223 175.198 159.224 175.199C152.371 180.107 144.673 184.085 136.25 186.887C91.1535 201.893 42.4311 177.499 27.4256 132.403C12.42 87.3063 36.8135 38.584 81.91 23.5784Z" stroke="white" stroke-width="4" stroke-linecap="round"/>
</g>
</svg>
