<svg width="24" height="24" viewBox="0 0 24 24" fill="none" xmlns="http://www.w3.org/2000/svg">
<g clip-path="url(#clip0_55_350)">
<mask id="mask0_55_350" style="mask-type:alpha" maskUnits="userSpaceOnUse" x="0" y="0" width="24" height="24">
<path d="M24 0H0V24H24V0Z" fill="#D9D9D9"/>
</mask>
<g mask="url(#mask0_55_350)">
<path d="M16.6849 7.42863C16.6849 7.80734 16.3779 8.11435 15.9992 8.11435C15.6204 8.11435 15.3135 7.80734 15.3135 7.42863C15.3135 7.04993 15.6204 6.74292 15.9992 6.74292C16.3779 6.74292 16.6849 7.04993 16.6849 7.42863Z" fill="black"/>
<path d="M18.8566 8.11435C19.2354 8.11435 19.5423 7.80734 19.5423 7.42863C19.5423 7.04993 19.2354 6.74292 18.8566 6.74292C18.4779 6.74292 18.1709 7.04993 18.1709 7.42863C18.1709 7.80734 18.4779 8.11435 18.8566 8.11435Z" fill="black"/>
<path fill-rule="evenodd" clip-rule="evenodd" d="M4.2281 4C2.96573 4 1.94238 5.02335 1.94238 6.28571V8.57143C1.94238 9.83379 2.96573 10.8571 4.2281 10.8571H19.771C21.0334 10.8571 22.0567 9.83379 22.0567 8.57143V6.28571C22.0567 5.02335 21.0334 4 19.771 4H4.2281ZM19.771 4.45714H4.2281C3.2182 4.45714 2.39953 5.27582 2.39953 6.28571V8.57143C2.39953 9.58133 3.2182 10.4 4.2281 10.4H19.771C20.7809 10.4 21.5995 9.58133 21.5995 8.57143V6.28571C21.5995 5.27582 20.7809 4.45714 19.771 4.45714Z" fill="black"/>
<path d="M16.6849 16.5715C16.6849 16.9502 16.3779 17.2572 15.9992 17.2572C15.6204 17.2572 15.3135 16.9502 15.3135 16.5715C15.3135 16.1927 15.6204 15.8857 15.9992 15.8857C16.3779 15.8857 16.6849 16.1927 16.6849 16.5715Z" fill="black"/>
<path d="M18.8566 17.2572C19.2354 17.2572 19.5423 16.9502 19.5423 16.5715C19.5423 16.1927 19.2354 15.8857 18.8566 15.8857C18.4779 15.8857 18.1709 16.1927 18.1709 16.5715C18.1709 16.9502 18.4779 17.2572 18.8566 17.2572Z" fill="black"/>
<path fill-rule="evenodd" clip-rule="evenodd" d="M4.2281 13.1428C2.96573 13.1428 1.94238 14.1661 1.94238 15.4285V17.7143C1.94238 18.9767 2.96573 20 4.2281 20H19.771C21.0334 20 22.0567 18.9767 22.0567 17.7143V15.4285C22.0567 14.1661 21.0334 13.1428 19.771 13.1428H4.2281ZM19.771 13.6H4.2281C3.2182 13.6 2.39953 14.4186 2.39953 15.4285V17.7143C2.39953 18.7242 3.2182 19.5428 4.2281 19.5428H19.771C20.7809 19.5428 21.5995 18.7242 21.5995 17.7143V15.4285C21.5995 14.4186 20.7809 13.6 19.771 13.6Z" fill="black"/>
</g>
</g>
<defs>
<clipPath id="clip0_55_350">
<rect width="24" height="24" fill="white"/>
</clipPath>
</defs>
</svg>
