<svg width="24" height="24" viewBox="0 0 24 24" fill="none" xmlns="http://www.w3.org/2000/svg">
<mask id="mask0_51_247" style="mask-type:alpha" maskUnits="userSpaceOnUse" x="0" y="0" width="24" height="24">
<rect width="24" height="24" fill="#D9D9D9"/>
</mask>
<g mask="url(#mask0_51_247)">
<path d="M10.9808 14.5H13.0192L12.4635 11.4096C12.7583 11.307 13.0016 11.1263 13.1933 10.8673C13.3849 10.6083 13.4808 10.3192 13.4808 9.99998C13.4808 9.591 13.3362 9.24195 13.0471 8.95285C12.758 8.66375 12.409 8.5192 12 8.5192C11.591 8.5192 11.242 8.66375 10.9529 8.95285C10.6638 9.24195 10.5192 9.591 10.5192 9.99998C10.5192 10.3192 10.6151 10.6083 10.8067 10.8673C10.9984 11.1263 11.2417 11.307 11.5365 11.4096L10.9808 14.5ZM12.2832 20.8726C12.0994 20.9335 11.9006 20.9335 11.7168 20.8726C9.83367 20.2487 8.25916 19.0613 6.99327 17.3106C5.66442 15.4727 5 13.4025 5 11.1V6.38617C5 5.96889 5.25911 5.59547 5.65001 5.44942L11.65 3.20767C11.8757 3.12334 12.1243 3.12334 12.35 3.20767L18.35 5.44942C18.7409 5.59547 19 5.96889 19 6.38617V11.1C19 13.4025 18.3356 15.4727 17.0067 17.3106C15.7408 19.0613 14.1663 20.2487 12.2832 20.8726ZM11.6995 19.798C11.8937 19.8683 12.1063 19.8683 12.3005 19.798C13.8997 19.2197 15.2328 18.1537 16.3 16.6C17.4333 14.95 18 13.1166 18 11.1V7.07006C18 6.65219 17.7402 6.27837 17.3485 6.13275L12.3485 4.27377C12.1237 4.19019 11.8763 4.19019 11.6515 4.27377L6.65151 6.13275C6.25983 6.27837 6 6.65219 6 7.07006V11.1C6 13.1166 6.56667 14.95 7.7 16.6C8.76717 18.1537 10.1003 19.2197 11.6995 19.798Z" fill="black"/>
</g>
</svg>
