<svg width="353" height="279" viewBox="0 0 353 279" fill="none" xmlns="http://www.w3.org/2000/svg">
<path d="M338.444 0.550049L352.736 6.43476V6.45147L338.403 0.550049H338.444Z" fill="url(#paint0_linear_366_209090)"/>
<path d="M330.426 0.550049L352.736 9.74954V9.78245L330.345 0.550049H330.426Z" fill="url(#paint1_linear_366_209090)"/>
<path d="M322.421 0.550049L352.736 13.068V13.1176L322.3 0.550049H322.421Z" fill="url(#paint2_linear_366_209090)"/>
<path d="M314.43 0.550049L352.736 16.3901V16.4569L314.268 0.550049H314.43Z" fill="url(#paint3_linear_366_209090)"/>
<path d="M306.452 0.550049L352.736 19.7169V19.7999L306.25 0.550049H306.452Z" fill="url(#paint4_linear_366_209090)"/>
<path d="M298.486 0.550049L352.736 23.0473V23.1476L298.244 0.550049H298.486Z" fill="url(#paint5_linear_366_209090)"/>
<path d="M290.535 0.550049L352.736 26.3825V26.4995L290.253 0.550049H290.535Z" fill="url(#paint6_linear_366_209090)"/>
<path d="M282.597 0.550049L352.736 29.7213V29.8555L282.275 0.550049H282.597Z" fill="url(#paint7_linear_366_209090)"/>
<path d="M274.673 0.550049L352.736 33.0648V33.2158L274.311 0.550049H274.673Z" fill="url(#paint8_linear_366_209090)"/>
<path d="M266.762 0.550049L352.736 36.4125V36.5807L266.36 0.550049H266.762Z" fill="url(#paint9_linear_366_209090)"/>
<path d="M258.865 0.550049L352.736 39.7644V39.9498L258.422 0.550049H258.865Z" fill="url(#paint10_linear_366_209090)"/>
<path d="M250.981 0.550049L352.736 43.121V43.3231L250.499 0.550049H250.981Z" fill="url(#paint11_linear_366_209090)"/>
<path d="M243.112 0.550049L352.736 46.4817V46.7011L242.588 0.550049H243.112Z" fill="url(#paint12_linear_366_209090)"/>
<path d="M235.256 0.550049L352.736 49.8472V50.0838L234.692 0.550049H235.256Z" fill="url(#paint13_linear_366_209090)"/>
<path d="M227.415 0.550049L352.736 53.2168V53.4706L226.81 0.550049H227.415Z" fill="url(#paint14_linear_366_209090)"/>
<path d="M219.587 0.550049L352.736 56.5911V56.8622L218.942 0.550049H219.587Z" fill="url(#paint15_linear_366_209090)"/>
<path d="M211.772 0.550049L352.736 59.9702V60.2585L211.088 0.550049H211.772Z" fill="url(#paint16_linear_366_209090)"/>
<path d="M203.973 0.550049L352.736 63.3534V63.6595L203.248 0.550049H203.973Z" fill="url(#paint17_linear_366_209090)"/>
<path d="M196.187 0.550049L352.736 66.7418V67.0651L195.422 0.550049H196.187Z" fill="url(#paint18_linear_366_209090)"/>
<path d="M188.416 0.550049L352.736 70.1344V70.4755L187.611 0.550049H188.416Z" fill="url(#paint19_linear_366_209090)"/>
<path d="M180.659 0.550049L352.736 73.5323V73.8906L179.813 0.550049H180.659Z" fill="url(#paint20_linear_366_209090)"/>
<path d="M172.916 0.550049L352.736 76.9343V77.3109L172.031 0.550049H172.916Z" fill="url(#paint21_linear_366_209090)"/>
<path d="M165.188 0.550049L352.736 80.3415V80.7359L164.262 0.550049H165.188Z" fill="url(#paint22_linear_366_209090)"/>
<path d="M157.475 0.550049L352.736 83.754V84.1656L156.508 0.550049H157.475Z" fill="url(#paint23_linear_366_209090)"/>
<path d="M149.776 0.550049L352.736 87.1706V87.6005L148.768 0.550049H149.776Z" fill="url(#paint24_linear_366_209090)"/>
<path d="M142.091 0.550049L352.736 90.5925V91.0401L141.044 0.550049H142.091Z" fill="url(#paint25_linear_366_209090)"/>
<path d="M134.421 0.550049L352.736 94.0196V94.4855L133.334 0.550049H134.421Z" fill="url(#paint26_linear_366_209090)"/>
<path d="M126.766 0.550049L352.736 97.4519V97.9356L125.639 0.550049H126.766Z" fill="url(#paint27_linear_366_209090)"/>
<path d="M119.126 0.550049L352.736 100.889V101.391L117.958 0.550049H119.126Z" fill="url(#paint28_linear_366_209090)"/>
<path d="M111.501 0.550049L352.736 104.332V104.851L110.293 0.550049H111.501Z" fill="url(#paint29_linear_366_209090)"/>
<path d="M103.89 0.550049L352.736 107.779V108.317L102.642 0.550049H103.89Z" fill="url(#paint30_linear_366_209090)"/>
<path d="M96.2949 0.550049L352.736 111.232V111.788L95.0066 0.550049H96.2949Z" fill="url(#paint31_linear_366_209090)"/>
<path d="M88.7148 0.550049L352.736 114.69V115.265L87.3858 0.550049H88.7148Z" fill="url(#paint32_linear_366_209090)"/>
<path d="M81.1505 0.550049L352.736 118.154V118.747L79.7809 0.550049H81.1505Z" fill="url(#paint33_linear_366_209090)"/>
<path d="M73.6003 0.550049L352.736 121.623V122.234L72.1908 0.550049H73.6003Z" fill="url(#paint34_linear_366_209090)"/>
<path d="M66.0658 0.550049L352.736 125.097V125.727L64.6167 0.550049H66.0658Z" fill="url(#paint35_linear_366_209090)"/>
<path d="M58.5472 0.550049L352.736 128.577V129.225L57.0574 0.550049H58.5472Z" fill="url(#paint36_linear_366_209090)"/>
<path d="M51.0435 0.550049L352.736 132.062V132.729L49.514 0.550049H51.0435Z" fill="url(#paint37_linear_366_209090)"/>
<path d="M43.5557 0.550049L352.736 135.554V136.239L41.9855 0.550049H43.5557Z" fill="url(#paint38_linear_366_209090)"/>
<path d="M36.0838 0.550049L352.736 139.051V139.755L34.4729 0.550049H36.0838Z" fill="url(#paint39_linear_366_209090)"/>
<path d="M28.6278 0.550049L352.736 142.553V143.276L26.9762 0.550049H28.6278Z" fill="url(#paint40_linear_366_209090)"/>
<path d="M21.1866 0.550049L352.736 146.062V146.804L19.4953 0.550049H21.1866Z" fill="url(#paint41_linear_366_209090)"/>
<path d="M13.7613 0.550049L352.736 149.576V150.337L12.0303 0.550049H13.7613Z" fill="url(#paint42_linear_366_209090)"/>
<path d="M6.35294 0.550049L352.736 153.096V153.876L4.58121 0.550049H6.35294Z" fill="url(#paint43_linear_366_209090)"/>
<path d="M-0.000366211 1.00914L352.736 156.623V157.422L-0.000366211 1.80885V1.00914Z" fill="url(#paint44_linear_366_209090)"/>
<path d="M-0.000366211 4.2697L352.736 160.154V160.973L-0.000366211 5.08821V4.2697Z" fill="url(#paint45_linear_366_209090)"/>
<path d="M-0.000366211 7.53434L352.736 163.692V164.53L-0.000366211 8.37218V7.53434Z" fill="url(#paint46_linear_366_209090)"/>
<path d="M-0.000366211 10.8051L352.736 167.238V168.095L-0.000366211 11.6623V10.8051Z" fill="url(#paint47_linear_366_209090)"/>
<path d="M-0.000366211 14.0779L352.736 170.787V171.664L-0.000366211 14.9544V14.0779Z" fill="url(#paint48_linear_366_209090)"/>
<path d="M-0.000366211 17.3568L352.736 174.346V175.242L-0.000366211 18.2532V17.3568Z" fill="url(#paint49_linear_366_209090)"/>
<path d="M-0.000366211 20.6398L352.736 177.909V178.825L-0.000366211 21.5555V20.6398Z" fill="url(#paint50_linear_366_209090)"/>
<path d="M-0.000366211 23.9269L352.736 181.479V182.414L-0.000366211 24.8624V23.9269Z" fill="url(#paint51_linear_366_209090)"/>
<path d="M-0.000366211 27.2181L352.736 185.054V186.009L-0.000366211 28.1729V27.2181Z" fill="url(#paint52_linear_366_209090)"/>
<path d="M-0.000366211 30.5133L352.736 188.636V189.61L-0.000366211 31.488V30.5133Z" fill="url(#paint53_linear_366_209090)"/>
<path d="M-0.000366211 33.8147L352.736 192.226V193.221L-0.000366211 34.8092V33.8147Z" fill="url(#paint54_linear_366_209090)"/>
<path d="M-0.000366211 37.1201L352.736 195.822V196.837L-0.000366211 38.135V37.1201Z" fill="url(#paint55_linear_366_209090)"/>
<path d="M-0.000366211 40.4317L352.736 199.426V200.46L-0.000366211 41.4665V40.4317Z" fill="url(#paint56_linear_366_209090)"/>
<path d="M-0.000366211 43.7453L352.736 203.034V204.089L-0.000366211 44.7999V43.7453Z" fill="url(#paint57_linear_366_209090)"/>
<path d="M-0.000366211 47.0671L352.736 206.652V207.727L-0.000366211 48.1415V47.0671Z" fill="url(#paint58_linear_366_209090)"/>
<path d="M-0.000366211 50.3909L352.736 210.275V211.37L-0.000366211 51.4857V50.3909Z" fill="url(#paint59_linear_366_209090)"/>
<path d="M-0.000366211 53.7208L352.736 213.906V215.021L-0.000366211 54.836V53.7208Z" fill="url(#paint60_linear_366_209090)"/>
<path d="M-0.000366211 57.0548L352.736 217.542V218.678L-0.000366211 58.1909V57.0548Z" fill="url(#paint61_linear_366_209090)"/>
<path d="M-0.000366211 60.395L352.736 221.188V222.344L-0.000366211 61.5514V60.395Z" fill="url(#paint62_linear_366_209090)"/>
<path d="M-0.000366211 63.7412L352.736 224.841V226.018L-0.000366211 64.9181V63.7412Z" fill="url(#paint63_linear_366_209090)"/>
<path d="M-0.000366211 67.0895L352.736 228.499V229.696L-0.000366211 68.2873V67.0895Z" fill="url(#paint64_linear_366_209090)"/>
<path d="M-0.000366211 70.446L352.736 232.167V233.385L-0.000366211 71.6641V70.446Z" fill="url(#paint65_linear_366_209090)"/>
<path d="M-0.000366211 73.8065L352.736 235.841V237.081L-0.000366211 75.046V73.8065Z" fill="url(#paint66_linear_366_209090)"/>
<path d="M-0.000366211 77.1712L352.736 239.522V240.782L-0.000366211 78.4316V77.1712Z" fill="url(#paint67_linear_366_209090)"/>
<path d="M-0.000366211 80.5439L352.736 243.213V244.495L-0.000366211 81.8252V80.5439Z" fill="url(#paint68_linear_366_209090)"/>
<path d="M-0.000366211 83.9208L352.736 246.91V248.213L-0.000366211 85.223V83.9208Z" fill="url(#paint69_linear_366_209090)"/>
<path d="M-0.000366211 87.3017L352.736 250.615V251.938L-0.000366211 88.6254V87.3017Z" fill="url(#paint70_linear_366_209090)"/>
<path d="M-0.000366211 90.6888L352.736 254.328V255.673L-0.000366211 92.0338V90.6888Z" fill="url(#paint71_linear_366_209090)"/>
<path d="M-0.000366211 94.084L352.736 258.05V259.417L-0.000366211 95.4505V94.084Z" fill="url(#paint72_linear_366_209090)"/>
<path d="M-0.000366211 97.4813L352.736 261.778V263.166L-0.000366211 98.8692V97.4813Z" fill="url(#paint73_linear_366_209090)"/>
<path d="M-0.000366211 100.887L352.736 265.516V266.925L-0.000366211 102.296V100.887Z" fill="url(#paint74_linear_366_209090)"/>
<path d="M-0.000366211 104.298L352.736 269.263V270.694L-0.000366211 105.729V104.298Z" fill="url(#paint75_linear_366_209090)"/>
<path d="M-0.000366211 107.714L352.736 273.016V274.469L-0.000366211 109.167V107.714Z" fill="url(#paint76_linear_366_209090)"/>
<path d="M-0.000366211 112.612V111.138L352.736 276.78V278.255L-0.000366211 112.612Z" fill="url(#paint77_linear_366_209090)"/>
<path d="M-0.000640869 116.063V114.566L349.438 278.999H346.257L-0.000640869 116.063Z" fill="url(#paint78_linear_366_209090)"/>
<path d="M-0.000488281 119.519V118L341.429 278.999H338.207L-0.000488281 119.519Z" fill="url(#paint79_linear_366_209090)"/>
<path d="M-0.000183105 122.981V121.44L333.435 278.998H330.174L-0.000183105 122.981Z" fill="url(#paint80_linear_366_209090)"/>
<path d="M-0.000244141 126.449V124.886L325.456 278.997H322.154L-0.000244141 126.449Z" fill="url(#paint81_linear_366_209090)"/>
<path d="M-0.000183105 129.926V128.34L317.492 278.998H314.15L-0.000183105 129.926Z" fill="url(#paint82_linear_366_209090)"/>
<path d="M-0.000427246 133.407V131.799L309.542 278.997H306.161L-0.000427246 133.407Z" fill="url(#paint83_linear_366_209090)"/>
<path d="M-0.000579834 136.897V135.265L301.609 278.998H298.186L-0.000579834 136.897Z" fill="url(#paint84_linear_366_209090)"/>
<path d="M-0.000183105 140.392V138.738L293.691 278.999H290.229L-0.000183105 140.392Z" fill="url(#paint85_linear_366_209090)"/>
<path d="M-0.000579834 143.894V142.217L285.788 278.998H282.285L-0.000579834 143.894Z" fill="url(#paint86_linear_366_209090)"/>
<path d="M-0.000366211 147.402V145.702L277.901 278.998H274.358L-0.000366211 147.402Z" fill="url(#paint87_linear_366_209090)"/>
<path d="M-0.000518799 150.918V149.195L270.029 278.998H266.445L-0.000518799 150.918Z" fill="url(#paint88_linear_366_209090)"/>
<path d="M-0.000549316 154.44V152.695L262.173 278.999H258.548L-0.000549316 154.44Z" fill="url(#paint89_linear_366_209090)"/>
<path d="M-0.000488281 157.969V156.2L254.333 278.998H250.668L-0.000488281 157.969Z" fill="url(#paint90_linear_366_209090)"/>
<path d="M-0.000274658 161.506V159.714L246.508 278.998H242.803L-0.000274658 161.506Z" fill="url(#paint91_linear_366_209090)"/>
<path d="M-0.000457764 165.049V163.233L238.699 278.998H234.954L-0.000457764 165.049Z" fill="url(#paint92_linear_366_209090)"/>
<path d="M-0.000518799 168.601V166.761L230.907 278.998H227.121L-0.000518799 168.601Z" fill="url(#paint93_linear_366_209090)"/>
<path d="M-0.000488281 172.158V170.295L223.13 278.998H219.305L-0.000488281 172.158Z" fill="url(#paint94_linear_366_209090)"/>
<path d="M-0.000335693 175.725V173.837L215.369 278.998H211.503L-0.000335693 175.725Z" fill="url(#paint95_linear_366_209090)"/>
<path d="M-0.000579834 179.299V177.387L207.625 278.999H203.72L-0.000579834 179.299Z" fill="url(#paint96_linear_366_209090)"/>
<path d="M-0.000213623 182.88V180.944L199.898 278.999H195.951L-0.000213623 182.88Z" fill="url(#paint97_linear_366_209090)"/>
<path d="M-0.000244141 186.469V184.508L192.185 278.999H188.199L-0.000244141 186.469Z" fill="url(#paint98_linear_366_209090)"/>
<path d="M-0.000213623 190.064V188.079L184.491 278.998H180.464L-0.000213623 190.064Z" fill="url(#paint99_linear_366_209090)"/>
<path d="M-0.000518799 193.669V191.66L176.812 278.999H172.745L-0.000518799 193.669Z" fill="url(#paint100_linear_366_209090)"/>
<path d="M-0.000244141 197.281V195.247L169.15 278.998H165.043L-0.000244141 197.281Z" fill="url(#paint101_linear_366_209090)"/>
<path d="M-0.000396729 200.901V198.842L161.505 278.998H157.359L-0.000396729 200.901Z" fill="url(#paint102_linear_366_209090)"/>
<path d="M-0.000457764 204.529V202.446L153.878 278.997H149.689L-0.000457764 204.529Z" fill="url(#paint103_linear_366_209090)"/>
<path d="M-0.000396729 208.168V206.059L146.266 278.999H142.038L-0.000396729 208.168Z" fill="url(#paint104_linear_366_209090)"/>
<path d="M-0.000244141 211.813V209.679L138.672 278.998H134.404L-0.000244141 211.813Z" fill="url(#paint105_linear_366_209090)"/>
<path d="M-0.000579834 215.466V213.307L131.095 278.998H126.786L-0.000579834 215.466Z" fill="url(#paint106_linear_366_209090)"/>
<path d="M-0.000274658 219.13V216.945L123.535 278.999H119.186L-0.000274658 219.13Z" fill="url(#paint107_linear_366_209090)"/>
<path d="M-0.000366211 222.801V220.591L115.992 278.999H111.603L-0.000366211 222.801Z" fill="url(#paint108_linear_366_209090)"/>
<path d="M-0.000427246 226.481V224.245L108.467 278.999H104.038L-0.000427246 226.481Z" fill="url(#paint109_linear_366_209090)"/>
<path d="M-0.000396729 230.169V227.908L100.96 278.999H96.4894L-0.000396729 230.169Z" fill="url(#paint110_linear_366_209090)"/>
<path d="M-0.000274658 233.868V231.58L93.4692 278.999H88.9591L-0.000274658 233.868Z" fill="url(#paint111_linear_366_209090)"/>
<path d="M-0.000549316 237.575V235.261L85.997 278.999H81.4462L-0.000549316 237.575Z" fill="url(#paint112_linear_366_209090)"/>
<path d="M-0.000335693 241.291V238.95L78.5422 278.998H73.9516L-0.000335693 241.291Z" fill="url(#paint113_linear_366_209090)"/>
<path d="M-0.000488281 245.017V242.65L71.1049 278.998H66.4746L-0.000488281 245.017Z" fill="url(#paint114_linear_366_209090)"/>
<path d="M-0.000152588 248.753V246.359L63.6869 278.998H59.016L-0.000152588 248.753Z" fill="url(#paint115_linear_366_209090)"/>
<path d="M-0.000183105 252.499V250.079L56.2854 278.999H51.5747L-0.000183105 252.499Z" fill="url(#paint116_linear_366_209090)"/>
<path d="M-0.000579834 256.254V253.807L48.9024 278.999H44.151L-0.000579834 256.254Z" fill="url(#paint117_linear_366_209090)"/>
<path d="M-0.000579834 260.019V257.545L41.5377 278.999H36.7466L-0.000579834 260.019Z" fill="url(#paint118_linear_366_209090)"/>
<path d="M-0.000427246 263.793V261.291L34.192 278.998H29.3602L-0.000427246 263.793Z" fill="url(#paint119_linear_366_209090)"/>
<path d="M-0.000305176 267.579V265.049L26.8651 278.998H21.9926L-0.000305176 267.579Z" fill="url(#paint120_linear_366_209090)"/>
<path d="M-0.000518799 271.375V268.818L19.5557 278.999H14.6425L-0.000518799 271.375Z" fill="url(#paint121_linear_366_209090)"/>
<path d="M-0.000274658 275.18V272.595L12.2657 278.997H7.31183L-0.000274658 275.18Z" fill="url(#paint122_linear_366_209090)"/>
<path d="M-0.000366211 278.997V276.384L4.99313 278.997H0.000610352L-0.000366211 278.997Z" fill="url(#paint123_linear_366_209090)"/>
<defs>
<linearGradient id="paint0_linear_366_209090" x1="301.566" y1="29.6418" x2="12.4672" y2="173.022" gradientUnits="userSpaceOnUse">
<stop stop-color="#3E749F"/>
<stop offset="1" stop-color="#1F3045" stop-opacity="0"/>
</linearGradient>
<linearGradient id="paint1_linear_366_209090" x1="301.566" y1="29.6418" x2="12.4672" y2="173.022" gradientUnits="userSpaceOnUse">
<stop stop-color="#3E749F"/>
<stop offset="1" stop-color="#1F3045" stop-opacity="0"/>
</linearGradient>
<linearGradient id="paint2_linear_366_209090" x1="301.566" y1="29.6418" x2="12.4672" y2="173.022" gradientUnits="userSpaceOnUse">
<stop stop-color="#3E749F"/>
<stop offset="1" stop-color="#1F3045" stop-opacity="0"/>
</linearGradient>
<linearGradient id="paint3_linear_366_209090" x1="301.566" y1="29.6418" x2="12.4672" y2="173.022" gradientUnits="userSpaceOnUse">
<stop stop-color="#3E749F"/>
<stop offset="1" stop-color="#1F3045" stop-opacity="0"/>
</linearGradient>
<linearGradient id="paint4_linear_366_209090" x1="301.566" y1="29.6418" x2="12.4672" y2="173.022" gradientUnits="userSpaceOnUse">
<stop stop-color="#3E749F"/>
<stop offset="1" stop-color="#1F3045" stop-opacity="0"/>
</linearGradient>
<linearGradient id="paint5_linear_366_209090" x1="301.566" y1="29.6418" x2="12.4672" y2="173.022" gradientUnits="userSpaceOnUse">
<stop stop-color="#3E749F"/>
<stop offset="1" stop-color="#1F3045" stop-opacity="0"/>
</linearGradient>
<linearGradient id="paint6_linear_366_209090" x1="301.566" y1="29.6418" x2="12.4672" y2="173.022" gradientUnits="userSpaceOnUse">
<stop stop-color="#3E749F"/>
<stop offset="1" stop-color="#1F3045" stop-opacity="0"/>
</linearGradient>
<linearGradient id="paint7_linear_366_209090" x1="301.566" y1="29.6418" x2="12.4672" y2="173.022" gradientUnits="userSpaceOnUse">
<stop stop-color="#3E749F"/>
<stop offset="1" stop-color="#1F3045" stop-opacity="0"/>
</linearGradient>
<linearGradient id="paint8_linear_366_209090" x1="301.566" y1="29.6418" x2="12.4672" y2="173.022" gradientUnits="userSpaceOnUse">
<stop stop-color="#3E749F"/>
<stop offset="1" stop-color="#1F3045" stop-opacity="0"/>
</linearGradient>
<linearGradient id="paint9_linear_366_209090" x1="301.566" y1="29.6418" x2="12.4672" y2="173.022" gradientUnits="userSpaceOnUse">
<stop stop-color="#3E749F"/>
<stop offset="1" stop-color="#1F3045" stop-opacity="0"/>
</linearGradient>
<linearGradient id="paint10_linear_366_209090" x1="301.566" y1="29.6418" x2="12.4672" y2="173.022" gradientUnits="userSpaceOnUse">
<stop stop-color="#3E749F"/>
<stop offset="1" stop-color="#1F3045" stop-opacity="0"/>
</linearGradient>
<linearGradient id="paint11_linear_366_209090" x1="301.566" y1="29.6418" x2="12.4672" y2="173.022" gradientUnits="userSpaceOnUse">
<stop stop-color="#3E749F"/>
<stop offset="1" stop-color="#1F3045" stop-opacity="0"/>
</linearGradient>
<linearGradient id="paint12_linear_366_209090" x1="301.566" y1="29.6418" x2="12.4672" y2="173.022" gradientUnits="userSpaceOnUse">
<stop stop-color="#3E749F"/>
<stop offset="1" stop-color="#1F3045" stop-opacity="0"/>
</linearGradient>
<linearGradient id="paint13_linear_366_209090" x1="301.566" y1="29.6418" x2="12.4672" y2="173.022" gradientUnits="userSpaceOnUse">
<stop stop-color="#3E749F"/>
<stop offset="1" stop-color="#1F3045" stop-opacity="0"/>
</linearGradient>
<linearGradient id="paint14_linear_366_209090" x1="301.566" y1="29.6418" x2="12.4672" y2="173.022" gradientUnits="userSpaceOnUse">
<stop stop-color="#3E749F"/>
<stop offset="1" stop-color="#1F3045" stop-opacity="0"/>
</linearGradient>
<linearGradient id="paint15_linear_366_209090" x1="301.566" y1="29.6418" x2="12.4672" y2="173.022" gradientUnits="userSpaceOnUse">
<stop stop-color="#3E749F"/>
<stop offset="1" stop-color="#1F3045" stop-opacity="0"/>
</linearGradient>
<linearGradient id="paint16_linear_366_209090" x1="301.566" y1="29.6418" x2="12.4672" y2="173.022" gradientUnits="userSpaceOnUse">
<stop stop-color="#3E749F"/>
<stop offset="1" stop-color="#1F3045" stop-opacity="0"/>
</linearGradient>
<linearGradient id="paint17_linear_366_209090" x1="301.566" y1="29.6418" x2="12.4672" y2="173.022" gradientUnits="userSpaceOnUse">
<stop stop-color="#3E749F"/>
<stop offset="1" stop-color="#1F3045" stop-opacity="0"/>
</linearGradient>
<linearGradient id="paint18_linear_366_209090" x1="301.566" y1="29.6418" x2="12.4672" y2="173.022" gradientUnits="userSpaceOnUse">
<stop stop-color="#3E749F"/>
<stop offset="1" stop-color="#1F3045" stop-opacity="0"/>
</linearGradient>
<linearGradient id="paint19_linear_366_209090" x1="301.566" y1="29.6418" x2="12.4672" y2="173.022" gradientUnits="userSpaceOnUse">
<stop stop-color="#3E749F"/>
<stop offset="1" stop-color="#1F3045" stop-opacity="0"/>
</linearGradient>
<linearGradient id="paint20_linear_366_209090" x1="301.566" y1="29.6418" x2="12.4672" y2="173.022" gradientUnits="userSpaceOnUse">
<stop stop-color="#3E749F"/>
<stop offset="1" stop-color="#1F3045" stop-opacity="0"/>
</linearGradient>
<linearGradient id="paint21_linear_366_209090" x1="301.566" y1="29.6418" x2="12.4672" y2="173.022" gradientUnits="userSpaceOnUse">
<stop stop-color="#3E749F"/>
<stop offset="1" stop-color="#1F3045" stop-opacity="0"/>
</linearGradient>
<linearGradient id="paint22_linear_366_209090" x1="301.566" y1="29.6418" x2="12.4672" y2="173.022" gradientUnits="userSpaceOnUse">
<stop stop-color="#3E749F"/>
<stop offset="1" stop-color="#1F3045" stop-opacity="0"/>
</linearGradient>
<linearGradient id="paint23_linear_366_209090" x1="301.566" y1="29.6418" x2="12.4672" y2="173.022" gradientUnits="userSpaceOnUse">
<stop stop-color="#3E749F"/>
<stop offset="1" stop-color="#1F3045" stop-opacity="0"/>
</linearGradient>
<linearGradient id="paint24_linear_366_209090" x1="301.566" y1="29.6418" x2="12.4672" y2="173.022" gradientUnits="userSpaceOnUse">
<stop stop-color="#3E749F"/>
<stop offset="1" stop-color="#1F3045" stop-opacity="0"/>
</linearGradient>
<linearGradient id="paint25_linear_366_209090" x1="301.566" y1="29.6418" x2="12.4672" y2="173.022" gradientUnits="userSpaceOnUse">
<stop stop-color="#3E749F"/>
<stop offset="1" stop-color="#1F3045" stop-opacity="0"/>
</linearGradient>
<linearGradient id="paint26_linear_366_209090" x1="301.566" y1="29.6418" x2="12.4672" y2="173.022" gradientUnits="userSpaceOnUse">
<stop stop-color="#3E749F"/>
<stop offset="1" stop-color="#1F3045" stop-opacity="0"/>
</linearGradient>
<linearGradient id="paint27_linear_366_209090" x1="301.566" y1="29.6418" x2="12.4672" y2="173.022" gradientUnits="userSpaceOnUse">
<stop stop-color="#3E749F"/>
<stop offset="1" stop-color="#1F3045" stop-opacity="0"/>
</linearGradient>
<linearGradient id="paint28_linear_366_209090" x1="301.566" y1="29.6418" x2="12.4672" y2="173.022" gradientUnits="userSpaceOnUse">
<stop stop-color="#3E749F"/>
<stop offset="1" stop-color="#1F3045" stop-opacity="0"/>
</linearGradient>
<linearGradient id="paint29_linear_366_209090" x1="301.566" y1="29.6418" x2="12.4672" y2="173.022" gradientUnits="userSpaceOnUse">
<stop stop-color="#3E749F"/>
<stop offset="1" stop-color="#1F3045" stop-opacity="0"/>
</linearGradient>
<linearGradient id="paint30_linear_366_209090" x1="301.566" y1="29.6418" x2="12.4672" y2="173.022" gradientUnits="userSpaceOnUse">
<stop stop-color="#3E749F"/>
<stop offset="1" stop-color="#1F3045" stop-opacity="0"/>
</linearGradient>
<linearGradient id="paint31_linear_366_209090" x1="301.566" y1="29.6418" x2="12.4672" y2="173.022" gradientUnits="userSpaceOnUse">
<stop stop-color="#3E749F"/>
<stop offset="1" stop-color="#1F3045" stop-opacity="0"/>
</linearGradient>
<linearGradient id="paint32_linear_366_209090" x1="301.566" y1="29.6418" x2="12.4672" y2="173.022" gradientUnits="userSpaceOnUse">
<stop stop-color="#3E749F"/>
<stop offset="1" stop-color="#1F3045" stop-opacity="0"/>
</linearGradient>
<linearGradient id="paint33_linear_366_209090" x1="301.566" y1="29.6418" x2="12.4672" y2="173.022" gradientUnits="userSpaceOnUse">
<stop stop-color="#3E749F"/>
<stop offset="1" stop-color="#1F3045" stop-opacity="0"/>
</linearGradient>
<linearGradient id="paint34_linear_366_209090" x1="301.566" y1="29.6418" x2="12.4672" y2="173.022" gradientUnits="userSpaceOnUse">
<stop stop-color="#3E749F"/>
<stop offset="1" stop-color="#1F3045" stop-opacity="0"/>
</linearGradient>
<linearGradient id="paint35_linear_366_209090" x1="301.566" y1="29.6418" x2="12.4672" y2="173.022" gradientUnits="userSpaceOnUse">
<stop stop-color="#3E749F"/>
<stop offset="1" stop-color="#1F3045" stop-opacity="0"/>
</linearGradient>
<linearGradient id="paint36_linear_366_209090" x1="301.566" y1="29.6418" x2="12.4672" y2="173.022" gradientUnits="userSpaceOnUse">
<stop stop-color="#3E749F"/>
<stop offset="1" stop-color="#1F3045" stop-opacity="0"/>
</linearGradient>
<linearGradient id="paint37_linear_366_209090" x1="301.566" y1="29.6418" x2="12.4672" y2="173.022" gradientUnits="userSpaceOnUse">
<stop stop-color="#3E749F"/>
<stop offset="1" stop-color="#1F3045" stop-opacity="0"/>
</linearGradient>
<linearGradient id="paint38_linear_366_209090" x1="301.566" y1="29.6418" x2="12.4672" y2="173.022" gradientUnits="userSpaceOnUse">
<stop stop-color="#3E749F"/>
<stop offset="1" stop-color="#1F3045" stop-opacity="0"/>
</linearGradient>
<linearGradient id="paint39_linear_366_209090" x1="301.566" y1="29.6418" x2="12.4672" y2="173.022" gradientUnits="userSpaceOnUse">
<stop stop-color="#3E749F"/>
<stop offset="1" stop-color="#1F3045" stop-opacity="0"/>
</linearGradient>
<linearGradient id="paint40_linear_366_209090" x1="301.566" y1="29.6418" x2="12.4672" y2="173.022" gradientUnits="userSpaceOnUse">
<stop stop-color="#3E749F"/>
<stop offset="1" stop-color="#1F3045" stop-opacity="0"/>
</linearGradient>
<linearGradient id="paint41_linear_366_209090" x1="301.566" y1="29.6418" x2="12.4672" y2="173.022" gradientUnits="userSpaceOnUse">
<stop stop-color="#3E749F"/>
<stop offset="1" stop-color="#1F3045" stop-opacity="0"/>
</linearGradient>
<linearGradient id="paint42_linear_366_209090" x1="301.566" y1="29.6418" x2="12.4672" y2="173.022" gradientUnits="userSpaceOnUse">
<stop stop-color="#3E749F"/>
<stop offset="1" stop-color="#1F3045" stop-opacity="0"/>
</linearGradient>
<linearGradient id="paint43_linear_366_209090" x1="301.566" y1="29.6418" x2="12.4672" y2="173.022" gradientUnits="userSpaceOnUse">
<stop stop-color="#3E749F"/>
<stop offset="1" stop-color="#1F3045" stop-opacity="0"/>
</linearGradient>
<linearGradient id="paint44_linear_366_209090" x1="301.566" y1="29.6418" x2="12.4672" y2="173.022" gradientUnits="userSpaceOnUse">
<stop stop-color="#3E749F"/>
<stop offset="1" stop-color="#1F3045" stop-opacity="0"/>
</linearGradient>
<linearGradient id="paint45_linear_366_209090" x1="301.566" y1="29.6418" x2="12.4672" y2="173.022" gradientUnits="userSpaceOnUse">
<stop stop-color="#3E749F"/>
<stop offset="1" stop-color="#1F3045" stop-opacity="0"/>
</linearGradient>
<linearGradient id="paint46_linear_366_209090" x1="301.566" y1="29.6418" x2="12.4672" y2="173.022" gradientUnits="userSpaceOnUse">
<stop stop-color="#3E749F"/>
<stop offset="1" stop-color="#1F3045" stop-opacity="0"/>
</linearGradient>
<linearGradient id="paint47_linear_366_209090" x1="301.566" y1="29.6418" x2="12.4672" y2="173.022" gradientUnits="userSpaceOnUse">
<stop stop-color="#3E749F"/>
<stop offset="1" stop-color="#1F3045" stop-opacity="0"/>
</linearGradient>
<linearGradient id="paint48_linear_366_209090" x1="301.566" y1="29.6418" x2="12.4672" y2="173.022" gradientUnits="userSpaceOnUse">
<stop stop-color="#3E749F"/>
<stop offset="1" stop-color="#1F3045" stop-opacity="0"/>
</linearGradient>
<linearGradient id="paint49_linear_366_209090" x1="301.566" y1="29.6418" x2="12.4672" y2="173.022" gradientUnits="userSpaceOnUse">
<stop stop-color="#3E749F"/>
<stop offset="1" stop-color="#1F3045" stop-opacity="0"/>
</linearGradient>
<linearGradient id="paint50_linear_366_209090" x1="301.566" y1="29.6418" x2="12.4672" y2="173.022" gradientUnits="userSpaceOnUse">
<stop stop-color="#3E749F"/>
<stop offset="1" stop-color="#1F3045" stop-opacity="0"/>
</linearGradient>
<linearGradient id="paint51_linear_366_209090" x1="301.566" y1="29.6418" x2="12.4672" y2="173.022" gradientUnits="userSpaceOnUse">
<stop stop-color="#3E749F"/>
<stop offset="1" stop-color="#1F3045" stop-opacity="0"/>
</linearGradient>
<linearGradient id="paint52_linear_366_209090" x1="301.566" y1="29.6418" x2="12.4672" y2="173.022" gradientUnits="userSpaceOnUse">
<stop stop-color="#3E749F"/>
<stop offset="1" stop-color="#1F3045" stop-opacity="0"/>
</linearGradient>
<linearGradient id="paint53_linear_366_209090" x1="301.566" y1="29.6418" x2="12.4672" y2="173.022" gradientUnits="userSpaceOnUse">
<stop stop-color="#3E749F"/>
<stop offset="1" stop-color="#1F3045" stop-opacity="0"/>
</linearGradient>
<linearGradient id="paint54_linear_366_209090" x1="301.566" y1="29.6418" x2="12.4672" y2="173.022" gradientUnits="userSpaceOnUse">
<stop stop-color="#3E749F"/>
<stop offset="1" stop-color="#1F3045" stop-opacity="0"/>
</linearGradient>
<linearGradient id="paint55_linear_366_209090" x1="301.566" y1="29.6418" x2="12.4672" y2="173.022" gradientUnits="userSpaceOnUse">
<stop stop-color="#3E749F"/>
<stop offset="1" stop-color="#1F3045" stop-opacity="0"/>
</linearGradient>
<linearGradient id="paint56_linear_366_209090" x1="301.566" y1="29.6418" x2="12.4672" y2="173.022" gradientUnits="userSpaceOnUse">
<stop stop-color="#3E749F"/>
<stop offset="1" stop-color="#1F3045" stop-opacity="0"/>
</linearGradient>
<linearGradient id="paint57_linear_366_209090" x1="301.566" y1="29.6418" x2="12.4672" y2="173.022" gradientUnits="userSpaceOnUse">
<stop stop-color="#3E749F"/>
<stop offset="1" stop-color="#1F3045" stop-opacity="0"/>
</linearGradient>
<linearGradient id="paint58_linear_366_209090" x1="301.566" y1="29.6418" x2="12.4672" y2="173.022" gradientUnits="userSpaceOnUse">
<stop stop-color="#3E749F"/>
<stop offset="1" stop-color="#1F3045" stop-opacity="0"/>
</linearGradient>
<linearGradient id="paint59_linear_366_209090" x1="301.566" y1="29.6418" x2="12.4672" y2="173.022" gradientUnits="userSpaceOnUse">
<stop stop-color="#3E749F"/>
<stop offset="1" stop-color="#1F3045" stop-opacity="0"/>
</linearGradient>
<linearGradient id="paint60_linear_366_209090" x1="301.566" y1="29.6418" x2="12.4672" y2="173.022" gradientUnits="userSpaceOnUse">
<stop stop-color="#3E749F"/>
<stop offset="1" stop-color="#1F3045" stop-opacity="0"/>
</linearGradient>
<linearGradient id="paint61_linear_366_209090" x1="301.566" y1="29.6418" x2="12.4672" y2="173.022" gradientUnits="userSpaceOnUse">
<stop stop-color="#3E749F"/>
<stop offset="1" stop-color="#1F3045" stop-opacity="0"/>
</linearGradient>
<linearGradient id="paint62_linear_366_209090" x1="301.566" y1="29.6418" x2="12.4672" y2="173.022" gradientUnits="userSpaceOnUse">
<stop stop-color="#3E749F"/>
<stop offset="1" stop-color="#1F3045" stop-opacity="0"/>
</linearGradient>
<linearGradient id="paint63_linear_366_209090" x1="301.566" y1="29.6418" x2="12.4672" y2="173.022" gradientUnits="userSpaceOnUse">
<stop stop-color="#3E749F"/>
<stop offset="1" stop-color="#1F3045" stop-opacity="0"/>
</linearGradient>
<linearGradient id="paint64_linear_366_209090" x1="301.566" y1="29.6418" x2="12.4672" y2="173.022" gradientUnits="userSpaceOnUse">
<stop stop-color="#3E749F"/>
<stop offset="1" stop-color="#1F3045" stop-opacity="0"/>
</linearGradient>
<linearGradient id="paint65_linear_366_209090" x1="301.566" y1="29.6418" x2="12.4672" y2="173.022" gradientUnits="userSpaceOnUse">
<stop stop-color="#3E749F"/>
<stop offset="1" stop-color="#1F3045" stop-opacity="0"/>
</linearGradient>
<linearGradient id="paint66_linear_366_209090" x1="301.566" y1="29.6418" x2="12.4672" y2="173.022" gradientUnits="userSpaceOnUse">
<stop stop-color="#3E749F"/>
<stop offset="1" stop-color="#1F3045" stop-opacity="0"/>
</linearGradient>
<linearGradient id="paint67_linear_366_209090" x1="301.566" y1="29.6418" x2="12.4672" y2="173.022" gradientUnits="userSpaceOnUse">
<stop stop-color="#3E749F"/>
<stop offset="1" stop-color="#1F3045" stop-opacity="0"/>
</linearGradient>
<linearGradient id="paint68_linear_366_209090" x1="301.566" y1="29.6418" x2="12.4672" y2="173.022" gradientUnits="userSpaceOnUse">
<stop stop-color="#3E749F"/>
<stop offset="1" stop-color="#1F3045" stop-opacity="0"/>
</linearGradient>
<linearGradient id="paint69_linear_366_209090" x1="301.566" y1="29.6418" x2="12.4672" y2="173.022" gradientUnits="userSpaceOnUse">
<stop stop-color="#3E749F"/>
<stop offset="1" stop-color="#1F3045" stop-opacity="0"/>
</linearGradient>
<linearGradient id="paint70_linear_366_209090" x1="301.566" y1="29.6418" x2="12.4672" y2="173.022" gradientUnits="userSpaceOnUse">
<stop stop-color="#3E749F"/>
<stop offset="1" stop-color="#1F3045" stop-opacity="0"/>
</linearGradient>
<linearGradient id="paint71_linear_366_209090" x1="301.566" y1="29.6418" x2="12.4672" y2="173.022" gradientUnits="userSpaceOnUse">
<stop stop-color="#3E749F"/>
<stop offset="1" stop-color="#1F3045" stop-opacity="0"/>
</linearGradient>
<linearGradient id="paint72_linear_366_209090" x1="301.566" y1="29.6418" x2="12.4672" y2="173.022" gradientUnits="userSpaceOnUse">
<stop stop-color="#3E749F"/>
<stop offset="1" stop-color="#1F3045" stop-opacity="0"/>
</linearGradient>
<linearGradient id="paint73_linear_366_209090" x1="301.566" y1="29.6418" x2="12.4672" y2="173.022" gradientUnits="userSpaceOnUse">
<stop stop-color="#3E749F"/>
<stop offset="1" stop-color="#1F3045" stop-opacity="0"/>
</linearGradient>
<linearGradient id="paint74_linear_366_209090" x1="301.566" y1="29.6418" x2="12.4672" y2="173.022" gradientUnits="userSpaceOnUse">
<stop stop-color="#3E749F"/>
<stop offset="1" stop-color="#1F3045" stop-opacity="0"/>
</linearGradient>
<linearGradient id="paint75_linear_366_209090" x1="301.566" y1="29.6418" x2="12.4672" y2="173.022" gradientUnits="userSpaceOnUse">
<stop stop-color="#3E749F"/>
<stop offset="1" stop-color="#1F3045" stop-opacity="0"/>
</linearGradient>
<linearGradient id="paint76_linear_366_209090" x1="301.566" y1="29.6418" x2="12.4672" y2="173.022" gradientUnits="userSpaceOnUse">
<stop stop-color="#3E749F"/>
<stop offset="1" stop-color="#1F3045" stop-opacity="0"/>
</linearGradient>
<linearGradient id="paint77_linear_366_209090" x1="301.566" y1="29.6418" x2="12.4672" y2="173.022" gradientUnits="userSpaceOnUse">
<stop stop-color="#3E749F"/>
<stop offset="1" stop-color="#1F3045" stop-opacity="0"/>
</linearGradient>
<linearGradient id="paint78_linear_366_209090" x1="301.566" y1="29.6418" x2="12.4672" y2="173.022" gradientUnits="userSpaceOnUse">
<stop stop-color="#3E749F"/>
<stop offset="1" stop-color="#1F3045" stop-opacity="0"/>
</linearGradient>
<linearGradient id="paint79_linear_366_209090" x1="301.566" y1="29.6418" x2="12.4672" y2="173.022" gradientUnits="userSpaceOnUse">
<stop stop-color="#3E749F"/>
<stop offset="1" stop-color="#1F3045" stop-opacity="0"/>
</linearGradient>
<linearGradient id="paint80_linear_366_209090" x1="301.566" y1="29.6418" x2="12.4672" y2="173.022" gradientUnits="userSpaceOnUse">
<stop stop-color="#3E749F"/>
<stop offset="1" stop-color="#1F3045" stop-opacity="0"/>
</linearGradient>
<linearGradient id="paint81_linear_366_209090" x1="301.566" y1="29.6418" x2="12.4672" y2="173.022" gradientUnits="userSpaceOnUse">
<stop stop-color="#3E749F"/>
<stop offset="1" stop-color="#1F3045" stop-opacity="0"/>
</linearGradient>
<linearGradient id="paint82_linear_366_209090" x1="301.566" y1="29.6418" x2="12.4672" y2="173.022" gradientUnits="userSpaceOnUse">
<stop stop-color="#3E749F"/>
<stop offset="1" stop-color="#1F3045" stop-opacity="0"/>
</linearGradient>
<linearGradient id="paint83_linear_366_209090" x1="301.566" y1="29.6418" x2="12.4672" y2="173.022" gradientUnits="userSpaceOnUse">
<stop stop-color="#3E749F"/>
<stop offset="1" stop-color="#1F3045" stop-opacity="0"/>
</linearGradient>
<linearGradient id="paint84_linear_366_209090" x1="301.566" y1="29.6418" x2="12.4672" y2="173.022" gradientUnits="userSpaceOnUse">
<stop stop-color="#3E749F"/>
<stop offset="1" stop-color="#1F3045" stop-opacity="0"/>
</linearGradient>
<linearGradient id="paint85_linear_366_209090" x1="301.566" y1="29.6418" x2="12.4672" y2="173.022" gradientUnits="userSpaceOnUse">
<stop stop-color="#3E749F"/>
<stop offset="1" stop-color="#1F3045" stop-opacity="0"/>
</linearGradient>
<linearGradient id="paint86_linear_366_209090" x1="301.566" y1="29.6418" x2="12.4672" y2="173.022" gradientUnits="userSpaceOnUse">
<stop stop-color="#3E749F"/>
<stop offset="1" stop-color="#1F3045" stop-opacity="0"/>
</linearGradient>
<linearGradient id="paint87_linear_366_209090" x1="301.566" y1="29.6418" x2="12.4672" y2="173.022" gradientUnits="userSpaceOnUse">
<stop stop-color="#3E749F"/>
<stop offset="1" stop-color="#1F3045" stop-opacity="0"/>
</linearGradient>
<linearGradient id="paint88_linear_366_209090" x1="301.566" y1="29.6418" x2="12.4672" y2="173.022" gradientUnits="userSpaceOnUse">
<stop stop-color="#3E749F"/>
<stop offset="1" stop-color="#1F3045" stop-opacity="0"/>
</linearGradient>
<linearGradient id="paint89_linear_366_209090" x1="301.566" y1="29.6418" x2="12.4672" y2="173.022" gradientUnits="userSpaceOnUse">
<stop stop-color="#3E749F"/>
<stop offset="1" stop-color="#1F3045" stop-opacity="0"/>
</linearGradient>
<linearGradient id="paint90_linear_366_209090" x1="301.566" y1="29.6418" x2="12.4672" y2="173.022" gradientUnits="userSpaceOnUse">
<stop stop-color="#3E749F"/>
<stop offset="1" stop-color="#1F3045" stop-opacity="0"/>
</linearGradient>
<linearGradient id="paint91_linear_366_209090" x1="301.566" y1="29.6418" x2="12.4672" y2="173.022" gradientUnits="userSpaceOnUse">
<stop stop-color="#3E749F"/>
<stop offset="1" stop-color="#1F3045" stop-opacity="0"/>
</linearGradient>
<linearGradient id="paint92_linear_366_209090" x1="301.566" y1="29.6418" x2="12.4672" y2="173.022" gradientUnits="userSpaceOnUse">
<stop stop-color="#3E749F"/>
<stop offset="1" stop-color="#1F3045" stop-opacity="0"/>
</linearGradient>
<linearGradient id="paint93_linear_366_209090" x1="301.566" y1="29.6418" x2="12.4672" y2="173.022" gradientUnits="userSpaceOnUse">
<stop stop-color="#3E749F"/>
<stop offset="1" stop-color="#1F3045" stop-opacity="0"/>
</linearGradient>
<linearGradient id="paint94_linear_366_209090" x1="301.566" y1="29.6418" x2="12.4672" y2="173.022" gradientUnits="userSpaceOnUse">
<stop stop-color="#3E749F"/>
<stop offset="1" stop-color="#1F3045" stop-opacity="0"/>
</linearGradient>
<linearGradient id="paint95_linear_366_209090" x1="301.566" y1="29.6418" x2="12.4672" y2="173.022" gradientUnits="userSpaceOnUse">
<stop stop-color="#3E749F"/>
<stop offset="1" stop-color="#1F3045" stop-opacity="0"/>
</linearGradient>
<linearGradient id="paint96_linear_366_209090" x1="301.566" y1="29.6418" x2="12.4672" y2="173.022" gradientUnits="userSpaceOnUse">
<stop stop-color="#3E749F"/>
<stop offset="1" stop-color="#1F3045" stop-opacity="0"/>
</linearGradient>
<linearGradient id="paint97_linear_366_209090" x1="301.566" y1="29.6418" x2="12.4672" y2="173.022" gradientUnits="userSpaceOnUse">
<stop stop-color="#3E749F"/>
<stop offset="1" stop-color="#1F3045" stop-opacity="0"/>
</linearGradient>
<linearGradient id="paint98_linear_366_209090" x1="301.566" y1="29.6418" x2="12.4672" y2="173.022" gradientUnits="userSpaceOnUse">
<stop stop-color="#3E749F"/>
<stop offset="1" stop-color="#1F3045" stop-opacity="0"/>
</linearGradient>
<linearGradient id="paint99_linear_366_209090" x1="301.566" y1="29.6418" x2="12.4672" y2="173.022" gradientUnits="userSpaceOnUse">
<stop stop-color="#3E749F"/>
<stop offset="1" stop-color="#1F3045" stop-opacity="0"/>
</linearGradient>
<linearGradient id="paint100_linear_366_209090" x1="301.566" y1="29.6418" x2="12.4672" y2="173.022" gradientUnits="userSpaceOnUse">
<stop stop-color="#3E749F"/>
<stop offset="1" stop-color="#1F3045" stop-opacity="0"/>
</linearGradient>
<linearGradient id="paint101_linear_366_209090" x1="301.566" y1="29.6418" x2="12.4672" y2="173.022" gradientUnits="userSpaceOnUse">
<stop stop-color="#3E749F"/>
<stop offset="1" stop-color="#1F3045" stop-opacity="0"/>
</linearGradient>
<linearGradient id="paint102_linear_366_209090" x1="301.566" y1="29.6418" x2="12.4672" y2="173.022" gradientUnits="userSpaceOnUse">
<stop stop-color="#3E749F"/>
<stop offset="1" stop-color="#1F3045" stop-opacity="0"/>
</linearGradient>
<linearGradient id="paint103_linear_366_209090" x1="301.566" y1="29.6418" x2="12.4672" y2="173.022" gradientUnits="userSpaceOnUse">
<stop stop-color="#3E749F"/>
<stop offset="1" stop-color="#1F3045" stop-opacity="0"/>
</linearGradient>
<linearGradient id="paint104_linear_366_209090" x1="301.566" y1="29.6418" x2="12.4672" y2="173.022" gradientUnits="userSpaceOnUse">
<stop stop-color="#3E749F"/>
<stop offset="1" stop-color="#1F3045" stop-opacity="0"/>
</linearGradient>
<linearGradient id="paint105_linear_366_209090" x1="301.566" y1="29.6418" x2="12.4672" y2="173.022" gradientUnits="userSpaceOnUse">
<stop stop-color="#3E749F"/>
<stop offset="1" stop-color="#1F3045" stop-opacity="0"/>
</linearGradient>
<linearGradient id="paint106_linear_366_209090" x1="301.566" y1="29.6418" x2="12.4672" y2="173.022" gradientUnits="userSpaceOnUse">
<stop stop-color="#3E749F"/>
<stop offset="1" stop-color="#1F3045" stop-opacity="0"/>
</linearGradient>
<linearGradient id="paint107_linear_366_209090" x1="301.566" y1="29.6418" x2="12.4672" y2="173.022" gradientUnits="userSpaceOnUse">
<stop stop-color="#3E749F"/>
<stop offset="1" stop-color="#1F3045" stop-opacity="0"/>
</linearGradient>
<linearGradient id="paint108_linear_366_209090" x1="301.566" y1="29.6418" x2="12.4672" y2="173.022" gradientUnits="userSpaceOnUse">
<stop stop-color="#3E749F"/>
<stop offset="1" stop-color="#1F3045" stop-opacity="0"/>
</linearGradient>
<linearGradient id="paint109_linear_366_209090" x1="301.566" y1="29.6418" x2="12.4672" y2="173.022" gradientUnits="userSpaceOnUse">
<stop stop-color="#3E749F"/>
<stop offset="1" stop-color="#1F3045" stop-opacity="0"/>
</linearGradient>
<linearGradient id="paint110_linear_366_209090" x1="301.566" y1="29.6418" x2="12.4672" y2="173.022" gradientUnits="userSpaceOnUse">
<stop stop-color="#3E749F"/>
<stop offset="1" stop-color="#1F3045" stop-opacity="0"/>
</linearGradient>
<linearGradient id="paint111_linear_366_209090" x1="301.566" y1="29.6418" x2="12.4672" y2="173.022" gradientUnits="userSpaceOnUse">
<stop stop-color="#3E749F"/>
<stop offset="1" stop-color="#1F3045" stop-opacity="0"/>
</linearGradient>
<linearGradient id="paint112_linear_366_209090" x1="301.566" y1="29.6418" x2="12.4672" y2="173.022" gradientUnits="userSpaceOnUse">
<stop stop-color="#3E749F"/>
<stop offset="1" stop-color="#1F3045" stop-opacity="0"/>
</linearGradient>
<linearGradient id="paint113_linear_366_209090" x1="301.566" y1="29.6418" x2="12.4672" y2="173.022" gradientUnits="userSpaceOnUse">
<stop stop-color="#3E749F"/>
<stop offset="1" stop-color="#1F3045" stop-opacity="0"/>
</linearGradient>
<linearGradient id="paint114_linear_366_209090" x1="301.566" y1="29.6418" x2="12.4672" y2="173.022" gradientUnits="userSpaceOnUse">
<stop stop-color="#3E749F"/>
<stop offset="1" stop-color="#1F3045" stop-opacity="0"/>
</linearGradient>
<linearGradient id="paint115_linear_366_209090" x1="301.566" y1="29.6418" x2="12.4672" y2="173.022" gradientUnits="userSpaceOnUse">
<stop stop-color="#3E749F"/>
<stop offset="1" stop-color="#1F3045" stop-opacity="0"/>
</linearGradient>
<linearGradient id="paint116_linear_366_209090" x1="301.566" y1="29.6418" x2="12.4672" y2="173.022" gradientUnits="userSpaceOnUse">
<stop stop-color="#3E749F"/>
<stop offset="1" stop-color="#1F3045" stop-opacity="0"/>
</linearGradient>
<linearGradient id="paint117_linear_366_209090" x1="301.566" y1="29.6418" x2="12.4672" y2="173.022" gradientUnits="userSpaceOnUse">
<stop stop-color="#3E749F"/>
<stop offset="1" stop-color="#1F3045" stop-opacity="0"/>
</linearGradient>
<linearGradient id="paint118_linear_366_209090" x1="301.566" y1="29.6418" x2="12.4672" y2="173.022" gradientUnits="userSpaceOnUse">
<stop stop-color="#3E749F"/>
<stop offset="1" stop-color="#1F3045" stop-opacity="0"/>
</linearGradient>
<linearGradient id="paint119_linear_366_209090" x1="301.566" y1="29.6418" x2="12.4672" y2="173.022" gradientUnits="userSpaceOnUse">
<stop stop-color="#3E749F"/>
<stop offset="1" stop-color="#1F3045" stop-opacity="0"/>
</linearGradient>
<linearGradient id="paint120_linear_366_209090" x1="301.566" y1="29.6418" x2="12.4672" y2="173.022" gradientUnits="userSpaceOnUse">
<stop stop-color="#3E749F"/>
<stop offset="1" stop-color="#1F3045" stop-opacity="0"/>
</linearGradient>
<linearGradient id="paint121_linear_366_209090" x1="301.566" y1="29.6418" x2="12.4672" y2="173.022" gradientUnits="userSpaceOnUse">
<stop stop-color="#3E749F"/>
<stop offset="1" stop-color="#1F3045" stop-opacity="0"/>
</linearGradient>
<linearGradient id="paint122_linear_366_209090" x1="301.566" y1="29.6418" x2="12.4672" y2="173.022" gradientUnits="userSpaceOnUse">
<stop stop-color="#3E749F"/>
<stop offset="1" stop-color="#1F3045" stop-opacity="0"/>
</linearGradient>
<linearGradient id="paint123_linear_366_209090" x1="301.566" y1="29.6418" x2="12.4672" y2="173.022" gradientUnits="userSpaceOnUse">
<stop stop-color="#3E749F"/>
<stop offset="1" stop-color="#1F3045" stop-opacity="0"/>
</linearGradient>
</defs>
</svg>
