<svg width="210" height="210" viewBox="0 0 210 210" fill="none" xmlns="http://www.w3.org/2000/svg">
<g clip-path="url(#clip0_77_1288)">
<mask id="mask0_77_1288" style="mask-type:alpha" maskUnits="userSpaceOnUse" x="0" y="0" width="210" height="210">
<path d="M210 0H0V210H210V0Z" fill="#D9D9D9"/>
</mask>
<g mask="url(#mask0_77_1288)">
<path fill-rule="evenodd" clip-rule="evenodd" d="M159.26 33.6765C158.529 32.8484 157.265 32.7696 156.437 33.5006C155.609 34.2316 155.53 35.4955 156.261 36.3236L164.966 46.1851C164.855 46.434 164.793 46.7098 164.793 47H165.685C164.793 47.0001 164.793 46.9999 164.793 47V76.5C164.793 86.5767 171.819 93 180.341 93H181.358V147C181.358 151.411 179.632 154.47 177.236 156.462C174.786 158.497 171.527 159.5 168.435 159.5C165.413 159.5 162.357 158.421 160.11 156.011C157.875 153.614 156.236 149.68 156.474 143.578C156.885 133.078 156.352 124.51 153.554 118.528C152.124 115.47 150.082 113.04 147.261 111.397C144.46 109.765 141.044 109 137 109C135.895 109 135 109.895 135 111C135 112.105 135.895 113 137 113C140.552 113 143.22 113.672 145.248 114.853C147.257 116.023 148.788 117.78 149.931 120.222C152.278 125.24 152.888 132.922 152.477 143.422C152.207 150.321 154.058 155.386 157.185 158.739C160.299 162.079 164.477 163.5 168.435 163.5C172.323 163.5 176.525 162.253 179.792 159.538C183.112 156.78 185.358 152.589 185.358 147V68.5C185.358 65.6414 184.02 62.9791 182.428 60.6285C181.193 58.8046 179.655 56.9647 178.197 55.2194C177.775 54.7145 177.36 54.2172 176.96 53.7308L176.938 53.7032L159.26 33.6765ZM181.358 89V68.5C181.358 66.8587 180.572 65.0209 179.116 62.8716C178.005 61.2312 176.648 59.6065 175.216 57.8916L175.215 57.8907C174.779 57.3688 174.337 56.8385 173.892 56.2969L168.793 50.5205V76.5C168.793 84.4234 174.083 89 180.341 89H181.358Z" fill="#59626A"/>
<path d="M168 49L183 64V90H173L168 77.5V49Z" fill="#59626A"/>
<path fill-rule="evenodd" clip-rule="evenodd" d="M54.3913 18H119.609C129.214 18 137 26.039 137 35.9558V177.358H37V35.9558C37 26.039 44.7863 18 54.3913 18Z" fill="#BDC0C3"/>
<rect x="55" y="45" width="65" height="46" rx="8" fill="white"/>
<rect x="24" y="177.357" width="126" height="15.6425" rx="7.82123" fill="#59626A"/>
</g>
</g>
<defs>
<clipPath id="clip0_77_1288">
<rect width="210" height="210" fill="white"/>
</clipPath>
</defs>
</svg>
