<svg width="588" height="337" viewBox="0 0 588 337" fill="none" xmlns="http://www.w3.org/2000/svg">
<rect width="588" height="337" fill="url(#paint0_linear_40_993)"/>
<path fill-rule="evenodd" clip-rule="evenodd" d="M371.507 248.135L369.15 249.612L378.836 254.11L370.821 260.034L373.487 261.64L381.553 255.372L390.172 259.375L392.529 257.897L383.625 253.762L390.921 248.092L388.316 247.103L380.973 252.53L371.507 248.135Z" fill="url(#paint1_linear_40_993)"/>
<path fill-rule="evenodd" clip-rule="evenodd" d="M325.481 323.19L323.124 324.667L332.809 329.165L324.794 335.089L327.461 336.695L335.526 330.427L344.146 334.43L346.503 332.952L337.598 328.817L344.894 323.147L342.289 322.158L334.946 327.586L325.481 323.19Z" fill="url(#paint2_linear_40_993)"/>
<path fill-rule="evenodd" clip-rule="evenodd" d="M464.481 285.162L462.123 286.64L471.809 291.137L463.794 297.062L466.46 298.667L474.526 292.399L483.145 296.402L485.503 294.924L476.598 290.789L483.894 285.12L481.289 284.131L473.946 289.558L464.481 285.162Z" fill="url(#paint3_linear_40_993)"/>
<path fill-rule="evenodd" clip-rule="evenodd" d="M104.481 307.178L102.124 308.656L111.809 313.153L103.794 319.077L106.461 320.683L114.526 314.415L123.146 318.418L125.503 316.941L116.598 312.805L123.894 307.135L121.289 306.146L113.946 311.574L104.481 307.178Z" fill="url(#paint4_linear_40_993)"/>
<mask id="path-6-inside-1_40_993" fill="white">
<path fill-rule="evenodd" clip-rule="evenodd" d="M427.473 165.701C427.511 161.972 428.533 158.32 430.435 155.114H399.263V188.736C395.519 185.383 390.576 183.345 385.157 183.345C373.472 183.345 364 192.824 364 204.518C364 216.211 373.472 225.691 385.157 225.691C390.576 225.691 395.519 223.652 399.263 220.299V253.922H483.893C487.633 253.922 491.221 252.434 493.866 249.787C496.512 247.14 497.998 243.55 497.998 239.806V155.114H466.826C468.727 158.32 469.749 161.972 469.788 165.701C469.788 171.316 467.558 176.701 463.591 180.672C459.623 184.643 454.241 186.874 448.63 186.874C443.019 186.874 437.637 184.643 433.669 180.672C429.702 176.701 427.473 171.316 427.473 165.701Z"/>
</mask>
<path fill-rule="evenodd" clip-rule="evenodd" d="M427.473 165.701C427.511 161.972 428.533 158.32 430.435 155.114H399.263V188.736C395.519 185.383 390.576 183.345 385.157 183.345C373.472 183.345 364 192.824 364 204.518C364 216.211 373.472 225.691 385.157 225.691C390.576 225.691 395.519 223.652 399.263 220.299V253.922H483.893C487.633 253.922 491.221 252.434 493.866 249.787C496.512 247.14 497.998 243.55 497.998 239.806V155.114H466.826C468.727 158.32 469.749 161.972 469.788 165.701C469.788 171.316 467.558 176.701 463.591 180.672C459.623 184.643 454.241 186.874 448.63 186.874C443.019 186.874 437.637 184.643 433.669 180.672C429.702 176.701 427.473 171.316 427.473 165.701Z" fill="#1E1E22"/>
<path d="M430.435 155.114V154.114H432.19L431.295 155.624L430.435 155.114ZM427.473 165.701H426.473L426.473 165.69L427.473 165.701ZM399.263 155.114H398.263V154.114H399.263V155.114ZM399.263 188.736H400.263V190.974L398.595 189.481L399.263 188.736ZM399.263 220.299L398.595 219.555L400.263 218.061V220.299H399.263ZM399.263 253.922V254.922H398.263V253.922H399.263ZM493.866 249.787L493.159 249.08L493.866 249.787ZM497.998 155.114V154.114H498.998V155.114H497.998ZM466.826 155.114L465.965 155.624L465.07 154.114H466.826V155.114ZM469.788 165.701L470.788 165.69V165.701H469.788ZM463.591 180.672L462.883 179.965L463.591 180.672ZM433.669 180.672L432.962 181.379L433.669 180.672ZM431.295 155.624C429.483 158.679 428.509 162.159 428.473 165.711L426.473 165.69C426.513 161.786 427.583 157.962 429.575 154.604L431.295 155.624ZM399.263 154.114H430.435V156.114H399.263V154.114ZM398.263 188.736V155.114H400.263V188.736H398.263ZM385.157 182.345C390.832 182.345 396.01 184.481 399.93 187.991L398.595 189.481C395.028 186.286 390.321 184.345 385.157 184.345V182.345ZM363 204.518C363 192.273 372.92 182.345 385.157 182.345V184.345C374.025 184.345 365 193.376 365 204.518H363ZM385.157 226.691C372.92 226.691 363 216.763 363 204.518H365C365 215.66 374.025 224.691 385.157 224.691V226.691ZM399.93 221.044C396.01 224.555 390.832 226.691 385.157 226.691V224.691C390.321 224.691 395.028 222.75 398.595 219.555L399.93 221.044ZM398.263 253.922V220.299H400.263V253.922H398.263ZM483.893 254.922H399.263V252.922H483.893V254.922ZM494.574 250.494C491.741 253.329 487.899 254.922 483.893 254.922V252.922C487.368 252.922 490.701 251.54 493.159 249.08L494.574 250.494ZM498.998 239.806C498.998 243.815 497.406 247.659 494.574 250.494L493.159 249.08C495.617 246.621 496.998 243.285 496.998 239.806H498.998ZM498.998 155.114V239.806H496.998V155.114H498.998ZM466.826 154.114H497.998V156.114H466.826V154.114ZM468.788 165.711C468.751 162.159 467.777 158.679 465.965 155.624L467.686 154.604C469.677 157.962 470.747 161.786 470.788 165.69L468.788 165.711ZM462.883 179.965C466.664 176.182 468.788 171.051 468.788 165.701H470.788C470.788 171.581 468.453 177.221 464.298 181.379L462.883 179.965ZM448.63 185.874C453.976 185.874 459.103 183.748 462.883 179.965L464.298 181.379C460.143 185.537 454.507 187.874 448.63 187.874V185.874ZM434.377 179.965C438.157 183.748 443.284 185.874 448.63 185.874V187.874C442.753 187.874 437.117 185.537 432.962 181.379L434.377 179.965ZM428.473 165.701C428.473 171.051 430.596 176.182 434.377 179.965L432.962 181.379C428.807 177.221 426.473 171.581 426.473 165.701H428.473Z" fill="url(#paint5_linear_40_993)" mask="url(#path-6-inside-1_40_993)"/>
<path d="M179.925 74.0009H178.727L179.569 73.1492C182.679 70.0066 184.594 65.6954 184.594 60.9412C184.594 51.3286 176.753 43.5316 167.073 43.5316C157.393 43.5316 149.552 51.3285 149.552 60.9411C149.552 65.696 151.467 70.0062 154.577 73.1491L155.42 74.0008H154.222H142.783C130.909 74.0008 121.283 83.6267 121.283 95.5008V106.415V107.619L120.43 106.769C117.258 103.607 112.869 101.653 108.021 101.653C98.3409 101.653 90.5 109.45 90.5 119.063C90.5 128.675 98.3407 136.472 108.021 136.472C112.869 136.472 117.258 134.518 120.43 131.357L121.283 130.507V131.711V168.624H154.174C150.542 165.264 148.268 160.471 148.268 155.147C148.268 144.977 156.562 136.738 166.788 136.738C177.014 136.738 185.309 144.976 185.309 155.147C185.309 160.471 183.035 165.264 179.402 168.624H216.5V128.036C213.145 131.389 208.496 133.469 203.364 133.469C193.138 133.469 184.844 125.23 184.844 115.059C184.844 104.889 193.138 96.6499 203.364 96.6499C208.496 96.6499 213.145 98.73 216.5 102.082V74.0009H179.925Z" fill="#1E1E22" stroke="url(#paint6_linear_40_993)"/>
<mask id="path-9-inside-2_40_993" fill="white">
<path fill-rule="evenodd" clip-rule="evenodd" d="M468.776 155.85H497.735V87.0419C497.735 70.4733 484.304 57.0419 467.735 57.0419H399V91.8466C402.871 87.5781 408.459 84.8976 414.672 84.8976C426.357 84.8976 435.83 94.3771 435.83 106.071C435.83 117.764 426.357 127.244 414.672 127.244C408.459 127.244 402.871 124.563 399 120.295V155.85H428.224C426.799 158.805 426 162.12 426 165.622C426 178.057 436.074 188.138 448.5 188.138C460.926 188.138 471 178.057 471 165.622C471 162.12 470.201 158.805 468.776 155.85Z"/>
</mask>
<path fill-rule="evenodd" clip-rule="evenodd" d="M468.776 155.85H497.735V87.0419C497.735 70.4733 484.304 57.0419 467.735 57.0419H399V91.8466C402.871 87.5781 408.459 84.8976 414.672 84.8976C426.357 84.8976 435.83 94.3771 435.83 106.071C435.83 117.764 426.357 127.244 414.672 127.244C408.459 127.244 402.871 124.563 399 120.295V155.85H428.224C426.799 158.805 426 162.12 426 165.622C426 178.057 436.074 188.138 448.5 188.138C460.926 188.138 471 178.057 471 165.622C471 162.12 470.201 158.805 468.776 155.85Z" fill="#1E1E22"/>
<path d="M497.735 155.85V156.85H498.735V155.85H497.735ZM468.776 155.85V154.85H467.184L467.875 156.284L468.776 155.85ZM399 57.0419V56.0419H398V57.0419H399ZM399 91.8466H398V94.438L399.741 92.5183L399 91.8466ZM399 120.295L399.741 119.623L398 117.703V120.295H399ZM399 155.85H398V156.85H399V155.85ZM428.224 155.85L429.125 156.284L429.816 154.85H428.224V155.85ZM497.735 154.85H468.776V156.85H497.735V154.85ZM496.735 87.0419V155.85H498.735V87.0419H496.735ZM467.735 58.0419C483.751 58.0419 496.735 71.0256 496.735 87.0419H498.735C498.735 69.9211 484.856 56.0419 467.735 56.0419V58.0419ZM399 58.0419H467.735V56.0419H399V58.0419ZM400 91.8466V57.0419H398V91.8466H400ZM414.672 83.8976C408.165 83.8976 402.311 86.7062 398.259 91.1748L399.741 92.5183C403.43 88.45 408.753 85.8976 414.672 85.8976V83.8976ZM436.83 106.071C436.83 93.8256 426.91 83.8976 414.672 83.8976V85.8976C425.804 85.8976 434.83 94.9287 434.83 106.071H436.83ZM414.672 128.244C426.91 128.244 436.83 118.316 436.83 106.071H434.83C434.83 117.213 425.804 126.244 414.672 126.244V128.244ZM398.259 120.967C402.311 125.435 408.165 128.244 414.672 128.244V126.244C408.753 126.244 403.43 123.691 399.741 119.623L398.259 120.967ZM400 155.85V120.295H398V155.85H400ZM428.224 154.85H399V156.85H428.224V154.85ZM427 165.622C427 162.274 427.763 159.107 429.125 156.284L427.323 155.415C425.834 158.504 425 161.967 425 165.622H427ZM448.5 187.138C436.627 187.138 427 177.506 427 165.622H425C425 178.609 435.521 189.138 448.5 189.138V187.138ZM470 165.622C470 177.506 460.373 187.138 448.5 187.138V189.138C461.479 189.138 472 178.609 472 165.622H470ZM467.875 156.284C469.237 159.107 470 162.274 470 165.622H472C472 161.967 471.166 158.504 469.677 155.415L467.875 156.284Z" fill="url(#paint7_linear_40_993)" mask="url(#path-9-inside-2_40_993)"/>
<mask id="path-11-inside-3_40_993" fill="white">
<path fill-rule="evenodd" clip-rule="evenodd" d="M194.959 233.437H166V302.244C166 318.813 179.431 332.244 196 332.244H264.735V297.44C260.864 301.708 255.276 304.389 249.063 304.389C237.378 304.389 227.905 294.909 227.905 283.216C227.905 271.522 237.378 262.043 249.063 262.043C255.276 262.043 260.864 264.723 264.735 268.992V233.437H235.511C236.936 230.481 237.735 227.166 237.735 223.664C237.735 211.229 227.661 201.148 215.235 201.148C202.808 201.148 192.735 211.229 192.735 223.664C192.735 227.166 193.534 230.481 194.959 233.437Z"/>
</mask>
<path fill-rule="evenodd" clip-rule="evenodd" d="M194.959 233.437H166V302.244C166 318.813 179.431 332.244 196 332.244H264.735V297.44C260.864 301.708 255.276 304.389 249.063 304.389C237.378 304.389 227.905 294.909 227.905 283.216C227.905 271.522 237.378 262.043 249.063 262.043C255.276 262.043 260.864 264.723 264.735 268.992V233.437H235.511C236.936 230.481 237.735 227.166 237.735 223.664C237.735 211.229 227.661 201.148 215.235 201.148C202.808 201.148 192.735 211.229 192.735 223.664C192.735 227.166 193.534 230.481 194.959 233.437Z" fill="#1E1E22"/>
<path d="M166 233.437V232.437H165V233.437H166ZM194.959 233.437V234.437H196.551L195.859 233.002L194.959 233.437ZM264.735 332.244V333.244H265.735V332.244H264.735ZM264.735 297.44H265.735V294.848L263.994 296.768L264.735 297.44ZM264.735 268.992L263.994 269.663L265.735 271.583V268.992H264.735ZM264.735 233.437H265.735V232.437H264.735V233.437ZM235.511 233.437L234.61 233.002L233.919 234.437H235.511V233.437ZM166 234.437H194.959V232.437H166V234.437ZM167 302.244V233.437H165V302.244H167ZM196 331.244C179.984 331.244 167 318.261 167 302.244H165C165 319.365 178.879 333.244 196 333.244V331.244ZM264.735 331.244H196V333.244H264.735V331.244ZM263.735 297.44V332.244H265.735V297.44H263.735ZM249.063 305.389C255.57 305.389 261.423 302.58 265.476 298.112L263.994 296.768C260.305 300.836 254.982 303.389 249.063 303.389V305.389ZM226.905 283.216C226.905 295.461 236.825 305.389 249.063 305.389V303.389C237.931 303.389 228.905 294.358 228.905 283.216H226.905ZM249.063 261.043C236.825 261.043 226.905 270.971 226.905 283.216H228.905C228.905 272.074 237.931 263.043 249.063 263.043V261.043ZM265.476 268.32C261.423 263.851 255.57 261.043 249.063 261.043V263.043C254.982 263.043 260.305 265.595 263.994 269.663L265.476 268.32ZM263.735 233.437V268.992H265.735V233.437H263.735ZM235.511 234.437H264.735V232.437H235.511V234.437ZM236.735 223.664C236.735 227.012 235.971 230.179 234.61 233.002L236.412 233.871C237.901 230.783 238.735 227.32 238.735 223.664H236.735ZM215.235 202.148C227.108 202.148 236.735 211.781 236.735 223.664H238.735C238.735 210.677 228.214 200.148 215.235 200.148V202.148ZM193.735 223.664C193.735 211.781 203.361 202.148 215.235 202.148V200.148C202.255 200.148 191.735 210.677 191.735 223.664H193.735ZM195.859 233.002C194.498 230.179 193.735 227.012 193.735 223.664H191.735C191.735 227.32 192.569 230.783 194.058 233.871L195.859 233.002Z" fill="url(#paint8_linear_40_993)" mask="url(#path-11-inside-3_40_993)"/>
<path d="M256.777 12.0343C255.41 13.4022 255.41 15.6199 256.777 16.9877C258.144 18.3556 275.752 35.0261 275.752 35.0261C275.752 35.0261 263.094 13.4022 261.727 12.0343C260.36 10.6665 258.144 10.6665 256.777 12.0343Z" fill="url(#paint9_linear_40_993)"/>
<path d="M240.62 33.324C239.976 35.1476 240.93 37.149 242.752 37.7943C244.575 38.4395 267.641 45.8938 267.641 45.8938C267.641 45.8938 246.91 31.8355 245.087 31.1903C243.265 30.5451 241.265 31.5003 240.62 33.324Z" fill="url(#paint10_linear_40_993)"/>
<path d="M282.769 1.01957C280.92 1.58265 279.877 3.53936 280.439 5.39002C281.002 7.24067 288.698 30.2429 288.698 30.2429C288.698 30.2429 287.699 5.20159 287.136 3.35093C286.574 1.50028 284.618 0.456491 282.769 1.01957Z" fill="url(#paint11_linear_40_993)"/>
<path d="M242.49 147.108L243.073 159.024L254.98 159.608L243.073 160.191L242.49 172.107L241.907 160.191L230 159.608L241.907 159.024L242.49 147.108Z" fill="white"/>
<g filter="url(#filter0_f_40_993)">
<ellipse cx="242.5" cy="159.617" rx="3.5" ry="3.50258" fill="white"/>
</g>
<ellipse cx="297.306" cy="170.76" rx="42.3385" ry="113.897" fill="#131313"/>
<ellipse cx="42.361" cy="114.496" rx="42.361" ry="114.496" transform="matrix(-0.526949 -0.849897 0.849549 -0.527509 216.811 267.968)" fill="#1E1E22"/>
<ellipse cx="42.3621" cy="115.273" rx="42.3621" ry="115.273" transform="matrix(-0.492398 0.87037 -0.87006 -0.492947 415.11 195.782)" fill="#1E1E22"/>
<ellipse cx="294.573" cy="172.126" rx="23.2179" ry="23.235" fill="url(#paint12_linear_40_993)"/>
<ellipse cx="306.865" cy="63.241" rx="8.19455" ry="8.20058" fill="url(#paint13_linear_40_993)"/>
<ellipse cx="384.258" cy="238.187" rx="8.19455" ry="8.20058" fill="url(#paint14_linear_40_993)"/>
<ellipse cx="195.784" cy="216.319" rx="8.19455" ry="8.20058" fill="url(#paint15_linear_40_993)"/>
<path fill-rule="evenodd" clip-rule="evenodd" d="M294.574 289.213C320.974 289.213 342.375 237.199 342.375 173.038C342.375 131.882 333.57 95.7251 320.288 75.087C331.937 95.3788 339.645 130.648 339.645 170.76C339.645 233.663 320.689 284.657 297.306 284.657C273.923 284.657 254.968 233.663 254.968 170.76C254.968 109.017 273.23 58.749 296.016 56.9145C295.537 56.88 295.056 56.8627 294.574 56.8627C268.174 56.8627 246.772 108.876 246.772 173.038C246.772 237.199 268.174 289.213 294.574 289.213Z" fill="url(#paint16_linear_40_993)"/>
<path fill-rule="evenodd" clip-rule="evenodd" d="M193.662 119.006C182.142 139.369 217.706 181.317 273.097 212.7C309.595 233.378 345.595 244.31 369.202 243.536C344.685 245.673 307.858 235.536 271.023 214.666C215.229 183.055 180.544 138.792 193.55 115.802C206.557 92.8109 262.33 99.7988 318.124 131.409C373.917 163.02 408.603 207.283 395.596 230.274C395.358 230.694 395.106 231.104 394.84 231.504C404.452 210.746 369.185 169.762 314.815 138.958C259.424 107.576 205.182 98.6425 193.662 119.006Z" fill="url(#paint17_linear_40_993)"/>
<path fill-rule="evenodd" clip-rule="evenodd" d="M389.03 111.17C376.702 91.2866 323.158 102.209 269.437 135.566C234.636 157.175 208.298 182.898 197.414 203.741C207.64 181.382 233.937 154.391 269.371 132.39C323.85 98.5618 379.298 89.3376 393.217 111.787C407.136 134.236 374.255 179.858 319.776 213.686C265.296 247.514 209.848 256.738 195.929 234.289C195.675 233.878 195.436 233.46 195.212 233.034C208.79 251.44 261.35 240.313 314.082 207.571C367.802 174.214 401.358 131.054 389.03 111.17Z" fill="url(#paint18_linear_40_993)"/>
<defs>
<filter id="filter0_f_40_993" x="229" y="146.115" width="27" height="27.0051" filterUnits="userSpaceOnUse" color-interpolation-filters="sRGB">
<feFlood flood-opacity="0" result="BackgroundImageFix"/>
<feBlend mode="normal" in="SourceGraphic" in2="BackgroundImageFix" result="shape"/>
<feGaussianBlur stdDeviation="5" result="effect1_foregroundBlur_40_993"/>
</filter>
<linearGradient id="paint0_linear_40_993" x1="303.8" y1="178.781" x2="580.085" y2="131.24" gradientUnits="userSpaceOnUse">
<stop stop-color="#323544"/>
<stop offset="1" stop-color="#354546"/>
</linearGradient>
<linearGradient id="paint1_linear_40_993" x1="370.677" y1="251.905" x2="394.112" y2="251.761" gradientUnits="userSpaceOnUse">
<stop stop-color="#7BDEB8"/>
<stop offset="0.526042" stop-color="#CCDDED"/>
<stop offset="0.994792" stop-color="#89A7DE"/>
</linearGradient>
<linearGradient id="paint2_linear_40_993" x1="324.651" y1="326.96" x2="348.086" y2="326.816" gradientUnits="userSpaceOnUse">
<stop stop-color="#7BDEB8"/>
<stop offset="0.526042" stop-color="#CCDDED"/>
<stop offset="0.994792" stop-color="#89A7DE"/>
</linearGradient>
<linearGradient id="paint3_linear_40_993" x1="463.651" y1="288.932" x2="487.086" y2="288.788" gradientUnits="userSpaceOnUse">
<stop stop-color="#7BDEB8"/>
<stop offset="0.526042" stop-color="#CCDDED"/>
<stop offset="0.994792" stop-color="#89A7DE"/>
</linearGradient>
<linearGradient id="paint4_linear_40_993" x1="103.651" y1="310.948" x2="127.086" y2="310.804" gradientUnits="userSpaceOnUse">
<stop stop-color="#7BDEB8"/>
<stop offset="0.526042" stop-color="#CCDDED"/>
<stop offset="0.994792" stop-color="#89A7DE"/>
</linearGradient>
<linearGradient id="paint5_linear_40_993" x1="490.285" y1="181.716" x2="350.569" y2="192.538" gradientUnits="userSpaceOnUse">
<stop stop-color="#7BDEB8"/>
<stop offset="0.526042" stop-color="#CCDDED"/>
<stop offset="0.994792" stop-color="#89A7DE"/>
</linearGradient>
<linearGradient id="paint6_linear_40_993" x1="209.691" y1="76.9797" x2="76.9155" y2="84.618" gradientUnits="userSpaceOnUse">
<stop stop-color="#7BDEB8"/>
<stop offset="0.526042" stop-color="#CCDDED"/>
<stop offset="0.994792" stop-color="#89A7DE"/>
</linearGradient>
<linearGradient id="paint7_linear_40_993" x1="404.683" y1="92.337" x2="508.058" y2="96.784" gradientUnits="userSpaceOnUse">
<stop stop-color="#7BDEB8"/>
<stop offset="0.526042" stop-color="#CCDDED"/>
<stop offset="0.994792" stop-color="#89A7DE"/>
</linearGradient>
<linearGradient id="paint8_linear_40_993" x1="259.052" y1="296.949" x2="155.677" y2="292.502" gradientUnits="userSpaceOnUse">
<stop stop-color="#7BDEB8"/>
<stop offset="0.526042" stop-color="#CCDDED"/>
<stop offset="0.994792" stop-color="#89A7DE"/>
</linearGradient>
<linearGradient id="paint9_linear_40_993" x1="277.687" y1="30.6735" x2="251.863" y2="14.9255" gradientUnits="userSpaceOnUse">
<stop stop-color="#7BDEB8"/>
<stop offset="0.526042" stop-color="#CCDDED"/>
<stop offset="0.994792" stop-color="#89A7DE"/>
</linearGradient>
<linearGradient id="paint10_linear_40_993" x1="267.514" y1="41.1316" x2="237.431" y2="38.0365" gradientUnits="userSpaceOnUse">
<stop stop-color="#7BDEB8"/>
<stop offset="0.526042" stop-color="#CCDDED"/>
<stop offset="0.994792" stop-color="#89A7DE"/>
</linearGradient>
<linearGradient id="paint11_linear_40_993" x1="292.452" y1="27.3139" x2="277.073" y2="1.2556" gradientUnits="userSpaceOnUse">
<stop stop-color="#7BDEB8"/>
<stop offset="0.526042" stop-color="#CCDDED"/>
<stop offset="0.994792" stop-color="#89A7DE"/>
</linearGradient>
<linearGradient id="paint12_linear_40_993" x1="274.028" y1="161.403" x2="322.577" y2="164.173" gradientUnits="userSpaceOnUse">
<stop stop-color="#7BDEB8"/>
<stop offset="0.526042" stop-color="#CCDDED"/>
<stop offset="0.994792" stop-color="#89A7DE"/>
</linearGradient>
<linearGradient id="paint13_linear_40_993" x1="299.614" y1="59.4561" x2="316.749" y2="60.4341" gradientUnits="userSpaceOnUse">
<stop stop-color="#7BDEB8"/>
<stop offset="0.526042" stop-color="#CCDDED"/>
<stop offset="0.994792" stop-color="#89A7DE"/>
</linearGradient>
<linearGradient id="paint14_linear_40_993" x1="377.007" y1="234.402" x2="394.142" y2="235.38" gradientUnits="userSpaceOnUse">
<stop stop-color="#7BDEB8"/>
<stop offset="0.526042" stop-color="#CCDDED"/>
<stop offset="0.994792" stop-color="#89A7DE"/>
</linearGradient>
<linearGradient id="paint15_linear_40_993" x1="188.533" y1="212.534" x2="205.668" y2="213.512" gradientUnits="userSpaceOnUse">
<stop stop-color="#7BDEB8"/>
<stop offset="0.526042" stop-color="#CCDDED"/>
<stop offset="0.994792" stop-color="#89A7DE"/>
</linearGradient>
<linearGradient id="paint16_linear_40_993" x1="252.275" y1="119.418" x2="352.501" y2="121.774" gradientUnits="userSpaceOnUse">
<stop stop-color="#7BDEB8"/>
<stop offset="0.526042" stop-color="#CCDDED"/>
<stop offset="0.994792" stop-color="#89A7DE"/>
</linearGradient>
<linearGradient id="paint17_linear_40_993" x1="362.039" y1="162.618" x2="310.553" y2="248.705" gradientUnits="userSpaceOnUse">
<stop stop-color="#7BDEB8"/>
<stop offset="0.526042" stop-color="#CCDDED"/>
<stop offset="0.994792" stop-color="#89A7DE"/>
</linearGradient>
<linearGradient id="paint18_linear_40_993" x1="271.347" y1="237.276" x2="220.452" y2="150.839" gradientUnits="userSpaceOnUse">
<stop stop-color="#7BDEB8"/>
<stop offset="0.526042" stop-color="#CCDDED"/>
<stop offset="0.994792" stop-color="#89A7DE"/>
</linearGradient>
</defs>
</svg>
