<svg width="588" height="337" viewBox="0 0 588 337" fill="none" xmlns="http://www.w3.org/2000/svg">
<rect width="588" height="337" fill="#FAFAFA"/>
<mask id="path-2-inside-1_6_1073" fill="white">
<path fill-rule="evenodd" clip-rule="evenodd" d="M371.507 248.135L369.15 249.612L378.836 254.11L370.821 260.034L373.487 261.64L381.553 255.372L390.172 259.375L392.529 257.897L383.625 253.762L390.921 248.092L388.316 247.103L380.973 252.53L371.507 248.135Z"/>
</mask>
<path fill-rule="evenodd" clip-rule="evenodd" d="M371.507 248.135L369.15 249.612L378.836 254.11L370.821 260.034L373.487 261.64L381.553 255.372L390.172 259.375L392.529 257.897L383.625 253.762L390.921 248.092L388.316 247.103L380.973 252.53L371.507 248.135Z" fill="url(#paint0_linear_6_1073)"/>
<path d="M369.15 249.612L369.097 249.527L368.941 249.625L369.108 249.703L369.15 249.612ZM371.507 248.135L371.549 248.044L371.5 248.021L371.454 248.05L371.507 248.135ZM378.836 254.11L378.895 254.191L379.031 254.09L378.878 254.019L378.836 254.11ZM370.821 260.034L370.761 259.954L370.641 260.042L370.769 260.12L370.821 260.034ZM373.487 261.64L373.436 261.725L373.494 261.761L373.549 261.719L373.487 261.64ZM381.553 255.372L381.595 255.281L381.539 255.256L381.491 255.293L381.553 255.372ZM390.172 259.375L390.13 259.465L390.179 259.488L390.225 259.459L390.172 259.375ZM392.529 257.897L392.583 257.982L392.739 257.884L392.571 257.806L392.529 257.897ZM383.625 253.762L383.563 253.683L383.434 253.783L383.583 253.852L383.625 253.762ZM390.921 248.092L390.982 248.171L391.122 248.062L390.956 247.999L390.921 248.092ZM388.316 247.103L388.351 247.009L388.3 246.99L388.256 247.023L388.316 247.103ZM380.973 252.53L380.931 252.621L380.985 252.646L381.032 252.611L380.973 252.53ZM369.203 249.697L371.561 248.219L371.454 248.05L369.097 249.527L369.203 249.697ZM378.878 254.019L369.192 249.522L369.108 249.703L378.794 254.201L378.878 254.019ZM378.776 254.03L370.761 259.954L370.88 260.114L378.895 254.191L378.776 254.03ZM370.769 260.12L373.436 261.725L373.539 261.554L370.872 259.948L370.769 260.12ZM373.549 261.719L381.614 255.451L381.491 255.293L373.426 261.561L373.549 261.719ZM390.214 259.284L381.595 255.281L381.511 255.463L390.13 259.465L390.214 259.284ZM392.476 257.812L390.119 259.29L390.225 259.459L392.583 257.982L392.476 257.812ZM383.583 253.852L392.487 257.988L392.571 257.806L383.667 253.671L383.583 253.852ZM383.686 253.841L390.982 248.171L390.859 248.013L383.563 253.683L383.686 253.841ZM390.956 247.999L388.351 247.009L388.281 247.196L390.885 248.185L390.956 247.999ZM388.256 247.023L380.913 252.45L381.032 252.611L388.375 247.183L388.256 247.023ZM371.465 248.225L380.931 252.621L381.015 252.44L371.549 248.044L371.465 248.225Z" fill="#5D4EA4" mask="url(#path-2-inside-1_6_1073)"/>
<mask id="path-4-inside-2_6_1073" fill="white">
<path fill-rule="evenodd" clip-rule="evenodd" d="M325.481 323.19L323.124 324.667L332.809 329.165L324.794 335.089L327.461 336.695L335.526 330.427L344.146 334.43L346.503 332.952L337.598 328.817L344.894 323.147L342.289 322.158L334.946 327.586L325.481 323.19Z"/>
</mask>
<path fill-rule="evenodd" clip-rule="evenodd" d="M325.481 323.19L323.124 324.667L332.809 329.165L324.794 335.089L327.461 336.695L335.526 330.427L344.146 334.43L346.503 332.952L337.598 328.817L344.894 323.147L342.289 322.158L334.946 327.586L325.481 323.19Z" fill="url(#paint1_linear_6_1073)"/>
<path d="M323.124 324.667L323.07 324.583L322.914 324.68L323.082 324.758L323.124 324.667ZM325.481 323.19L325.523 323.099L325.474 323.076L325.428 323.105L325.481 323.19ZM332.809 329.165L332.869 329.246L333.004 329.146L332.851 329.075L332.809 329.165ZM324.794 335.089L324.735 335.009L324.615 335.098L324.743 335.175L324.794 335.089ZM327.461 336.695L327.409 336.78L327.468 336.816L327.522 336.774L327.461 336.695ZM335.526 330.427L335.568 330.336L335.513 330.311L335.465 330.348L335.526 330.427ZM344.146 334.43L344.104 334.521L344.153 334.543L344.199 334.515L344.146 334.43ZM346.503 332.952L346.556 333.037L346.712 332.939L346.545 332.862L346.503 332.952ZM337.598 328.817L337.536 328.738L337.407 328.839L337.556 328.908L337.598 328.817ZM344.894 323.147L344.956 323.226L345.096 323.117L344.929 323.054L344.894 323.147ZM342.289 322.158L342.325 322.065L342.274 322.045L342.23 322.078L342.289 322.158ZM334.946 327.586L334.904 327.676L334.958 327.701L335.006 327.666L334.946 327.586ZM323.177 324.752L325.534 323.275L325.428 323.105L323.07 324.583L323.177 324.752ZM332.851 329.075L323.166 324.577L323.082 324.758L332.767 329.256L332.851 329.075ZM332.749 329.085L324.735 335.009L324.854 335.17L332.869 329.246L332.749 329.085ZM324.743 335.175L327.409 336.78L327.512 336.609L324.846 335.003L324.743 335.175ZM327.522 336.774L335.588 330.506L335.465 330.348L327.399 336.616L327.522 336.774ZM344.188 334.339L335.568 330.336L335.484 330.518L344.104 334.521L344.188 334.339ZM346.45 332.868L344.092 334.345L344.199 334.515L346.556 333.037L346.45 332.868ZM337.556 328.908L346.461 333.043L346.545 332.862L337.64 328.726L337.556 328.908ZM337.659 328.896L344.956 323.226L344.833 323.068L337.536 328.738L337.659 328.896ZM344.929 323.054L342.325 322.065L342.254 322.252L344.859 323.241L344.929 323.054ZM342.23 322.078L334.887 327.505L335.006 327.666L342.349 322.238L342.23 322.078ZM325.439 323.281L334.904 327.676L334.988 327.495L325.523 323.099L325.439 323.281Z" fill="#5D4EA4" mask="url(#path-4-inside-2_6_1073)"/>
<mask id="path-6-inside-3_6_1073" fill="white">
<path fill-rule="evenodd" clip-rule="evenodd" d="M464.481 285.162L462.123 286.64L471.809 291.137L463.794 297.062L466.46 298.667L474.526 292.399L483.145 296.402L485.503 294.924L476.598 290.789L483.894 285.12L481.289 284.131L473.946 289.558L464.481 285.162Z"/>
</mask>
<path fill-rule="evenodd" clip-rule="evenodd" d="M464.481 285.162L462.123 286.64L471.809 291.137L463.794 297.062L466.46 298.667L474.526 292.399L483.145 296.402L485.503 294.924L476.598 290.789L483.894 285.12L481.289 284.131L473.946 289.558L464.481 285.162Z" fill="url(#paint2_linear_6_1073)"/>
<path d="M462.123 286.64L462.07 286.555L461.914 286.653L462.081 286.73L462.123 286.64ZM464.481 285.162L464.523 285.071L464.473 285.048L464.428 285.077L464.481 285.162ZM471.809 291.137L471.869 291.218L472.004 291.118L471.851 291.047L471.809 291.137ZM463.794 297.062L463.734 296.981L463.614 297.07L463.742 297.147L463.794 297.062ZM466.46 298.667L466.409 298.753L466.468 298.788L466.522 298.746L466.46 298.667ZM474.526 292.399L474.568 292.309L474.513 292.283L474.465 292.32L474.526 292.399ZM483.145 296.402L483.103 296.493L483.153 296.515L483.199 296.487L483.145 296.402ZM485.503 294.924L485.556 295.009L485.712 294.911L485.545 294.834L485.503 294.924ZM476.598 290.789L476.537 290.71L476.407 290.811L476.556 290.88L476.598 290.789ZM483.894 285.12L483.955 285.199L484.096 285.089L483.929 285.026L483.894 285.12ZM481.289 284.131L481.324 284.037L481.273 284.018L481.23 284.05L481.289 284.131ZM473.946 289.558L473.904 289.648L473.958 289.673L474.006 289.638L473.946 289.558ZM462.177 286.724L464.534 285.247L464.428 285.077L462.07 286.555L462.177 286.724ZM471.851 291.047L462.165 286.549L462.081 286.73L471.767 291.228L471.851 291.047ZM471.75 291.057L463.734 296.981L463.853 297.142L471.869 291.218L471.75 291.057ZM463.742 297.147L466.409 298.753L466.512 298.582L463.845 296.976L463.742 297.147ZM466.522 298.746L474.588 292.478L474.465 292.32L466.399 298.588L466.522 298.746ZM483.187 296.311L474.568 292.309L474.484 292.49L483.103 296.493L483.187 296.311ZM485.45 294.84L483.092 296.317L483.199 296.487L485.556 295.009L485.45 294.84ZM476.556 290.88L485.461 295.015L485.545 294.834L476.64 290.699L476.556 290.88ZM476.659 290.868L483.955 285.199L483.832 285.041L476.537 290.71L476.659 290.868ZM483.929 285.026L481.324 284.037L481.254 284.224L483.858 285.213L483.929 285.026ZM481.23 284.05L473.887 289.477L474.006 289.638L481.349 284.211L481.23 284.05ZM464.439 285.253L473.904 289.648L473.988 289.467L464.523 285.071L464.439 285.253Z" fill="#5D4EA4" mask="url(#path-6-inside-3_6_1073)"/>
<mask id="path-8-inside-4_6_1073" fill="white">
<path fill-rule="evenodd" clip-rule="evenodd" d="M104.481 307.178L102.124 308.656L111.809 313.153L103.794 319.077L106.461 320.683L114.526 314.415L123.146 318.418L125.503 316.941L116.598 312.805L123.894 307.135L121.289 306.146L113.946 311.574L104.481 307.178Z"/>
</mask>
<path fill-rule="evenodd" clip-rule="evenodd" d="M104.481 307.178L102.124 308.656L111.809 313.153L103.794 319.077L106.461 320.683L114.526 314.415L123.146 318.418L125.503 316.941L116.598 312.805L123.894 307.135L121.289 306.146L113.946 311.574L104.481 307.178Z" fill="url(#paint3_linear_6_1073)"/>
<path d="M102.124 308.656L102.07 308.571L101.914 308.669L102.082 308.746L102.124 308.656ZM104.481 307.178L104.523 307.087L104.474 307.065L104.428 307.093L104.481 307.178ZM111.809 313.153L111.868 313.234L112.004 313.134L111.851 313.063L111.809 313.153ZM103.794 319.077L103.735 318.997L103.614 319.086L103.743 319.163L103.794 319.077ZM106.461 320.683L106.409 320.769L106.468 320.804L106.522 320.762L106.461 320.683ZM114.526 314.415L114.568 314.325L114.513 314.299L114.465 314.336L114.526 314.415ZM123.146 318.418L123.104 318.509L123.153 318.532L123.199 318.503L123.146 318.418ZM125.503 316.941L125.556 317.025L125.712 316.928L125.545 316.85L125.503 316.941ZM116.598 312.805L116.536 312.726L116.407 312.827L116.556 312.896L116.598 312.805ZM123.894 307.135L123.955 307.214L124.096 307.105L123.929 307.042L123.894 307.135ZM121.289 306.146L121.325 306.053L121.274 306.033L121.23 306.066L121.289 306.146ZM113.946 311.574L113.904 311.664L113.958 311.689L114.006 311.654L113.946 311.574ZM102.177 308.74L104.534 307.263L104.428 307.093L102.07 308.571L102.177 308.74ZM111.851 313.063L102.166 308.565L102.082 308.746L111.767 313.244L111.851 313.063ZM111.749 313.073L103.735 318.997L103.854 319.158L111.868 313.234L111.749 313.073ZM103.743 319.163L106.409 320.769L106.512 320.597L103.846 318.992L103.743 319.163ZM106.522 320.762L114.587 314.494L114.465 314.336L106.399 320.604L106.522 320.762ZM123.188 318.327L114.568 314.325L114.484 314.506L123.104 318.509L123.188 318.327ZM125.45 316.856L123.092 318.333L123.199 318.503L125.556 317.025L125.45 316.856ZM116.556 312.896L125.461 317.031L125.545 316.85L116.64 312.714L116.556 312.896ZM116.659 312.884L123.955 307.214L123.832 307.056L116.536 312.726L116.659 312.884ZM123.929 307.042L121.325 306.053L121.254 306.24L123.859 307.229L123.929 307.042ZM121.23 306.066L113.887 311.493L114.006 311.654L121.349 306.227L121.23 306.066ZM104.439 307.269L113.904 311.664L113.988 311.483L104.523 307.087L104.439 307.269Z" fill="#5D4EA4" mask="url(#path-8-inside-4_6_1073)"/>
<mask id="path-10-inside-5_6_1073" fill="white">
<path fill-rule="evenodd" clip-rule="evenodd" d="M427.473 165.701C427.511 161.972 428.533 158.32 430.435 155.114H399.263V188.736C395.519 185.383 390.576 183.345 385.157 183.345C373.472 183.345 364 192.824 364 204.518C364 216.211 373.472 225.691 385.157 225.691C390.576 225.691 395.519 223.652 399.263 220.299V253.922H483.893C487.633 253.922 491.221 252.434 493.866 249.787C496.512 247.14 497.998 243.55 497.998 239.806V155.114H466.826C468.727 158.32 469.749 161.972 469.788 165.701C469.788 171.316 467.558 176.701 463.591 180.672C459.623 184.643 454.241 186.874 448.63 186.874C443.019 186.874 437.637 184.643 433.669 180.672C429.702 176.701 427.473 171.316 427.473 165.701Z"/>
</mask>
<path fill-rule="evenodd" clip-rule="evenodd" d="M427.473 165.701C427.511 161.972 428.533 158.32 430.435 155.114H399.263V188.736C395.519 185.383 390.576 183.345 385.157 183.345C373.472 183.345 364 192.824 364 204.518C364 216.211 373.472 225.691 385.157 225.691C390.576 225.691 395.519 223.652 399.263 220.299V253.922H483.893C487.633 253.922 491.221 252.434 493.866 249.787C496.512 247.14 497.998 243.55 497.998 239.806V155.114H466.826C468.727 158.32 469.749 161.972 469.788 165.701C469.788 171.316 467.558 176.701 463.591 180.672C459.623 184.643 454.241 186.874 448.63 186.874C443.019 186.874 437.637 184.643 433.669 180.672C429.702 176.701 427.473 171.316 427.473 165.701Z" fill="#F7F7FF"/>
<path d="M430.435 155.114V154.614H431.312L430.865 155.369L430.435 155.114ZM427.473 165.701H426.973L426.973 165.695L427.473 165.701ZM399.263 155.114H398.763V154.614H399.263V155.114ZM399.263 188.736H399.763V189.855L398.929 189.109L399.263 188.736ZM399.263 220.299L398.929 219.927L399.763 219.18V220.299H399.263ZM399.263 253.922V254.422H398.763V253.922H399.263ZM493.866 249.787L493.513 249.434L493.866 249.787ZM497.998 155.114V154.614H498.498V155.114H497.998ZM466.826 155.114L466.395 155.369L465.948 154.614H466.826V155.114ZM469.788 165.701L470.288 165.695V165.701H469.788ZM463.591 180.672L463.237 180.319L463.591 180.672ZM433.669 180.672L433.316 181.026L433.669 180.672ZM430.865 155.369C429.008 158.5 428.01 162.065 427.973 165.706L426.973 165.695C427.012 161.879 428.058 158.141 430.005 154.859L430.865 155.369ZM399.263 154.614H430.435V155.614H399.263V154.614ZM398.763 188.736V155.114H399.763V188.736H398.763ZM385.157 182.845C390.704 182.845 395.765 184.932 399.596 188.364L398.929 189.109C395.274 185.835 390.448 183.845 385.157 183.845V182.845ZM363.5 204.518C363.5 192.549 373.196 182.845 385.157 182.845V183.845C373.749 183.845 364.5 193.1 364.5 204.518H363.5ZM385.157 226.191C373.196 226.191 363.5 216.487 363.5 204.518H364.5C364.5 215.936 373.749 225.191 385.157 225.191V226.191ZM399.596 220.672C395.765 224.104 390.704 226.191 385.157 226.191V225.191C390.448 225.191 395.274 223.201 398.929 219.927L399.596 220.672ZM398.763 253.922V220.299H399.763V253.922H398.763ZM483.893 254.422H399.263V253.422H483.893V254.422ZM494.22 250.141C491.481 252.882 487.766 254.422 483.893 254.422V253.422C487.501 253.422 490.961 251.987 493.513 249.434L494.22 250.141ZM498.498 239.806C498.498 243.682 496.959 247.4 494.22 250.141L493.513 249.434C496.064 246.881 497.498 243.417 497.498 239.806H498.498ZM498.498 155.114V239.806H497.498V155.114H498.498ZM466.826 154.614H497.998V155.614H466.826V154.614ZM469.288 165.706C469.25 162.065 468.252 158.5 466.395 155.369L467.256 154.859C469.202 158.141 470.248 161.879 470.288 165.695L469.288 165.706ZM463.237 180.319C467.111 176.442 469.288 171.184 469.288 165.701H470.288C470.288 171.448 468.006 176.961 463.944 181.026L463.237 180.319ZM448.63 186.374C454.109 186.374 459.363 184.196 463.237 180.319L463.944 181.026C459.883 185.09 454.374 187.374 448.63 187.374V186.374ZM434.023 180.319C437.897 184.196 443.151 186.374 448.63 186.374V187.374C442.886 187.374 437.377 185.09 433.316 181.026L434.023 180.319ZM427.973 165.701C427.973 171.184 430.149 176.442 434.023 180.319L433.316 181.026C429.254 176.961 426.973 171.448 426.973 165.701H427.973Z" fill="#5D4EA4" mask="url(#path-10-inside-5_6_1073)"/>
<path d="M120.533 169.124V132.3C117.264 135.353 112.861 137.222 108.021 137.222C97.9309 137.222 89.75 129.094 89.75 119.063C89.75 109.031 97.9311 100.903 108.021 100.903C112.861 100.903 117.264 102.772 120.533 105.826V95.5008C120.533 83.2124 130.495 73.2508 142.783 73.2508H153.636C150.634 70.0149 148.802 65.6902 148.802 60.9411C148.802 50.9099 156.984 42.7816 167.073 42.7816C177.163 42.7816 185.344 50.91 185.344 60.9412C185.344 65.6896 183.512 70.0151 180.51 73.2509H217H217.25V73.5009V103.35V104.018L216.811 103.514C213.552 99.7725 208.734 97.3999 203.364 97.3999C193.548 97.3999 185.594 105.307 185.594 115.059C185.594 124.811 193.548 132.719 203.364 132.719C208.734 132.719 213.552 130.346 216.811 126.604L217.25 126.101V126.769V169.124V169.374H217H178.053H177.338L177.897 168.929C181.959 165.692 184.559 160.723 184.559 155.147C184.559 145.395 176.605 137.488 166.788 137.488C156.972 137.488 149.018 145.395 149.018 155.147C149.018 160.722 151.617 165.691 155.679 168.929L156.238 169.374H155.523H120.783H120.533V169.124Z" fill="#F7F7FF" stroke="#5D4EA4" stroke-width="0.5"/>
<mask id="path-13-inside-6_6_1073" fill="white">
<path fill-rule="evenodd" clip-rule="evenodd" d="M468.776 155.85H497.735V87.0419C497.735 70.4734 484.304 57.0419 467.735 57.0419H399V91.8466C402.871 87.5782 408.459 84.8977 414.672 84.8977C426.357 84.8977 435.83 94.3772 435.83 106.071C435.83 117.764 426.357 127.244 414.672 127.244C408.459 127.244 402.871 124.563 399 120.295V155.85H428.224C426.799 158.805 426 162.12 426 165.622C426 178.057 436.074 188.138 448.5 188.138C460.926 188.138 471 178.057 471 165.622C471 162.12 470.201 158.805 468.776 155.85Z"/>
</mask>
<path fill-rule="evenodd" clip-rule="evenodd" d="M468.776 155.85H497.735V87.0419C497.735 70.4734 484.304 57.0419 467.735 57.0419H399V91.8466C402.871 87.5782 408.459 84.8977 414.672 84.8977C426.357 84.8977 435.83 94.3772 435.83 106.071C435.83 117.764 426.357 127.244 414.672 127.244C408.459 127.244 402.871 124.563 399 120.295V155.85H428.224C426.799 158.805 426 162.12 426 165.622C426 178.057 436.074 188.138 448.5 188.138C460.926 188.138 471 178.057 471 165.622C471 162.12 470.201 158.805 468.776 155.85Z" fill="#F7F7FF"/>
<path d="M497.735 155.85V156.35H498.235V155.85H497.735ZM468.776 155.85V155.35H467.98L468.326 156.067L468.776 155.85ZM399 57.0419V56.5419H398.5V57.0419H399ZM399 91.8466H398.5V93.1423L399.37 92.1825L399 91.8466ZM399 120.295L399.37 119.959L398.5 118.999V120.295H399ZM399 155.85H398.5V156.35H399V155.85ZM428.224 155.85L428.674 156.067L429.02 155.35H428.224V155.85ZM497.735 155.35H468.776V156.35H497.735V155.35ZM497.235 87.0419V155.85H498.235V87.0419H497.235ZM467.735 57.5419C484.027 57.5419 497.235 70.7495 497.235 87.0419H498.235C498.235 70.1972 484.58 56.5419 467.735 56.5419V57.5419ZM399 57.5419H467.735V56.5419H399V57.5419ZM399.5 91.8466V57.0419H398.5V91.8466H399.5ZM414.672 84.3977C408.312 84.3977 402.591 87.1422 398.63 91.5108L399.37 92.1825C403.15 88.0141 408.606 85.3977 414.672 85.3977V84.3977ZM436.33 106.071C436.33 94.1014 426.634 84.3977 414.672 84.3977V85.3977C426.081 85.3977 435.33 94.653 435.33 106.071H436.33ZM414.672 127.744C426.634 127.744 436.33 118.04 436.33 106.071H435.33C435.33 117.489 426.081 126.744 414.672 126.744V127.744ZM398.63 120.631C402.591 124.999 408.312 127.744 414.672 127.744V126.744C408.606 126.744 403.15 124.127 399.37 119.959L398.63 120.631ZM399.5 155.85V120.295H398.5V155.85H399.5ZM428.224 155.35H399V156.35H428.224V155.35ZM426.5 165.622C426.5 162.197 427.281 158.956 428.674 156.067L427.773 155.632C426.316 158.654 425.5 162.043 425.5 165.622H426.5ZM448.5 187.638C436.35 187.638 426.5 177.782 426.5 165.622H425.5C425.5 178.333 435.797 188.638 448.5 188.638V187.638ZM470.5 165.622C470.5 177.782 460.65 187.638 448.5 187.638V188.638C461.203 188.638 471.5 178.333 471.5 165.622H470.5ZM468.326 156.067C469.719 158.956 470.5 162.197 470.5 165.622H471.5C471.5 162.043 470.684 158.654 469.227 155.632L468.326 156.067Z" fill="#5D4EA4" mask="url(#path-13-inside-6_6_1073)"/>
<mask id="path-15-inside-7_6_1073" fill="white">
<path fill-rule="evenodd" clip-rule="evenodd" d="M194.959 233.437H166V302.244C166 318.813 179.431 332.244 196 332.244H264.735V297.44C260.864 301.708 255.276 304.389 249.063 304.389C237.378 304.389 227.905 294.909 227.905 283.216C227.905 271.522 237.378 262.043 249.063 262.043C255.276 262.043 260.864 264.723 264.735 268.991V233.437H235.511C236.936 230.481 237.735 227.166 237.735 223.664C237.735 211.229 227.661 201.148 215.235 201.148C202.808 201.148 192.735 211.229 192.735 223.664C192.735 227.166 193.534 230.481 194.959 233.437Z"/>
</mask>
<path fill-rule="evenodd" clip-rule="evenodd" d="M194.959 233.437H166V302.244C166 318.813 179.431 332.244 196 332.244H264.735V297.44C260.864 301.708 255.276 304.389 249.063 304.389C237.378 304.389 227.905 294.909 227.905 283.216C227.905 271.522 237.378 262.043 249.063 262.043C255.276 262.043 260.864 264.723 264.735 268.991V233.437H235.511C236.936 230.481 237.735 227.166 237.735 223.664C237.735 211.229 227.661 201.148 215.235 201.148C202.808 201.148 192.735 211.229 192.735 223.664C192.735 227.166 193.534 230.481 194.959 233.437Z" fill="#F7F7FF"/>
<path d="M166 233.437V232.937H165.5V233.437H166ZM194.959 233.437V233.937H195.755L195.409 233.219L194.959 233.437ZM264.735 332.244V332.744H265.235V332.244H264.735ZM264.735 297.44H265.235V296.144L264.364 297.104L264.735 297.44ZM264.735 268.991L264.364 269.327L265.235 270.287V268.991H264.735ZM264.735 233.437H265.235V232.937H264.735V233.437ZM235.511 233.437L235.061 233.219L234.715 233.937H235.511V233.437ZM166 233.937H194.959V232.937H166V233.937ZM166.5 302.244V233.437H165.5V302.244H166.5ZM196 331.744C179.707 331.744 166.5 318.537 166.5 302.244H165.5C165.5 319.089 179.155 332.744 196 332.744V331.744ZM264.735 331.744H196V332.744H264.735V331.744ZM264.235 297.44V332.244H265.235V297.44H264.235ZM249.063 304.889C255.423 304.889 261.144 302.144 265.105 297.776L264.364 297.104C260.584 301.272 255.129 303.889 249.063 303.889V304.889ZM227.405 283.216C227.405 295.185 237.101 304.889 249.063 304.889V303.889C237.654 303.889 228.405 294.633 228.405 283.216H227.405ZM249.063 261.543C237.101 261.543 227.405 271.246 227.405 283.216H228.405C228.405 271.798 237.654 262.543 249.063 262.543V261.543ZM265.105 268.656C261.144 264.287 255.423 261.543 249.063 261.543V262.543C255.129 262.543 260.584 265.159 264.364 269.327L265.105 268.656ZM264.235 233.437V268.991H265.235V233.437H264.235ZM235.511 233.937H264.735V232.937H235.511V233.937ZM237.235 223.664C237.235 227.089 236.454 230.33 235.061 233.219L235.962 233.654C237.419 230.632 238.235 227.243 238.235 223.664H237.235ZM215.235 201.648C227.385 201.648 237.235 211.505 237.235 223.664H238.235C238.235 210.953 227.938 200.648 215.235 200.648V201.648ZM193.235 223.664C193.235 211.505 203.085 201.648 215.235 201.648V200.648C202.532 200.648 192.235 210.953 192.235 223.664H193.235ZM195.409 233.219C194.016 230.33 193.235 227.089 193.235 223.664H192.235C192.235 227.243 193.051 230.632 194.508 233.654L195.409 233.219Z" fill="#5D4EA4" mask="url(#path-15-inside-7_6_1073)"/>
<path d="M257.13 12.388C255.959 13.5605 255.959 15.4615 257.13 16.634C257.808 17.3117 262.543 21.8138 267.121 26.1569C269.407 28.3261 271.651 30.4526 273.323 32.0368C273.393 32.1033 273.462 32.1688 273.53 32.2333C273.463 32.1181 273.393 32.0004 273.322 31.8802C272.115 29.8321 270.49 27.0873 268.823 24.3C267.156 21.5123 265.447 18.6839 264.07 16.468C263.382 15.3596 262.778 14.4073 262.305 13.6908C262.068 13.3323 261.866 13.0359 261.704 12.81C261.535 12.5751 261.427 12.4413 261.373 12.388C260.202 11.2155 258.302 11.2155 257.13 12.388Z" fill="url(#paint4_linear_6_1073)" stroke="url(#paint5_linear_6_1073)"/>
<path d="M241.092 33.4909C240.539 35.0544 241.357 36.7699 242.919 37.3229C243.822 37.6425 250.034 39.6641 256.034 41.6103C259.031 42.5824 261.971 43.5343 264.162 44.2432C264.254 44.2731 264.345 44.3025 264.435 44.3315C264.324 44.2566 264.21 44.18 264.094 44.1019C262.123 42.7742 259.475 40.9974 256.771 39.2005C254.066 37.4034 251.307 35.5875 249.111 34.1811C248.012 33.4776 247.057 32.8784 246.322 32.4358C245.954 32.2143 245.644 32.034 245.4 31.9C245.147 31.7608 244.992 31.6868 244.921 31.6617C243.359 31.1087 241.644 31.9273 241.092 33.4909Z" fill="url(#paint6_linear_6_1073)" stroke="url(#paint7_linear_6_1073)"/>
<path d="M282.915 1.49795C281.33 1.98051 280.435 3.65765 280.918 5.24438C281.197 6.1613 283.258 12.3641 285.254 18.3521C286.251 21.3429 287.23 24.2759 287.961 26.4612C287.991 26.5526 288.021 26.6427 288.051 26.7314C288.045 26.5981 288.039 26.4619 288.033 26.323C287.931 23.947 287.789 20.7601 287.629 17.5157C287.469 14.2707 287.291 10.9704 287.119 8.36677C287.033 7.06455 286.948 5.93989 286.867 5.08484C286.827 4.65704 286.788 4.30042 286.751 4.02455C286.713 3.73781 286.68 3.56876 286.658 3.49657C286.176 1.90984 284.499 1.01539 282.915 1.49795Z" fill="url(#paint8_linear_6_1073)" stroke="url(#paint9_linear_6_1073)"/>
<path d="M242.574 159.049L242.596 159.501L243.049 159.524L244.762 159.608L243.049 159.691L242.596 159.714L242.574 160.166L242.49 161.873L242.407 160.166L242.385 159.714L241.932 159.691L240.218 159.608L241.932 159.524L242.385 159.501L242.407 159.049L242.49 157.342L242.574 159.049Z" fill="white" stroke="url(#paint10_linear_6_1073)"/>
<g filter="url(#filter0_f_6_1073)">
<ellipse cx="242.5" cy="159.617" rx="3.5" ry="3.50258" fill="white"/>
<path d="M245.5 159.617C245.5 161.276 244.157 162.62 242.5 162.62C240.843 162.62 239.5 161.276 239.5 159.617C239.5 157.959 240.843 156.615 242.5 156.615C244.157 156.615 245.5 157.959 245.5 159.617Z" stroke="url(#paint11_linear_6_1073)"/>
</g>
<path d="M339.145 170.76C339.145 202.168 334.411 230.58 326.775 251.123C322.956 261.396 318.421 269.675 313.411 275.376C308.399 281.078 302.956 284.157 297.306 284.157C291.656 284.157 286.213 281.078 281.202 275.376C276.191 269.675 271.656 261.396 267.837 251.123C260.201 230.58 255.468 202.168 255.468 170.76C255.468 139.352 260.201 110.939 267.837 90.3965C271.656 80.1234 276.191 71.8447 281.202 66.1433C286.213 60.4411 291.656 57.3627 297.306 57.3627C302.956 57.3627 308.399 60.4411 313.411 66.1433C318.421 71.8447 322.956 80.1234 326.775 90.3965C334.411 110.939 339.145 139.352 339.145 170.76Z" fill="#FAFAFA" stroke="url(#paint12_linear_6_1073)"/>
<path d="M269.701 135.99C296.524 119.335 323.285 108.293 344.855 103.893C355.643 101.692 365.104 101.159 372.616 102.396C380.128 103.634 385.627 106.63 388.605 111.434C391.583 116.237 391.824 122.498 389.597 129.784C387.369 137.069 382.69 145.316 375.93 154.011C362.411 171.398 340.642 190.49 313.818 207.146C286.995 223.801 260.234 234.843 238.663 239.243C227.876 241.444 218.415 241.977 210.903 240.74C203.391 239.502 197.892 236.506 194.914 231.702C191.936 226.899 191.695 220.638 193.922 213.352C196.15 206.067 200.829 197.82 207.589 189.125C221.107 171.738 242.877 152.646 269.701 135.99Z" fill="#FAFAFA" stroke="url(#paint13_linear_6_1073)"/>
<path d="M273.343 212.265C245.685 196.595 222.997 178.297 208.669 161.397C201.504 152.945 196.447 144.865 193.895 137.656C191.343 130.446 191.314 124.17 194.097 119.252C196.879 114.334 202.27 111.129 209.762 109.609C217.252 108.09 226.777 108.271 237.706 110.071C259.558 113.67 286.911 123.723 314.569 139.394C342.227 155.064 364.916 173.362 379.244 190.261C386.409 198.713 391.465 206.794 394.017 214.002C396.57 221.213 396.598 227.488 393.816 232.406C391.033 237.324 385.642 240.529 378.15 242.049C370.661 243.568 361.135 243.387 350.207 241.588C328.354 237.989 301.002 227.935 273.343 212.265Z" fill="#FAFAFA" stroke="url(#paint14_linear_6_1073)"/>
<path d="M317.291 172.126C317.291 184.683 307.119 194.861 294.573 194.861C282.027 194.861 271.855 184.683 271.855 172.126C271.855 159.57 282.027 149.391 294.573 149.391C307.119 149.391 317.291 159.57 317.291 172.126Z" fill="url(#paint15_linear_6_1073)" stroke="url(#paint16_linear_6_1073)"/>
<path d="M314.56 63.241C314.56 67.4943 311.115 70.9416 306.866 70.9416C302.616 70.9416 299.171 67.4943 299.171 63.241C299.171 58.9877 302.616 55.5404 306.866 55.5404C311.115 55.5404 314.56 58.9877 314.56 63.241Z" fill="url(#paint17_linear_6_1073)" stroke="url(#paint18_linear_6_1073)"/>
<path d="M391.953 238.187C391.953 242.44 388.507 245.887 384.258 245.887C380.009 245.887 376.563 242.44 376.563 238.187C376.563 233.933 380.009 230.486 384.258 230.486C388.507 230.486 391.953 233.933 391.953 238.187Z" fill="url(#paint19_linear_6_1073)" stroke="url(#paint20_linear_6_1073)"/>
<path d="M203.478 216.319C203.478 220.572 200.033 224.019 195.784 224.019C191.535 224.019 188.089 220.572 188.089 216.319C188.089 212.065 191.535 208.618 195.784 208.618C200.033 208.618 203.478 212.065 203.478 216.319Z" fill="url(#paint21_linear_6_1073)" stroke="url(#paint22_linear_6_1073)"/>
<mask id="path-30-inside-8_6_1073" fill="white">
<path fill-rule="evenodd" clip-rule="evenodd" d="M294.574 289.213C320.974 289.213 342.375 237.199 342.375 173.038C342.375 131.882 333.57 95.7251 320.288 75.087C331.937 95.3788 339.645 130.648 339.645 170.76C339.645 233.663 320.689 284.657 297.306 284.657C273.923 284.657 254.968 233.663 254.968 170.76C254.968 109.017 273.23 58.749 296.016 56.9145C295.537 56.88 295.056 56.8627 294.574 56.8627C268.174 56.8627 246.772 108.876 246.772 173.038C246.772 237.199 268.174 289.213 294.574 289.213Z"/>
</mask>
<path fill-rule="evenodd" clip-rule="evenodd" d="M294.574 289.213C320.974 289.213 342.375 237.199 342.375 173.038C342.375 131.882 333.57 95.7251 320.288 75.087C331.937 95.3788 339.645 130.648 339.645 170.76C339.645 233.663 320.689 284.657 297.306 284.657C273.923 284.657 254.968 233.663 254.968 170.76C254.968 109.017 273.23 58.749 296.016 56.9145C295.537 56.88 295.056 56.8627 294.574 56.8627C268.174 56.8627 246.772 108.876 246.772 173.038C246.772 237.199 268.174 289.213 294.574 289.213Z" fill="url(#paint23_linear_6_1073)"/>
<path d="M320.288 75.087L321.129 74.5458L319.421 75.5848L320.288 75.087ZM296.016 56.9145L296.096 57.9113L296.088 55.9171L296.016 56.9145ZM341.375 173.038C341.375 205.021 336.039 233.929 327.45 254.805C323.154 265.245 318.064 273.628 312.464 279.386C306.866 285.14 300.821 288.213 294.574 288.213V290.213C301.527 290.213 308.057 286.784 313.897 280.78C319.734 274.78 324.945 266.149 329.299 255.566C338.011 234.395 343.375 205.216 343.375 173.038H341.375ZM319.447 75.6281C332.585 96.0424 341.375 131.983 341.375 173.038H343.375C343.375 131.781 334.555 95.4078 321.129 74.5458L319.447 75.6281ZM319.421 75.5848C330.948 95.6645 338.645 130.736 338.645 170.76H340.645C340.645 130.56 332.926 95.0931 321.155 74.5891L319.421 75.5848ZM338.645 170.76C338.645 202.124 333.917 230.475 326.307 250.949C322.5 261.189 317.991 269.407 313.035 275.046C308.077 280.687 302.76 283.657 297.306 283.657V285.657C303.544 285.657 309.364 282.252 314.537 276.366C319.712 270.478 324.326 262.016 328.181 251.645C335.894 230.896 340.645 202.299 340.645 170.76H338.645ZM297.306 283.657C291.853 283.657 286.535 280.687 281.577 275.046C276.621 269.407 272.112 261.189 268.306 250.949C260.695 230.475 255.968 202.124 255.968 170.76H253.968C253.968 202.299 258.718 230.896 266.431 251.645C270.286 262.016 274.9 270.478 280.075 276.366C285.248 282.252 291.068 285.657 297.306 285.657V283.657ZM255.968 170.76C255.968 139.975 260.522 112.092 267.888 91.7115C271.571 81.5181 275.942 73.2483 280.759 67.4321C285.582 61.61 290.77 58.3401 296.096 57.9113L295.936 55.9178C289.869 56.4062 284.229 60.1077 279.219 66.1563C274.204 72.2108 269.737 80.7109 266.007 91.0317C258.544 111.679 253.968 139.802 253.968 170.76H255.968ZM294.574 57.8627C295.032 57.8627 295.489 57.8792 295.944 57.912L296.088 55.9171C295.585 55.8809 295.08 55.8627 294.574 55.8627V57.8627ZM247.772 173.038C247.772 141.054 253.108 112.146 261.698 91.27C265.994 80.8298 271.083 72.4468 276.684 66.6896C282.282 60.9354 288.327 57.8627 294.574 57.8627V55.8627C287.621 55.8627 281.091 59.2916 275.25 65.295C269.413 71.2952 264.203 79.9257 259.848 90.509C251.137 111.68 245.772 140.859 245.772 173.038H247.772ZM294.574 288.213C288.327 288.213 282.282 285.14 276.684 279.386C271.083 273.628 265.994 265.245 261.698 254.805C253.108 233.929 247.772 205.021 247.772 173.038H245.772C245.772 205.216 251.137 234.395 259.848 255.566C264.203 266.149 269.413 274.78 275.25 280.78C281.091 286.784 287.621 290.213 294.574 290.213V288.213Z" fill="url(#paint24_linear_6_1073)" mask="url(#path-30-inside-8_6_1073)"/>
<mask id="path-32-inside-9_6_1073" fill="white">
<path fill-rule="evenodd" clip-rule="evenodd" d="M193.662 119.006C182.142 139.369 217.706 181.317 273.097 212.7C309.595 233.379 345.595 244.31 369.202 243.536C344.685 245.673 307.858 235.536 271.023 214.666C215.229 183.055 180.544 138.792 193.55 115.802C206.557 92.8109 262.33 99.7988 318.124 131.409C373.917 163.02 408.603 207.283 395.596 230.274C395.358 230.694 395.106 231.104 394.84 231.504C404.453 210.746 369.185 169.762 314.815 138.958C259.424 107.576 205.182 98.6425 193.662 119.006Z"/>
</mask>
<path fill-rule="evenodd" clip-rule="evenodd" d="M193.662 119.006C182.142 139.369 217.706 181.317 273.097 212.7C309.595 233.379 345.595 244.31 369.202 243.536C344.685 245.673 307.858 235.536 271.023 214.666C215.229 183.055 180.544 138.792 193.55 115.802C206.557 92.8109 262.33 99.7988 318.124 131.409C373.917 163.02 408.603 207.283 395.596 230.274C395.358 230.694 395.106 231.104 394.84 231.504C404.453 210.746 369.185 169.762 314.815 138.958C259.424 107.576 205.182 98.6425 193.662 119.006Z" fill="url(#paint25_linear_6_1073)"/>
<path d="M369.202 243.536L369.289 244.533L369.169 242.536L369.202 243.536ZM394.84 231.504L393.933 231.084L395.673 232.058L394.84 231.504ZM314.815 138.958L314.323 139.829L314.815 138.958ZM273.59 211.83C245.969 196.181 223.331 177.918 209.05 161.073C201.907 152.648 196.891 144.62 194.366 137.489C191.841 130.355 191.847 124.244 194.532 119.499L192.792 118.513C189.716 123.949 189.848 130.718 192.482 138.157C195.117 145.599 200.294 153.837 207.526 162.367C221.995 179.434 244.834 197.836 272.605 213.57L273.59 211.83ZM369.169 242.536C345.825 243.302 310.015 232.467 273.59 211.83L272.605 213.57C309.176 234.29 345.365 245.319 369.235 244.536L369.169 242.536ZM369.115 242.54C344.883 244.652 308.265 234.617 271.515 213.796L270.53 215.536C307.452 236.455 344.488 246.694 369.289 244.533L369.115 242.54ZM271.515 213.796C243.704 198.038 221.194 179.149 207.273 161.384C200.311 152.5 195.529 143.937 193.282 136.223C191.036 128.514 191.342 121.735 194.421 116.295L192.68 115.309C189.255 121.363 189.019 128.739 191.363 136.783C193.705 144.822 198.642 153.612 205.7 162.618C219.818 180.635 242.549 199.683 270.53 215.536L271.515 213.796ZM194.421 116.295C197.499 110.854 203.149 107.103 210.911 105.063C218.676 103.022 228.473 102.72 239.668 104.123C262.053 106.927 289.82 116.523 317.631 132.28L318.616 130.539C290.634 114.686 262.618 104.982 239.916 102.138C228.567 100.716 218.495 101.001 210.402 103.128C202.304 105.257 196.106 109.254 192.68 115.309L194.421 116.295ZM317.631 132.28C345.443 148.037 367.952 166.926 381.873 184.691C388.835 193.576 393.617 202.138 395.864 209.852C398.11 217.562 397.804 224.34 394.726 229.781L396.466 230.767C399.891 224.712 400.127 217.336 397.784 209.293C395.442 201.253 390.504 192.464 383.447 183.457C369.328 165.44 346.598 146.393 318.616 130.539L317.631 132.28ZM394.726 229.781C394.5 230.18 394.261 230.57 394.008 230.95L395.673 232.058C395.952 231.638 396.217 231.208 396.466 230.767L394.726 229.781ZM314.323 139.829C341.433 155.189 363.745 173.068 378.065 189.652C385.227 197.947 390.357 205.881 393.105 212.979C395.857 220.086 396.178 226.235 393.933 231.084L395.748 231.925C398.309 226.394 397.826 219.636 394.97 212.257C392.11 204.871 386.827 196.741 379.577 188.345C365.074 171.547 342.567 153.532 315.308 138.088L314.323 139.829ZM194.532 119.499C197.216 114.753 202.449 111.603 209.862 110.1C217.271 108.597 226.73 108.77 237.625 110.564C259.406 114.151 286.702 124.18 314.323 139.829L315.308 138.088C287.537 122.354 260.017 112.225 237.949 108.59C226.919 106.774 217.196 106.571 209.464 108.139C201.735 109.707 195.867 113.077 192.792 118.513L194.532 119.499Z" fill="url(#paint26_linear_6_1073)" mask="url(#path-32-inside-9_6_1073)"/>
<mask id="path-34-inside-10_6_1073" fill="white">
<path fill-rule="evenodd" clip-rule="evenodd" d="M389.03 111.17C376.702 91.2866 323.158 102.209 269.437 135.566C234.636 157.175 208.298 182.898 197.414 203.741C207.64 181.382 233.937 154.391 269.371 132.39C323.85 98.5618 379.298 89.3376 393.217 111.787C407.136 134.236 374.255 179.858 319.776 213.686C265.296 247.514 209.848 256.738 195.929 234.289C195.675 233.878 195.436 233.46 195.212 233.034C208.79 251.44 261.35 240.313 314.082 207.571C367.802 174.214 401.358 131.054 389.03 111.17Z"/>
</mask>
<path fill-rule="evenodd" clip-rule="evenodd" d="M389.03 111.17C376.702 91.2866 323.158 102.209 269.437 135.566C234.636 157.175 208.298 182.898 197.414 203.741C207.64 181.382 233.937 154.391 269.371 132.39C323.85 98.5618 379.298 89.3376 393.217 111.787C407.136 134.236 374.255 179.858 319.776 213.686C265.296 247.514 209.848 256.738 195.929 234.289C195.675 233.878 195.436 233.46 195.212 233.034C208.79 251.44 261.35 240.313 314.082 207.571C367.802 174.214 401.358 131.054 389.03 111.17Z" fill="url(#paint27_linear_6_1073)"/>
<path d="M197.414 203.741L196.505 203.325L198.3 204.205L197.414 203.741ZM195.212 233.034L196.017 232.44L194.327 233.499L195.212 233.034ZM269.964 136.416C296.751 119.783 323.457 108.768 344.955 104.383C355.709 102.189 365.105 101.666 372.534 102.89C379.967 104.114 385.306 107.062 388.18 111.698L389.879 110.643C386.59 105.337 380.613 102.193 372.86 100.916C365.104 99.638 355.445 100.201 344.556 102.423C322.771 106.867 295.845 117.991 268.91 134.716L269.964 136.416ZM198.3 204.205C209.067 183.585 235.236 157.979 269.964 136.416L268.91 134.716C234.036 156.37 207.529 182.21 196.528 203.278L198.3 204.205ZM198.323 204.158C208.435 182.049 234.549 155.189 269.898 133.24L268.844 131.54C233.325 153.594 206.846 180.716 196.505 203.325L198.323 204.158ZM269.898 133.24C297.054 116.377 324.414 105.673 346.668 101.971C357.797 100.12 367.599 100.028 375.44 101.755C383.277 103.481 389.074 107.002 392.367 112.314L394.067 111.259C390.401 105.347 384.047 101.602 375.87 99.8013C367.698 98.0013 357.623 98.1207 346.34 99.9976C323.771 103.752 296.167 114.574 268.844 131.54L269.898 133.24ZM392.367 112.314C395.661 117.627 396.239 124.388 394.305 132.181C392.369 139.979 387.935 148.727 381.335 157.884C368.138 176.195 346.405 195.973 319.249 212.836L320.302 214.536C347.625 197.57 369.573 177.624 382.956 159.054C389.647 149.771 394.228 140.79 396.245 132.663C398.264 124.532 397.732 117.171 394.067 111.259L392.367 112.314ZM319.249 212.836C292.092 229.698 264.732 240.402 242.478 244.104C231.349 245.956 221.548 246.047 213.706 244.32C205.869 242.594 200.073 239.074 196.779 233.761L195.08 234.816C198.745 240.728 205.099 244.473 213.276 246.274C221.448 248.074 231.524 247.955 242.806 246.078C265.375 242.323 292.98 231.501 320.302 214.536L319.249 212.836ZM196.779 233.761C196.537 233.371 196.31 232.973 196.098 232.569L194.327 233.499C194.562 233.946 194.812 234.385 195.08 234.816L196.779 233.761ZM313.555 206.721C287.262 223.046 261.047 233.96 239.756 238.504C229.108 240.777 219.74 241.446 212.232 240.433C204.717 239.419 199.189 236.74 196.017 232.44L194.408 233.628C198.024 238.53 204.159 241.363 211.965 242.416C219.779 243.47 229.393 242.762 240.173 240.461C261.74 235.858 288.17 224.837 314.609 208.421L313.555 206.721ZM388.18 111.698C391.055 116.334 391.323 122.43 389.119 129.638C386.915 136.843 382.274 145.036 375.535 153.704C362.062 171.033 340.341 190.088 313.555 206.721L314.609 208.421C341.543 191.696 363.46 172.493 377.113 154.932C383.937 146.155 388.731 137.744 391.03 130.223C393.33 122.704 393.169 115.949 389.879 110.643L388.18 111.698Z" fill="url(#paint28_linear_6_1073)" mask="url(#path-34-inside-10_6_1073)"/>
<defs>
<filter id="filter0_f_6_1073" x="229" y="146.115" width="27" height="27.0051" filterUnits="userSpaceOnUse" color-interpolation-filters="sRGB">
<feFlood flood-opacity="0" result="BackgroundImageFix"/>
<feBlend mode="normal" in="SourceGraphic" in2="BackgroundImageFix" result="shape"/>
<feGaussianBlur stdDeviation="5" result="effect1_foregroundBlur_6_1073"/>
</filter>
<linearGradient id="paint0_linear_6_1073" x1="377.858" y1="261.214" x2="382.554" y2="244.32" gradientUnits="userSpaceOnUse">
<stop offset="0.187811" stop-color="#CBAEFF" stop-opacity="0.5"/>
<stop offset="0.773374" stop-color="#A6FBF5"/>
</linearGradient>
<linearGradient id="paint1_linear_6_1073" x1="331.831" y1="336.27" x2="336.528" y2="319.375" gradientUnits="userSpaceOnUse">
<stop offset="0.187811" stop-color="#CBAEFF" stop-opacity="0.5"/>
<stop offset="0.773374" stop-color="#A6FBF5"/>
</linearGradient>
<linearGradient id="paint2_linear_6_1073" x1="470.831" y1="298.242" x2="475.528" y2="281.347" gradientUnits="userSpaceOnUse">
<stop offset="0.187811" stop-color="#CBAEFF" stop-opacity="0.5"/>
<stop offset="0.773374" stop-color="#A6FBF5"/>
</linearGradient>
<linearGradient id="paint3_linear_6_1073" x1="110.831" y1="320.258" x2="115.528" y2="303.364" gradientUnits="userSpaceOnUse">
<stop offset="0.187811" stop-color="#CBAEFF" stop-opacity="0.5"/>
<stop offset="0.773374" stop-color="#A6FBF5"/>
</linearGradient>
<linearGradient id="paint4_linear_6_1073" x1="268.257" y1="28.4797" x2="273.937" y2="20.7937" gradientUnits="userSpaceOnUse">
<stop offset="0.187811" stop-color="#CBAEFF" stop-opacity="0.5"/>
<stop offset="0.773374" stop-color="#A6FBF5"/>
</linearGradient>
<linearGradient id="paint5_linear_6_1073" x1="268.257" y1="28.4797" x2="273.937" y2="20.7937" gradientUnits="userSpaceOnUse">
<stop offset="0.187811" stop-color="#CBAEFF" stop-opacity="0.5"/>
<stop offset="0.773374" stop-color="#A6FBF5"/>
</linearGradient>
<linearGradient id="paint6_linear_6_1073" x1="258.059" y1="43.2167" x2="259.873" y2="33.8309" gradientUnits="userSpaceOnUse">
<stop offset="0.187811" stop-color="#CBAEFF" stop-opacity="0.5"/>
<stop offset="0.773374" stop-color="#A6FBF5"/>
</linearGradient>
<linearGradient id="paint7_linear_6_1073" x1="258.059" y1="43.2167" x2="259.873" y2="33.8309" gradientUnits="userSpaceOnUse">
<stop offset="0.187811" stop-color="#CBAEFF" stop-opacity="0.5"/>
<stop offset="0.773374" stop-color="#A6FBF5"/>
</linearGradient>
<linearGradient id="paint8_linear_6_1073" x1="285.164" y1="20.9367" x2="293.79" y2="16.8297" gradientUnits="userSpaceOnUse">
<stop offset="0.187811" stop-color="#CBAEFF" stop-opacity="0.5"/>
<stop offset="0.773374" stop-color="#A6FBF5"/>
</linearGradient>
<linearGradient id="paint9_linear_6_1073" x1="285.164" y1="20.9367" x2="293.79" y2="16.8297" gradientUnits="userSpaceOnUse">
<stop offset="0.187811" stop-color="#CBAEFF" stop-opacity="0.5"/>
<stop offset="0.773374" stop-color="#A6FBF5"/>
</linearGradient>
<linearGradient id="paint10_linear_6_1073" x1="238.358" y1="172.116" x2="253.999" y2="147.593" gradientUnits="userSpaceOnUse">
<stop offset="0.187811" stop-color="#CBAEFF" stop-opacity="0.5"/>
<stop offset="0.773374" stop-color="#A6FBF5"/>
</linearGradient>
<linearGradient id="paint11_linear_6_1073" x1="241.342" y1="163.122" x2="245.725" y2="156.251" gradientUnits="userSpaceOnUse">
<stop offset="0.187811" stop-color="#CBAEFF" stop-opacity="0.5"/>
<stop offset="0.773374" stop-color="#A6FBF5"/>
</linearGradient>
<linearGradient id="paint12_linear_6_1073" x1="283.301" y1="284.737" x2="420.11" y2="204.945" gradientUnits="userSpaceOnUse">
<stop offset="0.187811" stop-color="#CBAEFF" stop-opacity="0.5"/>
<stop offset="0.773374" stop-color="#A6FBF5"/>
</linearGradient>
<linearGradient id="paint13_linear_6_1073" x1="396.482" y1="123.037" x2="256.49" y2="48.4849" gradientUnits="userSpaceOnUse">
<stop offset="0.187811" stop-color="#CBAEFF" stop-opacity="0.5"/>
<stop offset="0.773374" stop-color="#A6FBF5"/>
</linearGradient>
<linearGradient id="paint14_linear_6_1073" x1="200.491" y1="106.769" x2="201.718" y2="265.731" gradientUnits="userSpaceOnUse">
<stop offset="0.187811" stop-color="#CBAEFF" stop-opacity="0.5"/>
<stop offset="0.773374" stop-color="#A6FBF5"/>
</linearGradient>
<linearGradient id="paint15_linear_6_1073" x1="286.893" y1="195.378" x2="315.968" y2="149.793" gradientUnits="userSpaceOnUse">
<stop offset="0.187811" stop-color="#CBAEFF" stop-opacity="0.5"/>
<stop offset="0.773374" stop-color="#A6FBF5"/>
</linearGradient>
<linearGradient id="paint16_linear_6_1073" x1="286.893" y1="195.378" x2="315.968" y2="149.793" gradientUnits="userSpaceOnUse">
<stop offset="0.187811" stop-color="#CBAEFF" stop-opacity="0.5"/>
<stop offset="0.773374" stop-color="#A6FBF5"/>
</linearGradient>
<linearGradient id="paint17_linear_6_1073" x1="304.155" y1="71.4474" x2="314.417" y2="55.3585" gradientUnits="userSpaceOnUse">
<stop offset="0.187811" stop-color="#CBAEFF" stop-opacity="0.5"/>
<stop offset="0.773374" stop-color="#A6FBF5"/>
</linearGradient>
<linearGradient id="paint18_linear_6_1073" x1="304.155" y1="71.4474" x2="314.417" y2="55.3585" gradientUnits="userSpaceOnUse">
<stop offset="0.187811" stop-color="#CBAEFF" stop-opacity="0.5"/>
<stop offset="0.773374" stop-color="#A6FBF5"/>
</linearGradient>
<linearGradient id="paint19_linear_6_1073" x1="381.547" y1="246.393" x2="391.809" y2="230.304" gradientUnits="userSpaceOnUse">
<stop offset="0.187811" stop-color="#CBAEFF" stop-opacity="0.5"/>
<stop offset="0.773374" stop-color="#A6FBF5"/>
</linearGradient>
<linearGradient id="paint20_linear_6_1073" x1="381.547" y1="246.393" x2="391.809" y2="230.304" gradientUnits="userSpaceOnUse">
<stop offset="0.187811" stop-color="#CBAEFF" stop-opacity="0.5"/>
<stop offset="0.773374" stop-color="#A6FBF5"/>
</linearGradient>
<linearGradient id="paint21_linear_6_1073" x1="193.073" y1="224.525" x2="203.335" y2="208.436" gradientUnits="userSpaceOnUse">
<stop offset="0.187811" stop-color="#CBAEFF" stop-opacity="0.5"/>
<stop offset="0.773374" stop-color="#A6FBF5"/>
</linearGradient>
<linearGradient id="paint22_linear_6_1073" x1="193.073" y1="224.525" x2="203.335" y2="208.436" gradientUnits="userSpaceOnUse">
<stop offset="0.187811" stop-color="#CBAEFF" stop-opacity="0.5"/>
<stop offset="0.773374" stop-color="#A6FBF5"/>
</linearGradient>
<linearGradient id="paint23_linear_6_1073" x1="278.761" y1="289.294" x2="424.871" y2="194.969" gradientUnits="userSpaceOnUse">
<stop offset="0.187811" stop-color="#CBAEFF" stop-opacity="0.5"/>
<stop offset="0.773374" stop-color="#A6FBF5"/>
</linearGradient>
<linearGradient id="paint24_linear_6_1073" x1="278.761" y1="289.294" x2="424.871" y2="194.969" gradientUnits="userSpaceOnUse">
<stop offset="0.187811" stop-color="#CBAEFF" stop-opacity="0.5"/>
<stop offset="0.773374" stop-color="#A6FBF5"/>
</linearGradient>
<linearGradient id="paint25_linear_6_1073" x1="201.27" y1="101.991" x2="211.44" y2="275.695" gradientUnits="userSpaceOnUse">
<stop offset="0.187811" stop-color="#CBAEFF" stop-opacity="0.5"/>
<stop offset="0.773374" stop-color="#A6FBF5"/>
</linearGradient>
<linearGradient id="paint26_linear_6_1073" x1="201.27" y1="101.991" x2="211.44" y2="275.695" gradientUnits="userSpaceOnUse">
<stop offset="0.187811" stop-color="#CBAEFF" stop-opacity="0.5"/>
<stop offset="0.773374" stop-color="#A6FBF5"/>
</linearGradient>
<linearGradient id="paint27_linear_6_1073" x1="401.623" y1="125.19" x2="244.406" y2="50.8721" gradientUnits="userSpaceOnUse">
<stop offset="0.187811" stop-color="#CBAEFF" stop-opacity="0.5"/>
<stop offset="0.773374" stop-color="#A6FBF5"/>
</linearGradient>
<linearGradient id="paint28_linear_6_1073" x1="401.623" y1="125.19" x2="244.406" y2="50.8721" gradientUnits="userSpaceOnUse">
<stop offset="0.187811" stop-color="#CBAEFF" stop-opacity="0.5"/>
<stop offset="0.773374" stop-color="#A6FBF5"/>
</linearGradient>
</defs>
</svg>
