<svg width="82" height="82" viewBox="0 0 82 82" fill="none" xmlns="http://www.w3.org/2000/svg">
  <circle cx="41" cy="41" r="41" fill="#DA6C1D"/>
  <g clip-path="url(#clip0_103_652)">
  <path d="M50.0941 28.5282C51.8895 26.9506 52.7739 25.3843 53.3203 23.0521C53.8666 20.7199 53.6746 18.2706 52.7707 16.0428C51.8668 13.8149 50.2958 11.9185 48.2746 10.6155C46.2534 9.31254 43.8819 8.66738 41.4878 8.7692C39.0937 8.87102 36.7953 9.71477 34.91 11.1839C33.0248 12.653 31.646 14.6749 30.964 16.9702C30.282 19.2655 30.3305 21.7209 31.1029 23.997C31.6489 25.86 33.03 28.6801 35.2953 30.6887L39.9612 27.8892C38.8544 27.0808 36.2544 23.7201 35.8142 22.4231C35.3741 21.1261 35.3464 19.7269 35.735 18.419C36.1237 17.111 36.9094 15.9589 37.9837 15.1217C39.0579 14.2846 40.3677 13.8038 41.7319 13.7458C43.0962 13.6877 44.4475 14.0554 45.5993 14.7979C46.751 15.5403 47.6463 16.621 48.1613 17.8905C48.6764 19.16 48.7858 20.5557 48.4745 21.8847C48.1632 23.2137 47.8105 24.7888 46.7875 25.6878L50.0941 28.5282Z" fill="#FAFAFA"/>
  <path d="M38.5608 26.4883L35.2947 30.6876L49.1056 44.4052L52.4651 40.2644L38.5608 26.4883Z" fill="#FAFAFA"/>
  <path d="M52.2785 40.1133L49.1057 44.4059C52.1852 47.1121 54.7735 52.3359 54.5953 56.3505L58.8107 51.3114C59.0468 49.4792 54.2225 41.5637 52.2785 40.1133Z" fill="#FAFAFA"/>
  <path d="M32.0755 53.4718C30.2802 55.0494 29.3958 56.6157 28.8494 58.9479C28.3031 61.2801 28.4951 63.7294 29.399 65.9572C30.3028 68.1851 31.8739 70.0815 33.8951 71.3845C35.9163 72.6875 38.2878 73.3326 40.6819 73.2308C43.076 73.129 45.3744 72.2852 47.2596 70.8161C49.1448 69.347 50.5237 67.3251 51.2057 65.0298C51.8877 62.7345 51.8391 60.2791 51.0667 58.003C50.5208 56.14 49.1396 53.3199 46.8744 51.3113L42.2085 54.1108C43.3153 54.9192 45.9153 58.2799 46.3554 59.5769C46.7956 60.8739 46.8233 62.2731 46.4346 63.581C46.046 64.889 45.2603 66.0411 44.186 66.8783C43.1117 67.7154 41.802 68.1962 40.4378 68.2542C39.0735 68.3123 37.7222 67.9446 36.5704 67.2021C35.4187 66.4597 34.5234 65.379 34.0083 64.1095C33.4933 62.84 33.3838 61.4443 33.6952 60.1153C34.0065 58.7863 34.3591 57.2112 35.3822 56.3122L32.0755 53.4718Z" fill="#FAFAFA"/>
  <path d="M43.6089 55.5117L46.875 51.3124L33.064 37.5948L29.7046 41.7356L43.6089 55.5117Z" fill="#FAFAFA"/>
  <path d="M29.7979 41.791L33.064 37.5917C29.9845 34.8855 27.3962 29.6617 27.5743 25.6471L23.359 30.6863C23.1229 32.5185 27.8539 40.3406 29.7979 41.791Z" fill="#FAFAFA"/>
  <path d="M57.9725 24.4375C58.4746 28.0248 56.5728 31.8096 54.5198 33.3026L57.7859 36.1022C60.2976 33.0204 61.4351 30.9712 62.4517 27.1437L57.9725 24.4375Z" fill="#FAFAFA"/>
  <path d="M24.4711 56.2568C23.969 52.6696 25.8708 48.8848 27.9238 47.3917L24.6577 44.5922C22.146 47.6739 21.0085 49.7232 19.9919 53.5506L24.4711 56.2568Z" fill="#FAFAFA"/>
  </g>
  <defs>
  <clipPath id="clip0_103_652">
  <rect width="82" height="73.8" fill="white" transform="translate(0 4)"/>
  </clipPath>
  </defs>
  </svg>
  