<svg width="506" height="124" viewBox="0 0 506 124" fill="none" xmlns="http://www.w3.org/2000/svg">
<path d="M80.512 41.1271C83.2541 38.4835 84.605 35.8588 85.4395 31.9509C86.2737 28.0429 85.9805 23.9387 84.6 20.2056C83.2195 16.4725 80.82 13.2946 77.7328 11.1113C74.6457 8.92792 71.0235 7.84685 67.3668 8.01749C63.7105 8.18809 60.1998 9.60193 57.3205 12.0637C54.4412 14.5254 52.3351 17.9135 51.2934 21.7596C50.2517 25.6058 50.3258 29.7202 51.5056 33.5342C52.3395 36.6559 54.449 41.3816 57.9088 44.7472L65.0354 40.0562C63.3447 38.7019 59.3737 33.0703 58.7016 30.8969C58.0291 28.7235 57.987 26.379 58.5804 24.1873C59.1741 21.9956 60.374 20.065 62.0148 18.6622C63.6559 17.2594 65.656 16.4538 67.7398 16.3565C69.8236 16.2593 71.8875 16.8754 73.6466 18.1195C75.4057 19.3637 76.7734 21.1745 77.5598 23.3018C78.3465 25.4291 78.5137 27.7678 78.0383 29.9947C77.5626 32.2216 77.0242 34.861 75.4616 36.3676L80.512 41.1271Z" fill="#DA6C1D"/>
<path d="M62.8957 37.7109L57.9072 44.7475L79.0015 67.7337L84.1325 60.7952L62.8957 37.7109Z" fill="#DA6C1D"/>
<path d="M83.8479 60.54L79.002 67.7331C83.7054 72.2677 87.6588 81.0211 87.3865 87.7481L93.8251 79.3044C94.1853 76.234 86.8174 62.9704 83.8479 60.54Z" fill="#DA6C1D"/>
<path d="M52.9916 82.9248C50.2495 85.5684 48.8985 88.1931 48.0643 92.1012C47.2298 96.0089 47.5231 100.113 48.9036 103.846C50.284 107.58 52.6836 110.757 55.7708 112.941C58.8579 115.124 62.48 116.205 66.1367 116.035C69.793 115.864 73.3038 114.45 76.1831 111.988C79.0623 109.527 81.1684 106.138 82.2101 102.292C83.2518 98.4462 83.1777 94.3318 81.9979 90.5178C81.164 87.3961 79.0546 82.6703 75.5947 79.3047L68.4682 83.9957C70.1589 85.3501 74.1298 90.9817 74.802 93.1552C75.4744 95.3283 75.5165 97.6729 74.9231 99.8646C74.3294 102.056 73.1295 103.987 71.4888 105.39C69.8476 106.793 67.8475 107.598 65.7637 107.696C63.68 107.793 61.616 107.177 59.8569 105.932C58.0978 104.688 56.7305 102.878 55.9437 100.75C55.157 98.6229 54.9899 96.2841 55.4652 94.0573C55.9409 91.8304 56.4793 89.191 58.0419 87.6844L52.9916 82.9248Z" fill="#DA6C1D"/>
<path d="M70.6074 86.3412L75.5959 79.3046L54.5016 56.3184L49.3706 63.2569L70.6074 86.3412Z" fill="#DA6C1D"/>
<path d="M49.5129 63.3547L54.5014 56.3181C49.798 51.7835 45.8447 43.0301 46.1169 36.3027L39.6786 44.7468C39.3178 47.8168 46.5438 60.9243 49.5129 63.3547Z" fill="#DA6C1D"/>
<path d="M92.545 34.2715C93.3122 40.2826 90.4073 46.6245 87.2715 49.1266L92.2599 53.8176C96.0961 48.6537 97.8332 45.2199 99.3861 38.8063L92.545 34.2715Z" fill="#DA6C1D"/>
<path d="M41.3771 87.5928C40.6101 81.5819 43.5149 75.2399 46.6507 72.7379L41.6622 68.0469C37.8259 73.2108 36.0885 76.6446 34.5356 83.0581L41.3771 87.5928Z" fill="#DA6C1D"/>
<path d="M124.421 37.6855H131.451L148.388 82.1774H148.867L165.804 37.6855H172.754L153.421 88.4919H143.834L124.421 37.6855Z" fill="white"/>
<path d="M180.409 50.2419H187.279V88.4919H180.409V50.2419ZM183.764 43.129C182.486 43.129 181.421 42.7419 180.569 41.9677C179.716 41.1452 179.29 40.1774 179.29 39.0645C179.29 37.9516 179.716 37.0081 180.569 36.2339C181.421 35.4113 182.486 35 183.764 35C185.042 35 186.108 35.4113 186.96 36.2339C187.865 37.0081 188.318 37.9516 188.318 39.0645C188.318 40.1774 187.865 41.1452 186.96 41.9677C186.108 42.7419 185.042 43.129 183.764 43.129Z" fill="white"/>
<path d="M200.056 50.2417H206.927V57.1369H207.566C208.631 54.9111 210.362 53.0482 212.759 51.5482C215.155 49.9998 218.085 49.2256 221.546 49.2256C225.115 49.2256 228.097 49.9998 230.494 51.5482C232.891 53.0482 234.648 55.0563 235.767 57.5724C236.939 60.0401 237.524 62.7256 237.524 65.6288V88.4917H230.654V66.4272C230.654 62.653 229.562 59.774 227.378 57.7901C225.248 55.8063 222.452 54.8143 218.99 54.8143C215.315 54.8143 212.386 55.903 210.202 58.0804C208.018 60.2095 206.927 62.9917 206.927 66.4272V88.4917H200.056V50.2417Z" fill="white"/>
<path d="M264.626 88.9998C260.898 88.9998 257.702 88.1288 255.039 86.3869C252.429 84.645 250.432 82.274 249.047 79.274C247.663 76.274 246.97 72.8869 246.97 69.1127C246.97 65.3385 247.663 61.9514 249.047 58.9514C250.485 55.903 252.536 53.5321 255.199 51.8385C257.915 50.0966 261.137 49.2256 264.866 49.2256C268.594 49.2256 271.603 50.024 273.893 51.6208C276.183 53.2175 277.914 55.1288 279.086 57.3546H279.645V50.2417H286.596V88.4917H279.645V80.653H279.086C277.808 82.9272 275.997 84.8869 273.653 86.5321C271.31 88.1772 268.301 88.9998 264.626 88.9998ZM266.783 83.6288C270.884 83.6288 274.026 82.2498 276.21 79.4917C278.394 76.6853 279.485 73.2256 279.485 69.1127C279.485 64.9998 278.394 61.5643 276.21 58.8063C274.026 55.9998 270.884 54.5966 266.783 54.5966C262.575 54.5966 259.38 55.9756 257.196 58.7337C255.066 61.4917 254 64.9272 254 69.0401C254 73.2014 255.066 76.6853 257.196 79.4917C259.38 82.2498 262.575 83.6288 266.783 83.6288Z" fill="white"/>
<path d="M313.128 88.9998C309.72 88.9998 306.764 88.395 304.261 87.1853C301.757 85.9272 299.84 84.3304 298.509 82.395C297.23 80.4595 296.591 78.4272 296.591 76.2982V75.9353H303.462V76.2256C303.462 77.4353 303.835 78.645 304.58 79.8546C305.326 81.0159 306.444 81.9837 307.936 82.7579C309.427 83.4837 311.238 83.8466 313.368 83.8466C315.925 83.8466 318.028 83.2901 319.679 82.1772C321.384 81.0159 322.236 79.4433 322.236 77.4595C322.236 75.8143 321.57 74.5079 320.239 73.5401C318.96 72.5724 317.336 71.9433 315.365 71.653L309.853 70.9272C306.391 70.4433 303.488 69.3788 301.145 67.7337C298.801 66.0401 297.63 63.5966 297.63 60.403C297.63 56.8708 299.014 54.1369 301.784 52.2014C304.607 50.2175 308.202 49.2256 312.569 49.2256C315.818 49.2256 318.588 49.7821 320.878 50.895C323.221 51.9595 325.005 53.3869 326.23 55.1772C327.455 56.9192 328.068 58.8304 328.068 60.9111V61.2014H321.197V61.0563C321.197 60.0885 320.904 59.0724 320.318 58.0079C319.786 56.9433 318.854 56.024 317.522 55.2498C316.191 54.4756 314.487 54.0885 312.409 54.0885C309.853 54.0885 307.802 54.6692 306.258 55.8304C304.713 56.9433 303.941 58.4192 303.941 60.2579C303.941 61.7579 304.554 62.9917 305.779 63.9595C307.003 64.9272 308.548 65.5563 310.412 65.8466L316.404 66.7175C319.919 67.2498 322.875 68.3627 325.272 70.0563C327.668 71.7014 328.867 74.145 328.867 77.3869C328.867 79.7095 328.174 81.7417 326.79 83.4837C325.458 85.2256 323.594 86.5804 321.197 87.5482C318.801 88.5159 316.111 88.9998 313.128 88.9998Z" fill="white"/>
<path d="M356.356 88.9998C351.989 88.9998 348.287 88.0563 345.252 86.1692C342.269 84.2821 340.059 81.8385 338.621 78.8385C337.183 75.7901 336.464 72.5482 336.464 69.1127C336.464 65.6772 337.183 62.4595 338.621 59.4595C340.059 56.4111 342.269 53.9433 345.252 52.0563C348.287 50.1692 351.989 49.2256 356.356 49.2256C361.789 49.2256 366.05 50.653 369.139 53.5079C372.281 56.3627 374.172 59.8708 374.811 64.0321H368.1C367.621 61.2256 366.396 58.9514 364.425 57.2095C362.455 55.4192 359.792 54.524 356.436 54.524C352.175 54.524 348.927 55.9272 346.69 58.7337C344.506 61.4917 343.414 64.9514 343.414 69.1127C343.414 73.274 344.506 76.7579 346.69 79.5643C348.927 82.3224 352.175 83.7014 356.436 83.7014C359.792 83.7014 362.455 82.8304 364.425 81.0885C366.396 79.3466 367.621 77.0482 368.1 74.1933H374.811C374.172 78.3546 372.281 81.8627 369.139 84.7175C366.05 87.5724 361.789 88.9998 356.356 88.9998Z" fill="white"/>
<path d="M399.83 88.9998C396.102 88.9998 392.906 88.1288 390.243 86.3869C387.634 84.645 385.636 82.274 384.252 79.274C382.867 76.274 382.175 72.8869 382.175 69.1127C382.175 65.3385 382.867 61.9514 384.252 58.9514C385.69 55.903 387.74 53.5321 390.403 51.8385C393.119 50.0966 396.342 49.2256 400.07 49.2256C403.798 49.2256 406.807 50.024 409.097 51.6208C411.388 53.2175 413.119 55.1288 414.29 57.3546H414.849V50.2417H421.8V88.4917H414.849V80.653H414.29C413.012 82.9272 411.201 84.8869 408.858 86.5321C406.514 88.1772 403.505 88.9998 399.83 88.9998ZM401.987 83.6288C406.088 83.6288 409.231 82.2498 411.414 79.4917C413.598 76.6853 414.69 73.2256 414.69 69.1127C414.69 64.9998 413.598 61.5643 411.414 58.8063C409.231 55.9998 406.088 54.5966 401.987 54.5966C397.78 54.5966 394.584 55.9756 392.4 58.7337C390.27 61.4917 389.205 64.9272 389.205 69.0401C389.205 73.2014 390.27 76.6853 392.4 79.4917C394.584 82.2498 397.78 83.6288 401.987 83.6288Z" fill="white"/>
<path d="M433.953 50.2417H440.823V57.1369H441.462C442.527 54.9111 444.258 53.0482 446.655 51.5482C449.052 49.9998 451.981 49.2256 455.443 49.2256C459.011 49.2256 461.994 49.9998 464.391 51.5482C466.787 53.0482 468.545 55.0563 469.663 57.5724C470.835 60.0401 471.421 62.7256 471.421 65.6288V88.4917H464.55V66.4272C464.55 62.653 463.459 59.774 461.275 57.7901C459.144 55.8063 456.348 54.8143 452.886 54.8143C449.212 54.8143 446.282 55.903 444.099 58.0804C441.915 60.2095 440.823 62.9917 440.823 66.4272V88.4917H433.953V50.2417Z" fill="white"/>
</svg>
