<svg width="82" height="82" viewBox="0 0 82 82" fill="none" xmlns="http://www.w3.org/2000/svg">
  <circle cx="41" cy="41" r="41" fill="#3B3BFC" />
  <g clip-path="url(#clip0_103_624)">
    <path
      d="M50.094 28.5282C51.8894 26.9506 52.7738 25.3843 53.3201 23.0521C53.8665 20.7199 53.6745 18.2706 52.7706 16.0428C51.8667 13.8149 50.2956 11.9185 48.2744 10.6155C46.2532 9.31254 43.8818 8.66738 41.4877 8.7692C39.0936 8.87102 36.7951 9.71477 34.9099 11.1839C33.0247 12.653 31.6458 14.6749 30.9638 16.9702C30.2819 19.2655 30.3304 21.7209 31.1028 23.997C31.6488 25.86 33.0299 28.6801 35.2952 30.6887L39.9611 27.8892C38.8543 27.0808 36.2543 23.7201 35.8141 22.4231C35.374 21.1261 35.3463 19.7269 35.7349 18.419C36.1235 17.111 36.9093 15.9589 37.9835 15.1217C39.0578 14.2846 40.3676 13.8038 41.7318 13.7458C43.096 13.6877 44.4474 14.0554 45.5991 14.7979C46.7509 15.5403 47.6462 16.621 48.1612 17.8905C48.6763 19.16 48.7857 20.5557 48.4744 21.8847C48.1631 23.2137 47.8104 24.7888 46.7874 25.6878L50.094 28.5282Z"
      fill="#FAFAFA" />
    <path d="M38.5608 26.4883L35.2947 30.6876L49.1056 44.4052L52.4651 40.2644L38.5608 26.4883Z"
      fill="#FAFAFA" />
    <path
      d="M52.2784 40.1133L49.1057 44.4059C52.1851 47.1121 54.7735 52.3359 54.5953 56.3505L58.8107 51.3114C59.0467 49.4792 54.2224 41.5637 52.2784 40.1133Z"
      fill="#FAFAFA" />
    <path
      d="M32.0757 53.4718C30.2803 55.0494 29.3959 56.6157 28.8495 58.9479C28.3032 61.2801 28.4952 63.7294 29.3991 65.9572C30.303 68.1851 31.874 70.0815 33.8952 71.3845C35.9164 72.6875 38.2879 73.3326 40.682 73.2308C43.0761 73.129 45.3745 72.2852 47.2598 70.8161C49.145 69.347 50.5238 67.3251 51.2058 65.0298C51.8878 62.7345 51.8393 60.2791 51.0669 58.003C50.5209 56.14 49.1398 53.3199 46.8745 51.3113L42.2086 54.1108C43.3154 54.9192 45.9154 58.2799 46.3556 59.5769C46.7957 60.8739 46.8234 62.2731 46.4348 63.581C46.0461 64.889 45.2604 66.0411 44.1861 66.8783C43.1119 67.7154 41.8021 68.1962 40.4379 68.2542C39.0736 68.3123 37.7223 67.9446 36.5705 67.2021C35.4188 66.4597 34.5235 65.379 34.0085 64.1095C33.4934 62.84 33.384 61.4443 33.6953 60.1153C34.0066 58.7863 34.3593 57.2112 35.3823 56.3122L32.0757 53.4718Z"
      fill="#FAFAFA" />
    <path d="M43.6089 55.5117L46.875 51.3124L33.064 37.5948L29.7046 41.7356L43.6089 55.5117Z"
      fill="#FAFAFA" />
    <path
      d="M29.7979 41.791L33.064 37.5917C29.9846 34.8855 27.3962 29.6617 27.5744 25.6471L23.359 30.6863C23.1229 32.5185 27.8539 40.3406 29.7979 41.791Z"
      fill="#FAFAFA" />
    <path
      d="M57.9723 24.4375C58.4744 28.0248 56.5726 31.8096 54.5196 33.3026L57.7857 36.1022C60.2974 33.0204 61.4349 30.9712 62.4516 27.1437L57.9723 24.4375Z"
      fill="#FAFAFA" />
    <path
      d="M24.4711 56.2568C23.969 52.6696 25.8708 48.8848 27.9238 47.3917L24.6577 44.5922C22.146 47.6739 21.0085 49.7232 19.9919 53.5506L24.4711 56.2568Z"
      fill="#FAFAFA" />
  </g>
  <defs>
    <clipPath id="clip0_103_624">
      <rect width="82" height="73.8" fill="white" transform="translate(0 4)" />
    </clipPath>
  </defs>
</svg>
  