<svg width="31" height="44" viewBox="0 0 31 44" fill="none" xmlns="http://www.w3.org/2000/svg">
<path d="M15.4595 0L0 8.92699V34.5461C0 34.9676 0.226741 35.3606 0.590956 35.5695L3.56984 37.2905C3.93405 37.5012 4.38664 37.5012 4.75086 37.2905C5.11507 37.0797 5.34092 36.6877 5.34092 36.267V12.0241L15.4568 6.17191L25.5254 12.0411V36.3912L23.6115 37.4977L23.6454 13.1708L15.4568 8.44117L7.30661 13.1717V38.7622C7.30661 39.1829 7.53246 39.5758 7.89667 39.7857C8.07878 39.891 8.2832 39.9437 8.48763 39.9437C8.69205 39.9437 8.89647 39.891 9.07858 39.7857L12.0575 38.0647C12.4217 37.854 12.6484 37.4619 12.6484 37.0413V16.2384L15.4586 14.6301L18.267 16.2384L18.2741 19.967V36.8547C18.2741 37.3208 18.6517 37.6986 19.1177 37.6986C19.5837 37.6986 19.9613 37.3208 19.9613 36.8547V19.9652L19.9523 15.2588L15.4577 12.6859L10.9604 15.2597V36.7493L8.99378 37.8852V14.1433L15.4586 10.3916L21.9564 14.1442L21.9225 38.3728C21.9216 38.7944 22.1475 39.1873 22.5126 39.3981C22.8768 39.6088 23.3303 39.6097 23.6954 39.3981L26.6243 37.7048C26.9876 37.4941 27.2134 37.102 27.2134 36.6823V11.0703L15.4604 4.21969L3.65375 11.0498V35.3891L1.68806 34.2532V9.90221L15.4595 1.94954L29.2309 9.904V35.415C29.2309 35.8812 29.6085 36.259 30.0745 36.259C30.5405 36.259 30.9181 35.8812 30.9181 35.415V8.92878L15.4595 0Z" fill="white"/>
<path d="M19.2909 40.1786L16.2781 38.4041V29.0011L16.9628 28.6037C17.119 28.5135 17.2154 28.3465 17.2154 28.1652V25.8085C17.2154 25.5486 16.9333 25.386 16.7083 25.5164L16.2781 25.7665V24.8082L16.9628 24.4108C17.119 24.3206 17.2154 24.1536 17.2154 23.9723V21.6156C17.2154 21.3557 16.9333 21.1931 16.7083 21.3235L16.2781 21.5736V20.6153L16.9628 20.2179C17.119 20.1277 17.2154 19.9607 17.2154 19.7794V17.4227C17.2154 17.1628 16.9333 17.0002 16.7083 17.1306L15.4434 17.8647L14.9283 18.163C14.7194 18.2836 14.5909 18.5068 14.5909 18.7479V38.4086L11.6165 40.2001C11.3103 40.384 11.1228 40.7198 11.1264 41.077C11.13 41.4343 11.3237 41.7665 11.6325 41.9451L14.9533 43.8625C15.1104 43.9536 15.2863 43.9991 15.4613 43.9991C15.6362 43.9991 15.8139 43.9527 15.9701 43.8616L19.2882 41.9263C19.5971 41.7459 19.7899 41.4119 19.7908 41.0538C19.7917 40.6957 19.6006 40.3608 19.2918 40.1777L19.2909 40.1786ZM15.4577 42.2059L13.467 41.0565L15.4389 39.8687L17.4421 41.0485L15.4577 42.2059Z" fill="white"/>
</svg>