<svg width="40" height="36" viewBox="0 0 40 36" fill="none" xmlns="http://www.w3.org/2000/svg">
  <path d="M25.6442 11.9326C26.5176 11.1651 26.9479 10.4031 27.2137 9.26854C27.4794 8.13396 27.386 6.94243 26.9463 5.85862C26.5066 4.7748 25.7423 3.85221 24.759 3.21833C23.7757 2.58446 22.622 2.2706 21.4573 2.32014C20.2927 2.36967 19.1745 2.78014 18.2574 3.49484C17.3403 4.20953 16.6695 5.19316 16.3377 6.30978C16.0059 7.42641 16.0295 8.62091 16.4053 9.7282C16.6709 10.6345 17.3428 12.0065 18.4448 12.9836L20.7147 11.6217C20.1762 11.2285 18.9114 9.59352 18.6973 8.96254C18.4831 8.33156 18.4697 7.6509 18.6587 7.0146C18.8478 6.3783 19.23 5.8178 19.7526 5.41054C20.2753 5.00328 20.9124 4.76937 21.5761 4.74115C22.2398 4.71292 22.8972 4.89177 23.4575 5.25298C24.0178 5.61418 24.4534 6.13991 24.7039 6.75751C24.9545 7.37511 25.0077 8.05408 24.8563 8.70061C24.7048 9.34714 24.5333 10.1134 24.0356 10.5508L25.6442 11.9326Z" fill="#3B3BFC"/>
  <path d="M20.0332 10.9408L18.4443 12.9837L25.1631 19.6571L26.7974 17.6427L20.0332 10.9408Z" fill="#3B3BFC"/>
  <path d="M26.7068 17.5688L25.1633 19.6571C26.6614 20.9736 27.9206 23.5149 27.8339 25.4679L29.8847 23.0165C29.9995 22.1251 27.6526 18.2744 26.7068 17.5688Z" fill="#3B3BFC"/>
  <path d="M16.8785 24.0674C16.0051 24.8349 15.5748 25.5969 15.3091 26.7315C15.0433 27.866 15.1367 29.0576 15.5764 30.1414C16.0161 31.2252 16.7804 32.1478 17.7637 32.7817C18.747 33.4155 19.9007 33.7294 21.0654 33.6799C22.23 33.6303 23.3482 33.2199 24.2653 32.5052C25.1824 31.7905 25.8532 30.8068 26.185 29.6902C26.5168 28.5736 26.4932 27.3791 26.1174 26.2718C25.8518 25.3655 25.1799 23.9935 24.0779 23.0164L21.808 24.3783C22.3465 24.7715 23.6113 26.4065 23.8254 27.0375C24.0396 27.6684 24.053 28.3491 23.864 28.9854C23.6749 29.6217 23.2927 30.1822 22.7701 30.5895C22.2474 30.9967 21.6103 31.2306 20.9466 31.2589C20.2829 31.2871 19.6255 31.1082 19.0652 30.747C18.5049 30.3858 18.0694 29.8601 17.8188 29.2425C17.5682 28.6249 17.515 27.9459 17.6664 27.2994C17.8179 26.6529 17.9894 25.8866 18.4871 25.4492L16.8785 24.0674Z" fill="#3B3BFC"/>
  <path d="M22.4895 25.0592L24.0784 23.0163L17.3596 16.3429L15.7253 18.3573L22.4895 25.0592Z" fill="#3B3BFC"/>
  <path d="M15.7705 18.3859L17.3594 16.343C15.8613 15.0265 14.6021 12.4852 14.6888 10.5321L12.6381 12.9836C12.5232 13.8749 14.8248 17.6803 15.7705 18.3859Z" fill="#3B3BFC"/>
  <path d="M29.4768 9.94214C29.7211 11.6873 28.7959 13.5285 27.7971 14.2549L29.386 15.6168C30.6079 14.1176 31.1613 13.1207 31.6559 11.2587L29.4768 9.94214Z" fill="#3B3BFC"/>
  <path d="M13.1792 25.4225C12.9349 23.6774 13.8601 21.8362 14.8589 21.1098L13.27 19.7479C12.0481 21.2471 11.4947 22.244 11.0001 24.106L13.1792 25.4225Z" fill="#3B3BFC"/>
  </svg>
  