<svg width="66" height="109" viewBox="0 0 66 109" fill="none" xmlns="http://www.w3.org/2000/svg">
<path d="M46.512 33.1271C49.2541 30.4835 50.605 27.8588 51.4395 23.9509C52.2737 20.0429 51.9805 15.9387 50.6 12.2056C49.2195 8.4725 46.82 5.2946 43.7328 3.1113C40.6457 0.927925 37.0235 -0.153145 33.3668 0.0174945C29.7105 0.188095 26.1998 1.60193 23.3205 4.0637C20.4412 6.5254 18.3351 9.9135 17.2934 13.7596C16.2517 17.6058 16.3258 21.7202 17.5056 25.5342C18.3395 28.6559 20.449 33.3816 23.9088 36.7472L31.0354 32.0562C29.3447 30.7019 25.3737 25.0703 24.7016 22.8969C24.0291 20.7235 23.987 18.379 24.5804 16.1873C25.1741 13.9956 26.374 12.065 28.0148 10.6622C29.6559 9.2594 31.656 8.4538 33.7398 8.3565C35.8236 8.2593 37.8875 8.8754 39.6466 10.1195C41.4057 11.3637 42.7734 13.1745 43.5598 15.3018C44.3465 17.4291 44.5137 19.7678 44.0383 21.9947C43.5626 24.2216 43.0242 26.861 41.4616 28.3676L46.512 33.1271Z" fill="#DA6C1D"/>
<path d="M28.8957 29.7109L23.9072 36.7475L45.0015 59.7337L50.1325 52.7952L28.8957 29.7109Z" fill="#DA6C1D"/>
<path d="M49.8479 52.54L45.002 59.7331C49.7054 64.2677 53.6588 73.0211 53.3865 79.7481L59.8251 71.3044C60.1853 68.234 52.8174 54.9704 49.8479 52.54Z" fill="#DA6C1D"/>
<path d="M18.9916 74.9248C16.2495 77.5684 14.8985 80.1931 14.0643 84.1012C13.2298 88.0089 13.5231 92.113 14.9036 95.846C16.284 99.58 18.6836 102.757 21.7708 104.941C24.8579 107.124 28.48 108.205 32.1367 108.035C35.793 107.864 39.3038 106.45 42.1831 103.988C45.0623 101.527 47.1684 98.138 48.2101 94.292C49.2518 90.4462 49.1777 86.3318 47.9979 82.5178C47.164 79.3961 45.0546 74.6703 41.5947 71.3047L34.4682 75.9957C36.1589 77.3501 40.1298 82.9817 40.802 85.1552C41.4744 87.3283 41.5165 89.6729 40.9231 91.8646C40.3294 94.056 39.1295 95.987 37.4888 97.39C35.8476 98.793 33.8475 99.598 31.7637 99.696C29.68 99.793 27.616 99.177 25.8569 97.932C24.0978 96.688 22.7305 94.878 21.9437 92.75C21.157 90.6229 20.9899 88.2841 21.4652 86.0573C21.9409 83.8304 22.4793 81.191 24.0419 79.6844L18.9916 74.9248Z" fill="#DA6C1D"/>
<path d="M36.6074 78.3412L41.5959 71.3046L20.5016 48.3184L15.3706 55.2569L36.6074 78.3412Z" fill="#DA6C1D"/>
<path d="M15.5129 55.3547L20.5014 48.3181C15.798 43.7835 11.8447 35.0301 12.1169 28.3027L5.67856 36.7468C5.31776 39.8168 12.5438 52.9243 15.5129 55.3547Z" fill="#DA6C1D"/>
<path d="M58.545 26.2715C59.3122 32.2826 56.4073 38.6245 53.2715 41.1266L58.2599 45.8176C62.0961 40.6537 63.8332 37.2199 65.3861 30.8063L58.545 26.2715Z" fill="#DA6C1D"/>
<path d="M7.37715 79.5928C6.61015 73.5819 9.51495 67.2399 12.6507 64.7379L7.66225 60.0469C3.82595 65.2108 2.08854 68.6446 0.535645 75.0581L7.37715 79.5928Z" fill="#DA6C1D"/>
</svg>
