<svg width="506" height="124" viewBox="0 0 506 124" fill="none" xmlns="http://www.w3.org/2000/svg">
<path d="M80.512 41.1271C83.2541 38.4835 84.605 35.8588 85.4395 31.9509C86.2737 28.0429 85.9805 23.9387 84.6 20.2056C83.2195 16.4725 80.82 13.2946 77.7328 11.1113C74.6457 8.92792 71.0235 7.84685 67.3668 8.01749C63.7105 8.18809 60.1998 9.60193 57.3205 12.0637C54.4412 14.5254 52.3351 17.9135 51.2934 21.7596C50.2517 25.6058 50.3258 29.7202 51.5056 33.5342C52.3395 36.6559 54.449 41.3816 57.9088 44.7472L65.0354 40.0562C63.3447 38.7019 59.3737 33.0703 58.7016 30.8969C58.0291 28.7235 57.987 26.379 58.5804 24.1873C59.1741 21.9956 60.374 20.065 62.0148 18.6622C63.6559 17.2594 65.656 16.4538 67.7398 16.3565C69.8236 16.2593 71.8875 16.8754 73.6466 18.1195C75.4057 19.3637 76.7734 21.1745 77.5598 23.3018C78.3465 25.4291 78.5137 27.7678 78.0383 29.9947C77.5626 32.2216 77.0242 34.861 75.4616 36.3676L80.512 41.1271Z" fill="#3B3BFC"/>
<path d="M62.8957 37.7109L57.9072 44.7475L79.0015 67.7337L84.1325 60.7952L62.8957 37.7109Z" fill="#3B3BFC"/>
<path d="M83.8479 60.5405L79.002 67.7336C83.7054 72.2682 87.6588 81.0216 87.3865 87.7486L93.8251 79.3049C94.1853 76.2345 86.8174 62.9709 83.8479 60.5405Z" fill="#3B3BFC"/>
<path d="M52.9916 82.9248C50.2495 85.5684 48.8985 88.1931 48.0643 92.1012C47.2298 96.0089 47.5231 100.113 48.9036 103.846C50.284 107.58 52.6836 110.757 55.7708 112.941C58.8579 115.124 62.48 116.205 66.1367 116.035C69.793 115.864 73.3038 114.45 76.1831 111.988C79.0623 109.527 81.1684 106.138 82.2101 102.292C83.2518 98.4462 83.1777 94.3318 81.9979 90.5178C81.164 87.3961 79.0546 82.6703 75.5947 79.3047L68.4682 83.9957C70.1589 85.3501 74.1298 90.9817 74.802 93.1552C75.4744 95.3283 75.5165 97.6729 74.9231 99.8646C74.3294 102.056 73.1295 103.987 71.4888 105.39C69.8476 106.793 67.8475 107.598 65.7637 107.696C63.68 107.793 61.616 107.177 59.8569 105.932C58.0978 104.688 56.7305 102.878 55.9437 100.75C55.157 98.6229 54.9899 96.2841 55.4652 94.0573C55.9409 91.8304 56.4793 89.191 58.0419 87.6844L52.9916 82.9248Z" fill="#3B3BFC"/>
<path d="M70.6074 86.3409L75.5959 79.3043L54.5016 56.3181L49.3706 63.2566L70.6074 86.3409Z" fill="#3B3BFC"/>
<path d="M49.5129 63.3552L54.5014 56.3186C49.798 51.784 45.8447 43.0306 46.1169 36.3032L39.6786 44.7473C39.3178 47.8173 46.5438 60.9248 49.5129 63.3552Z" fill="#3B3BFC"/>
<path d="M92.545 34.271C93.3122 40.2821 90.4073 46.624 87.2715 49.1261L92.2599 53.8171C96.0961 48.6532 97.8332 45.2194 99.3861 38.8058L92.545 34.271Z" fill="#3B3BFC"/>
<path d="M41.3771 87.5923C40.6101 81.5814 43.5149 75.2394 46.6507 72.7374L41.6622 68.0464C37.8259 73.2103 36.0885 76.6441 34.5356 83.0576L41.3771 87.5923Z" fill="#3B3BFC"/>
<path d="M124.421 37.6855H131.451L148.388 82.1774H148.867L165.804 37.6855H172.754L153.421 88.4919H143.834L124.421 37.6855Z" fill="#19254A"/>
<path d="M180.409 50.2419H187.279V88.4919H180.409V50.2419ZM183.764 43.129C182.486 43.129 181.421 42.7419 180.569 41.9677C179.716 41.1452 179.29 40.1774 179.29 39.0645C179.29 37.9516 179.716 37.0081 180.569 36.2339C181.421 35.4113 182.486 35 183.764 35C185.042 35 186.108 35.4113 186.96 36.2339C187.865 37.0081 188.318 37.9516 188.318 39.0645C188.318 40.1774 187.865 41.1452 186.96 41.9677C186.108 42.7419 185.042 43.129 183.764 43.129Z" fill="#19254A"/>
<path d="M200.056 50.2419H206.927V57.1371H207.566C208.631 54.9113 210.362 53.0484 212.759 51.5484C215.155 50 218.085 49.2258 221.546 49.2258C225.115 49.2258 228.097 50 230.494 51.5484C232.891 53.0484 234.648 55.0565 235.767 57.5726C236.939 60.0403 237.524 62.7258 237.524 65.629V88.4919H230.654V66.4274C230.654 62.6532 229.562 59.7742 227.378 57.7903C225.248 55.8065 222.452 54.8145 218.99 54.8145C215.315 54.8145 212.386 55.9032 210.202 58.0806C208.018 60.2097 206.927 62.9919 206.927 66.4274V88.4919H200.056V50.2419Z" fill="#19254A"/>
<path d="M264.626 89C260.898 89 257.702 88.129 255.039 86.3871C252.429 84.6452 250.432 82.2742 249.047 79.2742C247.663 76.2742 246.97 72.8871 246.97 69.1129C246.97 65.3387 247.663 61.9516 249.047 58.9516C250.485 55.9032 252.536 53.5323 255.199 51.8387C257.915 50.0968 261.137 49.2258 264.866 49.2258C268.594 49.2258 271.603 50.0242 273.893 51.621C276.183 53.2177 277.914 55.129 279.086 57.3548H279.645V50.2419H286.596V88.4919H279.645V80.6532H279.086C277.808 82.9274 275.997 84.8871 273.653 86.5323C271.31 88.1774 268.301 89 264.626 89ZM266.783 83.629C270.884 83.629 274.026 82.25 276.21 79.4919C278.394 76.6855 279.485 73.2258 279.485 69.1129C279.485 65 278.394 61.5645 276.21 58.8065C274.026 56 270.884 54.5968 266.783 54.5968C262.575 54.5968 259.38 55.9758 257.196 58.7339C255.066 61.4919 254 64.9274 254 69.0403C254 73.2016 255.066 76.6855 257.196 79.4919C259.38 82.25 262.575 83.629 266.783 83.629Z" fill="#19254A"/>
<path d="M313.128 89C309.72 89 306.764 88.3952 304.261 87.1855C301.757 85.9274 299.84 84.3306 298.509 82.3952C297.23 80.4597 296.591 78.4274 296.591 76.2984V75.9355H303.462V76.2258C303.462 77.4355 303.835 78.6452 304.58 79.8548C305.326 81.0161 306.444 81.9839 307.936 82.7581C309.427 83.4839 311.238 83.8468 313.368 83.8468C315.925 83.8468 318.028 83.2903 319.679 82.1774C321.384 81.0161 322.236 79.4435 322.236 77.4597C322.236 75.8145 321.57 74.5081 320.239 73.5403C318.96 72.5726 317.336 71.9435 315.365 71.6532L309.853 70.9274C306.391 70.4435 303.488 69.379 301.145 67.7339C298.801 66.0403 297.63 63.5968 297.63 60.4032C297.63 56.871 299.014 54.1371 301.784 52.2016C304.607 50.2177 308.202 49.2258 312.569 49.2258C315.818 49.2258 318.588 49.7823 320.878 50.8952C323.221 51.9597 325.005 53.3871 326.23 55.1774C327.455 56.9194 328.068 58.8306 328.068 60.9113V61.2016H321.197V61.0565C321.197 60.0887 320.904 59.0726 320.318 58.0081C319.786 56.9435 318.854 56.0242 317.522 55.25C316.191 54.4758 314.487 54.0887 312.409 54.0887C309.853 54.0887 307.802 54.6694 306.258 55.8306C304.713 56.9435 303.941 58.4194 303.941 60.2581C303.941 61.7581 304.554 62.9919 305.779 63.9597C307.003 64.9274 308.548 65.5565 310.412 65.8468L316.404 66.7177C319.919 67.25 322.875 68.3629 325.272 70.0565C327.668 71.7016 328.867 74.1452 328.867 77.3871C328.867 79.7097 328.174 81.7419 326.79 83.4839C325.458 85.2258 323.594 86.5806 321.197 87.5484C318.801 88.5161 316.111 89 313.128 89Z" fill="#19254A"/>
<path d="M356.356 89C351.989 89 348.287 88.0565 345.252 86.1694C342.269 84.2823 340.059 81.8387 338.621 78.8387C337.183 75.7903 336.464 72.5484 336.464 69.1129C336.464 65.6774 337.183 62.4597 338.621 59.4597C340.059 56.4113 342.269 53.9435 345.252 52.0565C348.287 50.1694 351.989 49.2258 356.356 49.2258C361.789 49.2258 366.05 50.6532 369.139 53.5081C372.281 56.3629 374.172 59.871 374.811 64.0323H368.1C367.621 61.2258 366.396 58.9516 364.425 57.2097C362.455 55.4194 359.792 54.5242 356.436 54.5242C352.175 54.5242 348.927 55.9274 346.69 58.7339C344.506 61.4919 343.414 64.9516 343.414 69.1129C343.414 73.2742 344.506 76.7581 346.69 79.5645C348.927 82.3226 352.175 83.7016 356.436 83.7016C359.792 83.7016 362.455 82.8306 364.425 81.0887C366.396 79.3468 367.621 77.0484 368.1 74.1935H374.811C374.172 78.3548 372.281 81.8629 369.139 84.7177C366.05 87.5726 361.789 89 356.356 89Z" fill="#19254A"/>
<path d="M399.83 89C396.102 89 392.906 88.129 390.243 86.3871C387.634 84.6452 385.636 82.2742 384.252 79.2742C382.867 76.2742 382.175 72.8871 382.175 69.1129C382.175 65.3387 382.867 61.9516 384.252 58.9516C385.69 55.9032 387.74 53.5323 390.403 51.8387C393.119 50.0968 396.342 49.2258 400.07 49.2258C403.798 49.2258 406.807 50.0242 409.097 51.621C411.388 53.2177 413.119 55.129 414.29 57.3548H414.849V50.2419H421.8V88.4919H414.849V80.6532H414.29C413.012 82.9274 411.201 84.8871 408.858 86.5323C406.514 88.1774 403.505 89 399.83 89ZM401.987 83.629C406.088 83.629 409.231 82.25 411.414 79.4919C413.598 76.6855 414.69 73.2258 414.69 69.1129C414.69 65 413.598 61.5645 411.414 58.8065C409.231 56 406.088 54.5968 401.987 54.5968C397.78 54.5968 394.584 55.9758 392.4 58.7339C390.27 61.4919 389.205 64.9274 389.205 69.0403C389.205 73.2016 390.27 76.6855 392.4 79.4919C394.584 82.25 397.78 83.629 401.987 83.629Z" fill="#19254A"/>
<path d="M433.953 50.2419H440.823V57.1371H441.462C442.527 54.9113 444.258 53.0484 446.655 51.5484C449.052 50 451.981 49.2258 455.443 49.2258C459.011 49.2258 461.994 50 464.391 51.5484C466.787 53.0484 468.545 55.0565 469.663 57.5726C470.835 60.0403 471.421 62.7258 471.421 65.629V88.4919H464.55V66.4274C464.55 62.6532 463.459 59.7742 461.275 57.7903C459.144 55.8065 456.348 54.8145 452.886 54.8145C449.212 54.8145 446.282 55.9032 444.099 58.0806C441.915 60.2097 440.823 62.9919 440.823 66.4274V88.4919H433.953V50.2419Z" fill="#19254A"/>
</svg>
