<svg width="44" height="44" viewBox="0 0 44 44" fill="none" xmlns="http://www.w3.org/2000/svg">
<g clipPath="url(#clip0_1_4)">
<path d="M22 44C34.1503 44 44 34.1503 44 22C44 9.84973 34.1503 0 22 0C9.84973 0 0 9.84973 0 22C0 34.1503 9.84973 44 22 44Z" fill="#F0B90B"/>
<path d="M13.7954 22L10.4294 25.3894L7.03998 22L10.4294 18.6107L13.7954 22ZM22 13.7954L27.797 19.5924L31.1864 16.203L25.3894 10.4294L22 7.04004L18.6106 10.4294L12.837 16.203L16.2264 19.5924L22 13.7954ZM33.5706 18.6107L30.2046 22L33.594 25.3894L36.96 22L33.5706 18.6107ZM22 30.2047L16.203 24.4077L12.837 27.797L18.634 33.594L22 36.96L25.3894 33.5707L31.1864 27.7737L27.797 24.4077L22 30.2047ZM22 25.3894L25.3894 22L22 18.6107L18.6106 22L22 25.3894Z" fill="white"/>
</g>
<defs>
<clipPath id="clip0_1_4">
<rect width="44" height="44" rx="22" fill="white"/>
</clipPath>
</defs>
</svg>
