<svg width="350" height="350" viewBox="0 0 350 350" fill="none" xmlns="http://www.w3.org/2000/svg">
<path d="M121.109 59.0087V136.122C92.74 137.421 63.5232 136.633 34 133.749V59.0087C34.0001 58.6135 34.0782 58.2221 34.2295 57.857C34.3809 57.4919 34.6028 57.1602 34.8824 56.8808C35.162 56.6014 35.4938 56.3798 35.8591 56.2287C36.2243 56.0775 36.6157 55.9999 37.011 56H118.1C118.898 56 119.664 56.317 120.228 56.8812C120.792 57.4455 121.109 58.2108 121.109 59.0087Z" fill="#404041"/>
<path d="M109.271 143.67C113.236 143.57 117.182 143.432 121.109 143.255V291.918C121.109 292.716 120.792 293.482 120.228 294.046C119.664 294.61 118.898 294.927 118.1 294.927H37.011C36.2128 294.927 35.4473 294.61 34.8827 294.046C34.3181 293.482 34.0006 292.717 34 291.918V140.957C54.1263 142.89 74.2232 143.861 94.1291 143.861C99.1888 143.861 104.236 143.797 109.271 143.67Z" fill="#00A551"/>
<path d="M218.278 59.0087V122.686C214.686 123.568 211.044 124.41 207.353 125.211C183.052 130.492 157.509 133.959 131.168 135.609V59.0087C131.168 58.6133 131.246 58.2218 131.398 57.8565C131.549 57.4913 131.771 57.1595 132.051 56.88C132.331 56.6006 132.663 56.3791 133.028 56.2281C133.394 56.077 133.785 55.9996 134.181 56H215.27C215.665 56 216.056 56.0778 216.421 56.229C216.786 56.3803 217.118 56.6019 217.397 56.8813C217.676 57.1607 217.898 57.4924 218.049 57.8574C218.2 58.2224 218.278 58.6137 218.278 59.0087Z" fill="#404041"/>
<path d="M208.88 132.236C212.044 131.548 215.177 130.833 218.278 130.089V291.919C218.278 292.314 218.2 292.705 218.049 293.07C217.898 293.435 217.676 293.767 217.397 294.046C217.118 294.325 216.786 294.547 216.421 294.698C216.056 294.85 215.665 294.927 215.27 294.927H134.181C133.785 294.928 133.394 294.85 133.028 294.699C132.663 294.548 132.331 294.326 132.051 294.047C131.771 293.768 131.55 293.436 131.398 293.071C131.247 292.705 131.169 292.314 131.168 291.919V142.752C158.275 141.093 184.334 137.57 208.88 132.236Z" fill="#00A551"/>
<path d="M315.447 59.0087V81.8397C292.821 97.6993 263.129 110.826 228.338 120.239V59.0087C228.338 58.6134 228.416 58.222 228.567 57.8568C228.718 57.4916 228.94 57.1598 229.22 56.8804C229.5 56.601 229.831 56.3795 230.197 56.2284C230.562 56.0773 230.954 55.9997 231.349 56H312.438C312.834 55.9999 313.225 56.0776 313.59 56.2287C313.955 56.3799 314.287 56.6015 314.566 56.8809C314.846 57.1603 315.067 57.4921 315.218 57.8572C315.37 58.2223 315.447 58.6136 315.447 59.0087Z" fill="#404041"/>
<path d="M290.703 104.76C299.643 100.322 307.894 95.5965 315.455 90.5835V291.919C315.455 292.717 315.138 293.482 314.574 294.046C314.01 294.61 313.244 294.927 312.446 294.927H231.349C230.954 294.928 230.562 294.85 230.197 294.699C229.832 294.548 229.5 294.326 229.22 294.047C228.941 293.767 228.719 293.436 228.567 293.071C228.416 292.705 228.338 292.314 228.338 291.919V127.694C251.355 121.596 272.265 113.91 290.703 104.76Z" fill="#00A551"/>
<path d="M110.775 233.617C110.775 235.784 110.113 237.529 108.79 238.853C107.466 240.177 105.72 240.839 103.553 240.839C101.388 240.839 99.6425 240.177 98.3178 238.853C96.9932 237.529 96.3312 235.784 96.332 233.617V190.284C96.332 188.117 96.9939 186.372 98.3178 185.049C99.6417 183.726 101.387 183.064 103.553 183.062C105.719 183.062 107.465 183.724 108.79 185.049C110.114 186.374 110.776 188.119 110.775 190.284V233.617ZM89.1097 220.413C89.1097 222.289 88.3513 223.995 86.8345 225.532C85.3177 227.069 83.6223 227.838 81.7484 227.839C79.8707 227.839 78.1614 227.069 76.6205 225.529L46.6497 195.557C45.1081 194.016 44.3376 192.331 44.3384 190.501C44.3384 188.624 45.0953 186.914 46.609 185.373C48.1228 183.832 49.8182 183.062 51.6951 183.062C53.5691 183.062 55.2754 183.839 56.814 185.394L86.7859 215.366C88.3351 216.905 89.1097 218.588 89.1097 220.413Z" fill="#404041"/>
<path d="M207.54 211.994C207.54 214.135 206.875 215.86 205.543 217.168C204.212 218.476 202.499 219.129 200.406 219.129H170.445C168.304 219.129 166.58 218.475 165.273 217.168C163.965 215.86 163.311 214.136 163.31 211.994C163.31 209.855 163.964 208.131 165.273 206.822C166.581 205.514 168.305 204.86 170.445 204.86H189.706C192.084 204.86 193.273 203.671 193.273 201.293C193.273 198.915 192.084 197.726 189.706 197.726H170.445C168.304 197.726 166.58 197.073 165.273 195.765C163.965 194.458 163.311 192.734 163.31 190.592C163.31 188.453 163.964 186.729 165.273 185.42C166.581 184.111 168.305 183.457 170.445 183.458H200.407C202.548 183.458 204.272 184.112 205.579 185.42C206.887 186.728 207.541 188.452 207.542 190.592L207.54 211.994ZM156.175 233.397C156.175 235.538 155.521 237.262 154.213 238.57C152.905 239.878 151.181 240.532 149.041 240.532C146.9 240.532 145.176 239.878 143.868 238.57C142.56 237.262 141.906 235.538 141.907 233.397V190.592C141.907 188.453 142.561 186.729 143.868 185.42C145.175 184.111 146.9 183.457 149.041 183.458C151.18 183.458 152.904 184.112 154.213 185.42C155.522 186.728 156.176 188.452 156.175 190.592V233.397Z" fill="#404041"/>
<path d="M304.71 233.398C304.71 235.537 304.056 237.261 302.748 238.57C301.44 239.879 299.716 240.533 297.576 240.532H267.612C265.473 240.532 263.749 239.878 262.44 238.57C261.131 237.262 260.477 235.538 260.478 233.398C260.478 231.257 261.132 229.533 262.44 228.225C263.748 226.917 265.472 226.263 267.612 226.264H297.576C299.716 226.264 301.44 226.917 302.748 228.225C304.055 229.532 304.709 231.257 304.71 233.398ZM304.71 190.593C304.71 192.732 304.056 194.456 302.748 195.765C301.44 197.074 299.716 197.728 297.576 197.727H256.908C254.53 197.727 253.341 198.916 253.341 201.293V233.392C253.341 235.531 252.688 237.255 251.38 238.564C250.073 239.873 248.349 240.527 246.207 240.526C244.067 240.526 242.343 239.872 241.035 238.564C239.727 237.256 239.073 235.532 239.073 233.392V190.593C239.073 188.453 239.727 186.728 241.035 185.42C242.343 184.112 244.067 183.458 246.207 183.458H297.573C299.714 183.458 301.438 184.112 302.745 185.42C304.053 186.728 304.708 188.453 304.71 190.593Z" fill="#404041"/>
<path d="M111.386 234.749C111.386 236.914 110.724 238.659 109.4 239.984C108.076 241.309 106.33 241.971 104.163 241.97C101.997 241.97 100.252 241.308 98.927 239.984C97.6023 238.66 96.9404 236.915 96.9411 234.749V191.416C96.9411 189.249 97.6031 187.504 98.927 186.18C100.251 184.856 101.996 184.194 104.163 184.194C106.33 184.194 108.076 184.856 109.4 186.18C110.724 187.504 111.386 189.249 111.386 191.416V234.749ZM89.7189 221.544C89.7189 223.419 88.9608 225.126 87.4448 226.664C85.9288 228.202 84.2315 228.971 82.353 228.971C80.4746 228.971 78.7653 228.2 77.2251 226.659L47.2533 196.688C45.7116 195.147 44.9411 193.461 44.9419 191.632C44.9419 189.754 45.6988 188.045 47.2126 186.504C48.7263 184.963 50.4217 184.193 52.2987 184.194C54.1726 184.194 55.8793 184.971 57.4187 186.524L87.3906 216.496C88.942 218.036 89.7181 219.718 89.7189 221.544Z" fill="#A0A0A0"/>
<path d="M208.15 213.131C208.15 215.272 207.484 216.996 206.152 218.303C204.82 219.61 203.108 220.264 201.016 220.265H171.052C168.912 220.265 167.188 219.611 165.88 218.303C164.572 216.995 163.918 215.271 163.918 213.131C163.918 210.99 164.572 209.266 165.88 207.959C167.188 206.652 168.912 205.998 171.052 205.997H190.315C192.692 205.997 193.881 204.808 193.882 202.43C193.883 200.052 192.694 198.863 190.315 198.863H171.052C168.912 198.863 167.188 198.209 165.88 196.901C164.572 195.593 163.918 193.869 163.918 191.729C163.918 189.588 164.572 187.864 165.88 186.557C167.188 185.249 168.912 184.595 171.052 184.595H201.016C203.156 184.595 204.88 185.249 206.188 186.557C207.496 187.865 208.15 189.589 208.15 191.729V213.131ZM156.784 234.533C156.784 236.674 156.13 238.398 154.822 239.705C153.514 241.013 151.789 241.665 149.648 241.662C147.509 241.662 145.785 241.008 144.476 239.7C143.167 238.392 142.513 236.668 142.514 234.528V191.723C142.514 189.582 143.168 187.858 144.476 186.551C145.784 185.244 147.508 184.59 149.648 184.589C151.788 184.589 153.512 185.243 154.82 186.551C156.127 187.859 156.781 189.583 156.782 191.723L156.784 234.533Z" fill="#A0A0A0"/>
<path d="M305.319 234.528C305.319 236.668 304.665 238.392 303.358 239.7C302.051 241.007 300.326 241.661 298.185 241.662H268.222C266.081 241.662 264.357 241.008 263.05 239.7C261.743 238.392 261.089 236.668 261.09 234.528C261.09 232.387 261.744 230.663 263.052 229.356C264.36 228.048 266.084 227.394 268.224 227.394H298.187C300.328 227.394 302.052 228.048 303.36 229.356C304.668 230.664 305.321 232.388 305.319 234.528ZM305.319 191.723C305.319 193.862 304.665 195.586 303.358 196.895C302.051 198.204 300.326 198.858 298.185 198.857H257.521C255.141 198.857 253.952 200.046 253.954 202.424V234.523C253.954 236.664 253.3 238.388 251.992 239.695C250.684 241.002 248.96 241.656 246.82 241.657C244.679 241.657 242.955 241.003 241.648 239.695C240.34 238.387 239.686 236.663 239.686 234.523V191.723C239.686 189.582 240.34 187.858 241.648 186.551C242.956 185.244 244.68 184.59 246.82 184.589H298.185C300.325 184.589 302.05 185.243 303.358 186.551C304.666 187.859 305.32 189.583 305.319 191.723Z" fill="#A0A0A0"/>
<path d="M111.995 235.879C111.995 238.045 111.333 239.79 110.009 241.115C108.685 242.44 106.941 243.102 104.777 243.101C102.612 243.101 100.867 242.439 99.5421 241.115C98.2174 239.791 97.5555 238.046 97.5562 235.879V192.546C97.5562 190.379 98.2182 188.633 99.5421 187.31C100.866 185.986 102.611 185.325 104.777 185.327C106.944 185.327 108.69 185.989 110.014 187.313C111.338 188.637 112 190.382 112 192.549L111.995 235.879ZM90.3294 222.675C90.3294 224.55 89.571 226.257 88.0542 227.794C86.5374 229.331 84.8421 230.1 82.9681 230.101C81.0912 230.101 79.3819 229.33 77.8402 227.789L47.8695 197.819C46.3278 196.278 45.5574 194.593 45.5581 192.763C45.5581 190.885 46.315 189.175 47.8288 187.635C49.3425 186.095 51.0379 185.324 52.9149 185.324C54.7888 185.324 56.4951 186.101 58.0338 187.655L88.0056 217.627C89.5548 219.166 90.3294 220.848 90.3294 222.675Z" fill="white"/>
<path d="M208.76 214.262C208.76 216.403 208.094 218.127 206.763 219.434C205.431 220.741 203.719 221.395 201.626 221.396H171.663C169.522 221.396 167.798 220.742 166.491 219.434C165.184 218.126 164.53 216.402 164.529 214.262C164.529 212.123 165.183 210.399 166.491 209.09C167.799 207.781 169.523 207.127 171.663 207.128H190.925C193.303 207.128 194.492 205.939 194.492 203.561C194.492 201.183 193.303 199.994 190.925 199.994H171.663C169.522 199.994 167.798 199.34 166.491 198.031C165.184 196.723 164.53 194.999 164.529 192.859C164.529 190.72 165.183 188.996 166.491 187.687C167.799 186.379 169.523 185.725 171.663 185.725H201.626C203.766 185.725 205.49 186.379 206.798 187.687C208.105 188.996 208.759 190.72 208.76 192.859V214.262ZM157.395 235.664C157.395 237.805 156.741 239.529 155.433 240.837C154.125 242.145 152.401 242.799 150.261 242.798C148.12 242.798 146.396 242.145 145.087 240.837C143.779 239.53 143.126 237.806 143.126 235.664V192.854C143.126 190.714 143.78 188.99 145.087 187.682C146.395 186.374 148.119 185.72 150.261 185.72C152.4 185.72 154.124 186.374 155.433 187.682C156.741 188.99 157.395 190.714 157.395 192.854V235.664Z" fill="white"/>
<path d="M305.929 235.659C305.929 237.799 305.275 239.524 303.967 240.832C302.659 242.14 300.935 242.793 298.795 242.793H268.831C266.692 242.793 264.968 242.139 263.659 240.832C262.35 239.524 261.696 237.8 261.697 235.659C261.697 233.519 262.351 231.795 263.659 230.487C264.967 229.178 266.691 228.524 268.831 228.524H298.795C300.936 228.524 302.66 229.178 303.967 230.487C305.275 231.795 305.929 233.519 305.929 235.659ZM305.929 192.854C305.929 194.995 305.275 196.719 303.967 198.027C302.659 199.335 300.935 199.989 298.795 199.988H258.13C255.752 199.988 254.563 201.177 254.563 203.555V235.654C254.563 237.795 253.909 239.519 252.602 240.827C251.295 242.135 249.57 242.789 247.429 242.788C245.289 242.788 243.565 242.134 242.257 240.827C240.949 239.52 240.294 237.797 240.294 235.659V192.854C240.294 190.714 240.948 188.99 242.256 187.682C243.564 186.374 245.288 185.72 247.428 185.72H298.795C300.936 185.72 302.66 186.374 303.967 187.682C305.275 188.99 305.929 190.714 305.929 192.854Z" fill="white"/>
</svg>
