<svg width="44" height="44" viewBox="0 0 44 44" fill="none" xmlns="http://www.w3.org/2000/svg">
<g clipPath="url(#clip0_1_12)">
<path d="M22 44C34.1503 44 44 34.1503 44 22C44 9.84974 34.1503 0 22 0C9.84974 0 0 9.84974 0 22C0 34.1503 9.84974 44 22 44Z" fill="#233447"/>
<path d="M34.0795 10.2883L23.8159 17.8176L25.7242 13.3805L34.0795 10.2883Z" fill="#E17726" stroke="#E17726" strokeWidth="0.25" stroke-linecap="round" stroke-linejoin="round"/>
<path d="M10.4053 10.2883L20.5776 17.8881L18.7607 13.3805L10.4053 10.2883ZM30.3851 27.7471L27.6538 31.8828L33.5016 33.4789L35.1762 27.837L30.3851 27.7471ZM9.31906 27.837L10.9836 33.4789L16.8211 31.8828L14.1008 27.7464L9.31906 27.837Z" fill="#E27625" stroke="#E27625" strokeWidth="0.25" stroke-linecap="round" stroke-linejoin="round"/>
<path d="M16.5053 20.7592L14.8822 23.1882L20.669 23.4491L20.476 17.2743L16.5053 20.7592ZM27.9772 20.7592L23.9472 17.2053L23.8152 23.45L29.6019 23.1889L27.9772 20.7592ZM16.8203 31.8826L20.3228 30.206L17.3079 27.8771L16.8203 31.8826ZM24.1606 30.206L27.6529 31.8826L27.1762 27.8771L24.1606 30.206Z" fill="#E27625" stroke="#E27625" strokeWidth="0.25" stroke-linecap="round" stroke-linejoin="round"/>
<path d="M27.6538 31.8828L24.1606 30.2062L24.4457 32.4555L24.4145 33.4083L27.6538 31.8828ZM16.821 31.8828L20.0695 33.4092L20.0492 32.4555L20.3235 30.2062L16.821 31.8828Z" fill="#D5BFB2" stroke="#D5BFB2" strokeWidth="0.25" stroke-linecap="round" stroke-linejoin="round"/>
<path d="M20.1298 26.3914L17.2266 25.5484L19.2772 24.6147L20.1298 26.3914ZM24.3536 26.3914L25.2054 24.6147L27.2668 25.5484L24.3536 26.3914Z" fill="#233447" stroke="#233447" strokeWidth="0.25" stroke-linecap="round" stroke-linejoin="round"/>
<path d="M16.8209 31.8828L17.3289 27.7473L14.1006 27.837L16.8209 31.8828ZM27.1559 27.7473L27.6536 31.8828L30.384 27.837L27.1559 27.7473ZM29.6034 23.1884L23.8159 23.4502L24.3542 26.3914L25.2061 24.6147L27.2675 25.5484L29.6034 23.1884ZM17.2273 25.5484L19.2778 24.6147L20.1304 26.3914L20.6689 23.4502L14.8821 23.1891L17.2273 25.5484Z" fill="#CC6228" stroke="#CC6228" strokeWidth="0.25" stroke-linecap="round" stroke-linejoin="round"/>
<path d="M14.8822 23.1884L17.3087 27.8773L17.2274 25.5484L14.8822 23.1884ZM27.2677 25.5484L27.1764 27.8773L29.6028 23.1891L27.2677 25.5484ZM20.669 23.4502L20.1306 26.3914L20.8104 29.8654L20.9636 25.2866L20.669 23.4502ZM23.8159 23.4502L23.5314 25.2771L23.6738 29.8654L24.3536 26.3914L23.8159 23.4502Z" fill="#E27525" stroke="#E27525" strokeWidth="0.25" stroke-linecap="round" stroke-linejoin="round"/>
<path d="M24.3536 26.3916L23.6738 29.8657L24.1606 30.2064L27.1755 27.8775L27.2668 25.5486L24.3536 26.3916ZM17.2266 25.5486L17.3079 27.8775L20.3228 30.2064L20.8104 29.8657L20.1305 26.3916L17.2266 25.5486Z" fill="#F5841F" stroke="#F5841F" strokeWidth="0.25" stroke-linecap="round" stroke-linejoin="round"/>
<path d="M24.4145 33.4092L24.4457 32.4553L24.1815 32.2346H20.3032L20.0492 32.4553L20.0695 33.4083L16.821 31.8828L17.958 32.8064L20.2633 34.3829H24.2121L26.5267 32.8064L27.6538 31.8828L24.4145 33.4092Z" fill="#C0AC9D" stroke="#C0AC9D" strokeWidth="0.25" stroke-linecap="round" stroke-linejoin="round"/>
<path d="M24.1611 30.206L23.6733 29.865H20.8116L20.324 30.206L20.0505 32.4551L20.3037 32.2342H24.1822L24.4462 32.4551L24.1611 30.206Z" fill="#161616" stroke="#161616" strokeWidth="0.25" stroke-linecap="round" stroke-linejoin="round"/>
<path d="M34.5165 18.3096L35.3784 14.1544L34.0795 10.2883L24.1613 17.5666L27.9787 20.7586L33.3694 22.3159L34.5572 20.9399L34.0391 20.568L34.8619 19.8258L34.232 19.3439L35.0541 18.721L34.5165 18.3096ZM9.10551 14.1537L9.97841 18.3096L9.42045 18.7218L10.2527 19.3439L9.62361 19.8258L10.4457 20.5688L9.92761 20.9407L11.1154 22.3153L16.5068 20.7594L20.3235 17.5673L10.4051 10.2883L9.10551 14.1537Z" fill="#763E1A" stroke="#763E1A" strokeWidth="0.25" stroke-linecap="round" stroke-linejoin="round"/>
<path d="M33.3689 22.3155L27.9785 20.7596L29.6023 23.1893L27.1759 27.8775L30.3846 27.8373H35.1758L33.3689 22.3155ZM16.5057 20.7596L11.1151 22.3155L9.31776 27.8373H14.1003L17.3083 27.8775L14.8818 23.1893L16.5057 20.7596ZM23.8157 23.4505L24.1611 17.5668L25.7239 13.3807H18.7602L20.3232 17.5668L20.6686 23.4505L20.8006 25.2976L20.8108 29.8657H23.6733L23.6834 25.2976L23.8157 23.4505Z" fill="#F5841F" stroke="#F5841F" strokeWidth="0.25" stroke-linecap="round" stroke-linejoin="round"/>
</g>
<defs>
<clipPath id="clip0_1_12">
<rect width="44" height="44" rx="22" fill="white"/>
</clipPath>
</defs>
</svg>
