<svg width="588" height="336" viewBox="0 0 404 336" fill="none" xmlns="http://www.w3.org/2000/svg">
<path d="M71.03 119.258L70.9144 119.191L70.7946 119.25L7.66187 150.237C3.125 152.464 0.25 157.078 0.25 162.132V232.853C0.25 238.323 4.55186 242.827 10.017 243.078L10.0898 243.082L10.1531 243.045L71.0294 208.051L71.146 207.984L71.1543 207.85L76.4479 122.552L76.4575 122.398L76.3236 122.32L71.03 119.258Z" fill="url(#paint0_linear_6_1324)" stroke="#5D4EA4" stroke-width="0.5"/>
<path d="M76.4485 122.537V122.136L76.0883 122.312L12.9556 153.3C8.4187 155.527 5.5437 160.14 5.5437 165.194V239.034C5.5437 242.18 8.84242 244.235 11.6663 242.849L76.3086 211.121L76.4485 211.053V210.897V122.537Z" fill="#F7F7FF" stroke="#5D4EA4" stroke-width="0.5"/>
<path d="M19.6816 167.209C19.6816 166.102 20.3173 165.093 21.3159 164.616L46.921 152.366C48.1655 151.771 49.6051 152.678 49.6051 154.058V170.372C49.6051 172.635 48.3062 174.696 46.2655 175.672L20.9342 187.79C20.3535 188.068 19.6816 187.645 19.6816 187.001V167.209Z" fill="url(#paint1_linear_6_1324)" stroke="#5D4EA4" stroke-width="0.25"/>
<path d="M15.8218 214.048V206.403L39.1723 195.497V203.142L15.8218 214.048Z" fill="white" stroke="url(#paint2_linear_6_1324)"/>
<path d="M48.6421 200.051V192.406L71.9926 181.5V189.145L48.6421 200.051Z" fill="white" stroke="url(#paint3_linear_6_1324)"/>
<path d="M15.8218 228.924V221.277L72.522 195.057V202.703L15.8218 228.924Z" fill="white" stroke="url(#paint4_linear_6_1324)"/>
<path d="M64.2812 287.313C62.6118 286.712 62.4931 284.397 64.0923 283.628L196.363 220.083L224.69 230.276C226.36 230.877 226.478 233.192 224.879 233.961L99.7817 294.061C95.1927 296.265 89.9109 296.536 85.1205 294.812L64.2812 287.313Z" fill="#86DEBF" fill-opacity="0.23"/>
<path d="M85.7269 76.6269C85.7269 68.9754 90.0924 61.9945 96.9719 58.645L201.801 7.60574C207.114 5.01852 213.303 8.88828 213.303 14.7985V210.152C213.303 214.743 210.683 218.931 206.556 220.941L91.4779 276.97C88.821 278.264 85.7269 276.329 85.7269 273.374V76.6269Z" fill="url(#paint5_linear_6_1324)"/>
<path d="M85.8269 257.302V85.6161L213.203 23.5991V195.285L85.8269 257.302Z" fill="#F7F7FF" stroke="#5D4EA4" stroke-width="0.2"/>
<mask id="path-10-inside-1_6_1324" fill="white">
<path fill-rule="evenodd" clip-rule="evenodd" d="M190.213 2.03212L76.1985 55.8088L76.4882 56.0607C72.7267 58.855 70.3755 63.3179 70.3755 68.2144V261.949C70.3755 267.108 73.6723 271.689 78.5637 273.328L89.9618 277.146C87.3021 275.223 85.7269 272.14 85.7269 268.858V258.337V76.423C85.7269 70.3799 88.7594 64.74 93.8006 61.4074L96.3141 59.7459L96.2061 59.7012L199.467 9.3043C203.426 7.37177 208.126 7.76018 211.714 10.3166L204.039 4.84875L201.005 2.82728C197.796 0.688587 193.701 0.386877 190.213 2.03212Z"/>
</mask>
<path fill-rule="evenodd" clip-rule="evenodd" d="M190.213 2.03212L76.1985 55.8088L76.4882 56.0607C72.7267 58.855 70.3755 63.3179 70.3755 68.2144V261.949C70.3755 267.108 73.6723 271.689 78.5637 273.328L89.9618 277.146C87.3021 275.223 85.7269 272.14 85.7269 268.858V258.337V76.423C85.7269 70.3799 88.7594 64.74 93.8006 61.4074L96.3141 59.7459L96.2061 59.7012L199.467 9.3043C203.426 7.37177 208.126 7.76018 211.714 10.3166L204.039 4.84875L201.005 2.82728C197.796 0.688587 193.701 0.386877 190.213 2.03212Z" fill="#F7F7FF"/>
<path d="M76.1985 55.8088L75.9852 55.3565L75.2924 55.6833L75.8703 56.186L76.1985 55.8088ZM190.213 2.03212L190 1.5799V1.5799L190.213 2.03212ZM76.4882 56.0607L76.7863 56.4621L77.2853 56.0914L76.8163 55.6835L76.4882 56.0607ZM78.5637 273.328L78.4049 273.802H78.4049L78.5637 273.328ZM89.9618 277.146L89.803 277.62L90.2547 276.741L89.9618 277.146ZM93.8006 61.4074L93.5249 60.9903L93.8006 61.4074ZM96.3141 59.7459L96.5898 60.163L97.3757 59.6435L96.505 59.2838L96.3141 59.7459ZM96.2061 59.7012L95.9867 59.2519L94.9884 59.7391L96.0151 60.1633L96.2061 59.7012ZM199.467 9.3043L199.247 8.85496L199.467 9.3043ZM204.039 4.84875L204.329 4.44151L204.323 4.43699L204.316 4.43267L204.039 4.84875ZM201.005 2.82728L200.728 3.24336V3.24336L201.005 2.82728ZM76.4118 56.261L190.426 2.48434L190 1.5799L75.9852 55.3565L76.4118 56.261ZM76.8163 55.6835L76.5266 55.4315L75.8703 56.186L76.16 56.438L76.8163 55.6835ZM76.19 55.6594C72.3046 58.5457 69.8755 63.1559 69.8755 68.2144H70.8755C70.8755 63.48 73.1487 59.1644 76.7863 56.4621L76.19 55.6594ZM69.8755 68.2144V261.949H70.8755V68.2144H69.8755ZM69.8755 261.949C69.8755 267.323 73.3097 272.095 78.4049 273.802L78.7225 272.854C74.035 271.283 70.8755 266.893 70.8755 261.949H69.8755ZM78.4049 273.802L89.803 277.62L90.1206 276.672L78.7225 272.854L78.4049 273.802ZM90.2547 276.741C87.7251 274.912 86.2269 271.98 86.2269 268.858H85.2269C85.2269 272.301 86.8791 275.534 89.6688 277.551L90.2547 276.741ZM86.2269 268.858V258.337H85.2269V268.858H86.2269ZM86.2269 258.337V76.423H85.2269V258.337H86.2269ZM86.2269 76.423C86.2269 70.5478 89.1752 65.0645 94.0764 61.8245L93.5249 60.9903C88.3437 64.4155 85.2269 70.212 85.2269 76.423H86.2269ZM94.0764 61.8245L96.5898 60.163L96.0384 59.3288L93.5249 60.9903L94.0764 61.8245ZM96.505 59.2838L96.397 59.2391L96.0151 60.1633L96.1232 60.208L96.505 59.2838ZM199.247 8.85496L95.9867 59.2519L96.4254 60.1506L199.686 9.75364L199.247 8.85496ZM212.005 9.90932C208.267 7.24662 203.372 6.84205 199.247 8.85496L199.686 9.75364C203.481 7.90148 207.985 8.27374 211.424 10.7238L212.005 9.90932ZM203.749 5.25599L211.424 10.7238L212.005 9.90932L204.329 4.44151L203.749 5.25599ZM200.728 3.24336L203.762 5.26483L204.316 4.43267L201.283 2.41121L200.728 3.24336ZM190.426 2.48434C193.756 0.913882 197.665 1.20188 200.728 3.24336L201.283 2.41121C197.927 0.175296 193.646 -0.140128 190 1.5799L190.426 2.48434Z" fill="#5D4EA4" mask="url(#path-10-inside-1_6_1324)"/>
<path d="M140.78 242.135C140.78 239.618 142.225 237.326 144.495 236.24L168.073 224.96C169.408 224.321 170.954 225.295 170.954 226.776C170.954 229.101 169.619 231.219 167.521 232.223L143.379 243.772C142.174 244.349 140.78 243.471 140.78 242.135Z" fill="url(#paint6_linear_6_1324)"/>
<path d="M140.78 242.135C140.78 239.618 142.225 237.326 144.495 236.24L168.073 224.96C169.408 224.321 170.954 225.295 170.954 226.776C170.954 229.101 169.619 231.219 167.521 232.223L143.379 243.772C142.174 244.349 140.78 243.471 140.78 242.135Z" fill="url(#paint7_linear_6_1324)"/>
<path d="M112.849 62.7244C112.849 61.3638 113.626 60.1224 114.849 59.5271L167.792 33.7689C168.461 33.4433 169.241 33.9308 169.241 34.6752C169.241 35.9279 168.526 37.0707 167.399 37.6188L114.139 63.5314C113.543 63.8214 112.849 63.3873 112.849 62.7244Z" fill="url(#paint8_linear_6_1324)" stroke="#5D4EA4" stroke-width="0.25"/>
<path d="M172.138 33.8029C172.138 32.4671 172.883 31.243 174.07 30.63L174.649 30.3308C175.321 29.9837 176.122 30.4716 176.122 31.2281C176.122 32.4549 175.438 33.579 174.348 34.142L173.453 34.6041C172.853 34.914 172.138 34.4784 172.138 33.8029Z" fill="url(#paint9_linear_6_1324)" stroke="#5D4EA4" stroke-width="0.25"/>
<path d="M237.23 215.551C234.756 219.06 229.692 220.905 223.459 221.02C217.231 221.135 209.867 219.519 202.849 216.141C195.831 212.762 190.499 208.265 187.548 203.731C184.595 199.193 184.04 194.643 186.514 191.135C188.988 187.626 194.051 185.781 200.285 185.666C206.513 185.551 213.877 187.167 220.895 190.545C227.913 193.924 233.245 198.421 236.196 202.955C239.149 207.493 239.704 212.043 237.23 215.551Z" fill="#DFF4EC" stroke="url(#paint10_linear_6_1324)" stroke-width="0.25"/>
<ellipse cx="28.2686" cy="15.7838" rx="28.2686" ry="15.7838" transform="matrix(0.90102 0.433778 -0.576235 0.817284 197.411 175.465)" fill="url(#paint11_linear_6_1324)"/>
<path d="M235.402 210.124C233.498 212.825 229.486 214.231 224.434 214.248C219.396 214.266 213.396 212.897 207.64 210.126C201.884 207.355 197.484 203.717 195.017 200.086C192.544 196.446 192.046 192.868 193.95 190.168C195.854 187.467 199.866 186.061 204.918 186.044C209.957 186.026 215.956 187.395 221.712 190.166C227.468 192.937 231.868 196.575 234.335 200.206C236.808 203.846 237.307 207.424 235.402 210.124Z" stroke="#5D4EA4" stroke-width="0.5"/>
<path fill-rule="evenodd" clip-rule="evenodd" d="M337.088 223.636C336.908 231.88 323.567 238.367 307.289 238.125C291.012 237.883 277.961 231.004 278.141 222.76C278.153 222.216 278.222 221.68 278.345 221.152V217.457H280.193C284.553 211.909 295.371 208.084 307.939 208.271C319.895 208.449 330.11 212.207 334.62 217.457H337.104V223.581H337.089C337.088 223.599 337.088 223.618 337.088 223.636Z" fill="#DFF4EC"/>
<path d="M337.03 218.383C336.942 222.433 333.617 226.085 328.238 228.7C322.867 231.312 315.482 232.871 307.359 232.751C299.235 232.63 291.923 230.854 286.669 228.084C281.408 225.311 278.245 221.564 278.333 217.514C278.422 213.464 281.747 209.813 287.125 207.197C292.497 204.585 299.881 203.026 308.005 203.147C316.128 203.267 323.44 205.044 328.694 207.813C333.955 210.586 337.118 214.333 337.03 218.383Z" fill="url(#paint12_linear_6_1324)" stroke="url(#paint13_linear_6_1324)" stroke-width="0.25"/>
<path d="M332.169 217.527C332.102 220.632 329.442 223.476 325.033 225.532C320.64 227.58 314.59 228.804 307.924 228.705C301.259 228.606 295.265 227.203 290.965 225.026C286.647 222.84 284.113 219.919 284.181 216.814C284.248 213.71 286.908 210.866 291.318 208.81C295.71 206.762 301.761 205.537 308.426 205.636C315.092 205.735 321.085 207.139 325.386 209.316C329.703 211.502 332.237 214.423 332.169 217.527Z" stroke="#5D4EA4" stroke-width="0.5"/>
<path fill-rule="evenodd" clip-rule="evenodd" d="M344.498 214.014C344.319 222.258 330.978 228.745 314.7 228.503C298.423 228.261 285.372 221.382 285.552 213.138C285.564 212.594 285.633 212.058 285.756 211.531V207.835H287.604C291.964 202.287 302.782 198.462 315.35 198.649C327.306 198.827 337.521 202.585 342.031 207.835H344.515V213.959H344.499C344.499 213.977 344.499 213.995 344.498 214.014Z" fill="#DFF4EC"/>
<path d="M344.441 208.761C344.352 212.811 341.027 216.462 335.649 219.077C330.277 221.689 322.893 223.248 314.769 223.128C306.646 223.008 299.334 221.231 294.08 218.461C288.819 215.688 285.655 211.941 285.744 207.891C285.832 203.841 289.157 200.19 294.536 197.574C299.907 194.962 307.292 193.403 315.415 193.524C323.539 193.644 330.85 195.421 336.104 198.19C341.365 200.963 344.529 204.711 344.441 208.761Z" fill="url(#paint14_linear_6_1324)" stroke="url(#paint15_linear_6_1324)" stroke-width="0.25"/>
<path d="M339.58 207.905C339.512 211.009 336.853 213.853 332.443 215.909C328.051 217.957 322 219.182 315.335 219.083C308.669 218.984 302.676 217.58 298.375 215.403C294.058 213.217 291.524 210.296 291.591 207.192C291.659 204.087 294.319 201.243 298.728 199.187C303.121 197.139 309.171 195.914 315.837 196.013C322.502 196.113 328.496 197.516 332.796 199.693C337.113 201.879 339.647 204.8 339.58 207.905Z" stroke="#5D4EA4" stroke-width="0.5"/>
<path d="M118.017 148.782L194.774 111.601V126.473L118.017 163.654V148.782Z" fill="url(#paint16_linear_6_1324)"/>
<path d="M125.429 150.719L189.481 119.474V124.287L125.429 155.531V150.719Z" fill="#DFF4EC"/>
<path d="M112.849 147.205L117.893 148.872L117.893 163.481L112.849 161.814L112.849 147.205Z" fill="#DFF4EC" stroke="#5D4EA4" stroke-width="0.25"/>
<path d="M195.179 148.824C195.179 152.75 192.034 156.337 186.875 158.95C181.723 161.559 174.597 163.177 166.718 163.177C158.84 163.177 151.714 161.559 146.562 158.95C141.403 156.337 138.258 152.75 138.258 148.824C138.258 144.898 141.403 141.312 146.562 138.699C151.714 136.089 158.84 134.472 166.718 134.472C174.597 134.472 181.723 136.089 186.875 138.699C192.034 141.312 195.179 144.898 195.179 148.824Z" fill="#DFF4EC" stroke="#F7F7FF" stroke-width="0.25"/>
<ellipse cx="166.718" cy="144.196" rx="28.5854" ry="14.4774" fill="url(#paint17_linear_6_1324)"/>
<path d="M190.443 143.434C190.443 146.441 187.928 149.234 183.697 151.291C179.483 153.34 173.643 154.614 167.18 154.614C160.716 154.614 154.876 153.34 150.662 151.291C146.431 149.234 143.916 146.441 143.916 143.434C143.916 140.427 146.431 137.634 150.662 135.577C154.876 133.529 160.716 132.255 167.18 132.255C173.643 132.255 179.483 133.529 183.697 135.577C187.928 137.634 190.443 140.427 190.443 143.434Z" stroke="#5D4EA4" stroke-width="0.5"/>
<path d="M118.017 148.782L194.774 111.601V117.287L118.017 154.468V148.782Z" fill="url(#paint18_linear_6_1324)"/>
<path d="M189.49 109.986L194.443 111.623L118.009 148.648L113.056 147.011L189.49 109.986Z" fill="#DFF4EC" stroke="#5D4EA4" stroke-width="0.25"/>
<path d="M318.164 261.065C318.041 264.99 314.785 268.508 309.545 271.009C304.313 273.507 297.138 274.971 289.263 274.802C281.387 274.633 274.314 272.863 269.246 270.144C264.171 267.421 261.14 263.768 261.263 259.844C261.386 255.919 264.643 252.401 269.882 249.9C275.115 247.402 282.289 245.938 290.165 246.107C298.04 246.276 305.113 248.046 310.182 250.765C315.257 253.487 318.288 257.141 318.164 261.065Z" fill="#DFF4EC" stroke="#F7F7FF" stroke-width="0.25"/>
<path d="M318.31 256.439C318.186 260.363 314.93 263.881 309.69 266.383C304.458 268.88 297.284 270.344 289.408 270.175C281.532 270.006 274.459 268.236 269.391 265.517C264.316 262.795 261.285 259.142 261.408 255.217C261.532 251.293 264.788 247.774 270.028 245.273C275.26 242.775 282.435 241.311 290.31 241.48C298.186 241.649 305.259 243.419 310.327 246.138C315.402 248.861 318.433 252.514 318.31 256.439Z" fill="url(#paint19_linear_6_1324)" stroke="url(#paint20_linear_6_1324)" stroke-width="0.25"/>
<path d="M313.6 255.575C313.505 258.58 310.903 261.319 306.609 263.284C302.332 265.242 296.454 266.39 289.993 266.251C283.531 266.113 277.734 264.714 273.585 262.575C269.42 260.429 266.994 257.582 267.088 254.576C267.183 251.57 269.785 248.832 274.079 246.867C278.356 244.909 284.234 243.761 290.695 243.9C297.157 244.038 302.954 245.437 307.103 247.576C311.268 249.722 313.694 252.569 313.6 255.575Z" stroke="#5D4EA4" stroke-width="0.5"/>
<path d="M73.5264 120.708L72.5433 96.7415C73.1355 95.7772 74.3572 95.4084 75.3848 95.8861L80.8431 98.4231C81.5311 98.7429 81.9711 99.4328 81.9711 100.191V123.338C81.9711 124.764 80.4918 125.707 79.1992 125.107L75.2305 123.262C74.2292 122.796 73.5717 121.811 73.5264 120.708Z" fill="url(#paint21_linear_6_1324)" stroke="#5D4EA4" stroke-width="0.1"/>
<path d="M72.5427 96.9838C72.5427 96.2894 73.2634 95.8296 73.8931 96.1223L79.7844 98.8606C80.4724 99.1804 80.9124 99.8703 80.9124 100.629V123.338C80.9124 124.764 79.4331 125.707 78.1405 125.107L74.2492 123.298C73.2084 122.814 72.5427 121.771 72.5427 120.623V96.9838Z" fill="#DFF4EC" stroke="#5D4EA4" stroke-width="0.1"/>
<path d="M73.5264 151.328L72.5433 127.361C73.1355 126.397 74.3572 126.028 75.3848 126.506L80.8431 129.043C81.5311 129.363 81.9711 130.053 81.9711 130.811V153.958C81.9711 155.383 80.4918 156.327 79.1992 155.726L75.2305 153.882C74.2292 153.416 73.5717 152.431 73.5264 151.328Z" fill="url(#paint22_linear_6_1324)" stroke="#5D4EA4" stroke-width="0.1"/>
<path d="M72.5427 127.604C72.5427 126.91 73.2634 126.45 73.8931 126.742L79.7844 129.481C80.4724 129.801 80.9124 130.49 80.9124 131.249V153.958C80.9124 155.384 79.4331 156.328 78.1405 155.727L74.2492 153.918C73.2084 153.434 72.5427 152.391 72.5427 151.243V127.604Z" fill="#DFF4EC" stroke="#5D4EA4" stroke-width="0.1"/>
<path d="M201.127 335.86L133.121 302.317L174.13 281.899L242.136 315.441L201.127 335.86Z" fill="#DFF4EC" stroke="url(#paint23_linear_6_1324)" stroke-width="0.25"/>
<path d="M132.729 297.283L132.277 297.508L132.729 297.731L201.017 331.412L201.128 331.467L201.239 331.412L242.529 310.853L242.98 310.628L242.528 310.405L174.241 276.723L174.129 276.668L174.019 276.724L132.729 297.283Z" fill="url(#paint24_linear_6_1324)" stroke="#5D4EA4" stroke-width="0.5"/>
<path d="M166.717 295.041L160.936 292.254L178.896 283.35L184.677 286.136L166.717 295.041Z" fill="#DFF4EC" stroke="#5D4EA4" stroke-width="0.5"/>
<path d="M154.547 301.167L148.781 298.388L158.775 293.846L164.541 296.625L154.547 301.167Z" fill="#DFF4EC" stroke="#5D4EA4" stroke-width="0.5"/>
<mask id="path-44-inside-2_6_1324" fill="white">
<path fill-rule="evenodd" clip-rule="evenodd" d="M253.164 224.928L251.162 225.971L259.388 229.146L252.581 233.328L254.846 234.462L261.695 230.037L269.015 232.863L271.017 231.82L263.455 228.901L269.651 224.898L267.439 224.2L261.203 228.031L253.164 224.928Z"/>
</mask>
<path fill-rule="evenodd" clip-rule="evenodd" d="M253.164 224.928L251.162 225.971L259.388 229.146L252.581 233.328L254.846 234.462L261.695 230.037L269.015 232.863L271.017 231.82L263.455 228.901L269.651 224.898L267.439 224.2L261.203 228.031L253.164 224.928Z" fill="url(#paint25_linear_6_1324)"/>
<path d="M251.162 225.971L251.113 225.883L250.92 225.983L251.129 226.064L251.162 225.971ZM253.164 224.928L253.198 224.836L253.155 224.819L253.115 224.84L253.164 224.928ZM259.388 229.146L259.443 229.232L259.612 229.128L259.421 229.054L259.388 229.146ZM252.581 233.328L252.526 233.243L252.376 233.335L252.539 233.417L252.581 233.328ZM254.846 234.462L254.803 234.55L254.855 234.576L254.903 234.546L254.846 234.462ZM261.695 230.037L261.729 229.944L261.68 229.926L261.638 229.953L261.695 230.037ZM269.015 232.863L268.982 232.955L269.025 232.972L269.064 232.951L269.015 232.863ZM271.017 231.82L271.066 231.908L271.26 231.808L271.051 231.727L271.017 231.82ZM263.455 228.901L263.398 228.816L263.235 228.921L263.422 228.993L263.455 228.901ZM269.651 224.898L269.708 224.982L269.884 224.868L269.678 224.803L269.651 224.898ZM267.439 224.2L267.466 224.105L267.422 224.091L267.384 224.115L267.439 224.2ZM261.203 228.031L261.17 228.124L261.216 228.142L261.258 228.116L261.203 228.031ZM251.212 226.06L253.214 225.017L253.115 224.84L251.113 225.883L251.212 226.06ZM259.421 229.054L251.196 225.879L251.129 226.064L259.355 229.239L259.421 229.054ZM259.333 229.061L252.526 233.243L252.636 233.413L259.443 229.232L259.333 229.061ZM252.539 233.417L254.803 234.55L254.888 234.373L252.624 233.24L252.539 233.417ZM254.903 234.546L261.752 230.121L261.638 229.953L254.789 234.378L254.903 234.546ZM269.049 232.77L261.729 229.944L261.662 230.13L268.982 232.955L269.049 232.77ZM270.968 231.731L268.966 232.774L269.064 232.951L271.066 231.908L270.968 231.731ZM263.422 228.993L270.984 231.912L271.051 231.727L263.488 228.808L263.422 228.993ZM263.512 228.985L269.708 224.982L269.594 224.814L263.398 228.816L263.512 228.985ZM269.678 224.803L267.466 224.105L267.412 224.295L269.624 224.993L269.678 224.803ZM267.384 224.115L261.148 227.946L261.258 228.116L267.494 224.285L267.384 224.115ZM253.131 225.021L261.17 228.124L261.236 227.939L253.198 224.836L253.131 225.021Z" fill="#5D4EA4" mask="url(#path-44-inside-2_6_1324)"/>
<mask id="path-46-inside-3_6_1324" fill="white">
<path fill-rule="evenodd" clip-rule="evenodd" d="M238.878 272.55L236.876 273.593L245.101 276.768L238.295 280.95L240.559 282.083L247.409 277.659L254.729 280.484L256.731 279.441L249.168 276.522L255.364 272.52L253.152 271.821L246.916 275.653L238.878 272.55Z"/>
</mask>
<path fill-rule="evenodd" clip-rule="evenodd" d="M238.878 272.55L236.876 273.593L245.101 276.768L238.295 280.95L240.559 282.083L247.409 277.659L254.729 280.484L256.731 279.441L249.168 276.522L255.364 272.52L253.152 271.821L246.916 275.653L238.878 272.55Z" fill="url(#paint26_linear_6_1324)"/>
<path d="M236.876 273.593L236.827 273.504L236.634 273.605L236.843 273.685L236.876 273.593ZM238.878 272.55L238.911 272.457L238.868 272.441L238.829 272.461L238.878 272.55ZM245.101 276.768L245.156 276.853L245.326 276.749L245.135 276.675L245.101 276.768ZM238.295 280.95L238.24 280.865L238.089 280.957L238.252 281.038L238.295 280.95ZM240.559 282.083L240.517 282.172L240.569 282.198L240.616 282.167L240.559 282.083ZM247.409 277.659L247.442 277.566L247.394 277.547L247.352 277.575L247.409 277.659ZM254.729 280.484L254.696 280.577L254.738 280.594L254.778 280.573L254.729 280.484ZM256.731 279.441L256.78 279.53L256.973 279.429L256.764 279.349L256.731 279.441ZM249.168 276.522L249.111 276.438L248.949 276.543L249.135 276.615L249.168 276.522ZM255.364 272.52L255.421 272.604L255.598 272.49L255.391 272.425L255.364 272.52ZM253.152 271.821L253.18 271.727L253.136 271.713L253.097 271.736L253.152 271.821ZM246.916 275.653L246.883 275.745L246.93 275.764L246.971 275.738L246.916 275.653ZM236.925 273.681L238.927 272.638L238.829 272.461L236.827 273.504L236.925 273.681ZM245.135 276.675L236.909 273.5L236.843 273.685L245.068 276.861L245.135 276.675ZM245.046 276.683L238.24 280.865L238.35 281.035L245.156 276.853L245.046 276.683ZM238.252 281.038L240.517 282.172L240.602 281.995L238.337 280.861L238.252 281.038ZM240.616 282.167L247.466 277.743L247.352 277.575L240.502 281.999L240.616 282.167ZM254.762 280.392L247.442 277.566L247.375 277.751L254.696 280.577L254.762 280.392ZM256.682 279.353L254.68 280.396L254.778 280.573L256.78 279.53L256.682 279.353ZM249.135 276.615L256.698 279.534L256.764 279.349L249.202 276.429L249.135 276.615ZM249.225 276.606L255.421 272.604L255.307 272.435L249.111 276.438L249.225 276.606ZM255.391 272.425L253.18 271.727L253.125 271.916L255.337 272.614L255.391 272.425ZM253.097 271.736L246.861 275.568L246.971 275.738L253.208 271.907L253.097 271.736ZM238.845 272.642L246.883 275.745L246.95 275.56L238.911 272.457L238.845 272.642Z" fill="#5D4EA4" mask="url(#path-46-inside-3_6_1324)"/>
<mask id="path-48-inside-4_6_1324" fill="white">
<path fill-rule="evenodd" clip-rule="evenodd" d="M357.034 244.02L355.032 245.063L363.258 248.239L356.451 252.421L358.715 253.554L365.565 249.129L372.885 251.955L374.887 250.912L367.325 247.993L373.52 243.991L371.308 243.292L365.073 247.124L357.034 244.02Z"/>
</mask>
<path fill-rule="evenodd" clip-rule="evenodd" d="M357.034 244.02L355.032 245.063L363.258 248.239L356.451 252.421L358.715 253.554L365.565 249.129L372.885 251.955L374.887 250.912L367.325 247.993L373.52 243.991L371.308 243.292L365.073 247.124L357.034 244.02Z" fill="url(#paint27_linear_6_1324)"/>
<path d="M355.032 245.063L354.983 244.975L354.79 245.075L354.999 245.156L355.032 245.063ZM357.034 244.02L357.067 243.928L357.024 243.911L356.985 243.932L357.034 244.02ZM363.258 248.239L363.313 248.324L363.482 248.22L363.291 248.146L363.258 248.239ZM356.451 252.421L356.396 252.336L356.245 252.428L356.408 252.509L356.451 252.421ZM358.715 253.554L358.673 253.643L358.725 253.669L358.772 253.638L358.715 253.554ZM365.565 249.129L365.598 249.037L365.55 249.018L365.508 249.045L365.565 249.129ZM372.885 251.955L372.852 252.048L372.894 252.064L372.934 252.044L372.885 251.955ZM374.887 250.912L374.936 251.001L375.129 250.9L374.92 250.819L374.887 250.912ZM367.325 247.993L367.268 247.909L367.105 248.014L367.291 248.086L367.325 247.993ZM373.52 243.991L373.577 244.075L373.754 243.961L373.547 243.896L373.52 243.991ZM371.308 243.292L371.336 243.198L371.292 243.184L371.253 243.207L371.308 243.292ZM365.073 247.124L365.039 247.216L365.086 247.234L365.128 247.209L365.073 247.124ZM355.081 245.152L357.083 244.109L356.985 243.932L354.983 244.975L355.081 245.152ZM363.291 248.146L355.065 244.971L354.999 245.156L363.224 248.331L363.291 248.146ZM363.202 248.154L356.396 252.336L356.506 252.506L363.313 248.324L363.202 248.154ZM356.408 252.509L358.673 253.643L358.758 253.466L356.493 252.332L356.408 252.509ZM358.772 253.638L365.622 249.214L365.508 249.045L358.658 253.47L358.772 253.638ZM372.918 251.862L365.598 249.037L365.532 249.222L372.852 252.048L372.918 251.862ZM374.838 250.823L372.836 251.866L372.934 252.044L374.936 251.001L374.838 250.823ZM367.291 248.086L374.854 251.005L374.92 250.819L367.358 247.9L367.291 248.086ZM367.382 248.077L373.577 244.075L373.463 243.907L367.268 247.909L367.382 248.077ZM373.547 243.896L371.336 243.198L371.281 243.387L373.493 244.085L373.547 243.896ZM371.253 243.207L365.018 247.038L365.128 247.209L371.364 243.378L371.253 243.207ZM357.001 244.113L365.039 247.216L365.106 247.031L357.067 243.928L357.001 244.113Z" fill="#5D4EA4" mask="url(#path-48-inside-4_6_1324)"/>
<mask id="path-50-inside-5_6_1324" fill="white">
<path fill-rule="evenodd" clip-rule="evenodd" d="M16.2021 274.554L14.2 275.597L22.4256 278.773L15.6189 282.955L17.8833 284.088L24.7331 279.663L32.0529 282.489L34.055 281.446L26.4926 278.527L32.6886 274.524L30.4766 273.826L24.2407 277.657L16.2021 274.554Z"/>
</mask>
<path fill-rule="evenodd" clip-rule="evenodd" d="M16.2021 274.554L14.2 275.597L22.4256 278.773L15.6189 282.955L17.8833 284.088L24.7331 279.663L32.0529 282.489L34.055 281.446L26.4926 278.527L32.6886 274.524L30.4766 273.826L24.2407 277.657L16.2021 274.554Z" fill="url(#paint28_linear_6_1324)"/>
<path d="M14.2 275.597L14.1508 275.509L13.9578 275.609L14.1667 275.69L14.2 275.597ZM16.2021 274.554L16.2354 274.462L16.1925 274.445L16.1528 274.466L16.2021 274.554ZM22.4256 278.773L22.4807 278.858L22.6502 278.754L22.4589 278.68L22.4256 278.773ZM15.6189 282.955L15.5638 282.869L15.4135 282.962L15.5764 283.043L15.6189 282.955ZM17.8833 284.088L17.8408 284.177L17.8929 284.203L17.9403 284.172L17.8833 284.088ZM24.7331 279.663L24.7664 279.571L24.7182 279.552L24.6761 279.579L24.7331 279.663ZM32.0529 282.489L32.0196 282.582L32.0625 282.598L32.1022 282.578L32.0529 282.489ZM34.055 281.446L34.1042 281.535L34.2973 281.434L34.0883 281.353L34.055 281.446ZM26.4926 278.527L26.4357 278.443L26.2732 278.548L26.4593 278.619L26.4926 278.527ZM32.6886 274.524L32.7455 274.608L32.9218 274.495L32.7157 274.43L32.6886 274.524ZM30.4766 273.826L30.5038 273.731L30.4597 273.717L30.4215 273.741L30.4766 273.826ZM24.2407 277.657L24.2074 277.75L24.2543 277.768L24.2958 277.743L24.2407 277.657ZM14.2493 275.686L16.2513 274.643L16.1528 274.466L14.1508 275.509L14.2493 275.686ZM22.4589 278.68L14.2334 275.505L14.1667 275.69L22.3923 278.865L22.4589 278.68ZM22.3705 278.687L15.5638 282.869L15.674 283.04L22.4807 278.858L22.3705 278.687ZM15.5764 283.043L17.8408 284.177L17.9258 284L15.6614 282.866L15.5764 283.043ZM17.9403 284.172L24.79 279.747L24.6761 279.579L17.8264 284.004L17.9403 284.172ZM32.0862 282.396L24.7664 279.571L24.6998 279.756L32.0196 282.582L32.0862 282.396ZM34.0057 281.357L32.0037 282.4L32.1022 282.578L34.1042 281.535L34.0057 281.357ZM26.4593 278.619L34.0217 281.539L34.0883 281.353L26.5259 278.434L26.4593 278.619ZM26.5496 278.611L32.7455 274.608L32.6316 274.44L26.4357 278.443L26.5496 278.611ZM32.7157 274.43L30.5038 273.731L30.4495 273.921L32.6614 274.619L32.7157 274.43ZM30.4215 273.741L24.1856 277.572L24.2958 277.743L30.5318 273.911L30.4215 273.741ZM16.1688 274.647L24.2074 277.75L24.274 277.565L16.2354 274.462L16.1688 274.647Z" fill="#5D4EA4" mask="url(#path-50-inside-5_6_1324)"/>
<path d="M317.154 260.475L352.086 249.977L388.9 261.02L353.968 271.518L317.154 260.475Z" fill="url(#paint29_linear_6_1324)" stroke="#5D4EA4" stroke-width="0.2"/>
<path d="M317.957 260.615L354.578 271.601L355.346 307.086L318.725 296.101L317.957 260.615Z" fill="url(#paint30_linear_6_1324)" stroke="#5D4EA4" stroke-width="0.5"/>
<path d="M388.985 261.338L389.754 296.856L355.368 306.931L354.599 271.414L388.985 261.338Z" fill="#F7F7FF" stroke="#5D4EA4" stroke-width="0.5"/>
<ellipse cx="5.35719" cy="2.05192" rx="5.35719" ry="2.05192" transform="matrix(0.933083 -0.35966 0.491586 0.870829 91.5498 52.4651)" fill="url(#paint31_linear_6_1324)"/>
<defs>
<linearGradient id="paint0_linear_6_1324" x1="25.8288" y1="242.872" x2="110.883" y2="160.978" gradientUnits="userSpaceOnUse">
<stop offset="0.187811" stop-color="#CBAEFF" stop-opacity="0.5"/>
<stop offset="0.773374" stop-color="#A6FBF5"/>
</linearGradient>
<linearGradient id="paint1_linear_6_1324" x1="29.6527" y1="188.601" x2="55.0089" y2="156.763" gradientUnits="userSpaceOnUse">
<stop offset="0.187811" stop-color="#CBAEFF" stop-opacity="0.5"/>
<stop offset="0.773374" stop-color="#A6FBF5"/>
</linearGradient>
<linearGradient id="paint2_linear_6_1324" x1="23.4695" y1="214.841" x2="34.9183" y2="193.102" gradientUnits="userSpaceOnUse">
<stop offset="0.187811" stop-color="#CBAEFF" stop-opacity="0.5"/>
<stop offset="0.773374" stop-color="#A6FBF5"/>
</linearGradient>
<linearGradient id="paint3_linear_6_1324" x1="56.2898" y1="200.843" x2="67.7386" y2="179.104" gradientUnits="userSpaceOnUse">
<stop offset="0.187811" stop-color="#CBAEFF" stop-opacity="0.5"/>
<stop offset="0.773374" stop-color="#A6FBF5"/>
</linearGradient>
<linearGradient id="paint4_linear_6_1324" x1="34.6284" y1="229.718" x2="51.2231" y2="187.317" gradientUnits="userSpaceOnUse">
<stop offset="0.187811" stop-color="#CBAEFF" stop-opacity="0.5"/>
<stop offset="0.773374" stop-color="#A6FBF5"/>
</linearGradient>
<linearGradient id="paint5_linear_6_1324" x1="128.414" y1="279.868" x2="337.144" y2="172.378" gradientUnits="userSpaceOnUse">
<stop stop-color="#CBAEFF" stop-opacity="0.5"/>
<stop offset="1" stop-color="#A6FBF5"/>
</linearGradient>
<linearGradient id="paint6_linear_6_1324" x1="150.876" y1="245.023" x2="161.99" y2="220.476" gradientUnits="userSpaceOnUse">
<stop offset="0.187811" stop-color="#CBAEFF" stop-opacity="0.5"/>
<stop offset="0.773374" stop-color="#A6FBF5"/>
</linearGradient>
<linearGradient id="paint7_linear_6_1324" x1="150.876" y1="245.023" x2="161.99" y2="220.476" gradientUnits="userSpaceOnUse">
<stop offset="0.187811" stop-color="#CBAEFF" stop-opacity="0.5"/>
<stop offset="0.773374" stop-color="#A6FBF5"/>
</linearGradient>
<linearGradient id="paint8_linear_6_1324" x1="131.677" y1="64.37" x2="145.361" y2="25.7563" gradientUnits="userSpaceOnUse">
<stop offset="0.187811" stop-color="#CBAEFF" stop-opacity="0.5"/>
<stop offset="0.773374" stop-color="#A6FBF5"/>
</linearGradient>
<linearGradient id="paint9_linear_6_1324" x1="173.43" y1="35.4909" x2="177.641" y2="30.9213" gradientUnits="userSpaceOnUse">
<stop offset="0.187811" stop-color="#CBAEFF" stop-opacity="0.5"/>
<stop offset="0.773374" stop-color="#A6FBF5"/>
</linearGradient>
<linearGradient id="paint10_linear_6_1324" x1="194.345" y1="212.196" x2="225.19" y2="182.57" gradientUnits="userSpaceOnUse">
<stop offset="0.187811" stop-color="#CBAEFF" stop-opacity="0.5"/>
<stop offset="0.773374" stop-color="#A6FBF5"/>
</linearGradient>
<linearGradient id="paint11_linear_6_1324" x1="18.9174" y1="31.5787" x2="32.6777" y2="-7.08845" gradientUnits="userSpaceOnUse">
<stop offset="0.187811" stop-color="#CBAEFF"/>
<stop offset="0.773374" stop-color="#A6FBF5"/>
</linearGradient>
<linearGradient id="paint12_linear_6_1324" x1="297.606" y1="232.742" x2="310.255" y2="195.538" gradientUnits="userSpaceOnUse">
<stop offset="0.187811" stop-color="#CBAEFF" stop-opacity="0.5"/>
<stop offset="0.773374" stop-color="#A6FBF5"/>
</linearGradient>
<linearGradient id="paint13_linear_6_1324" x1="297.606" y1="232.742" x2="310.255" y2="195.538" gradientUnits="userSpaceOnUse">
<stop offset="0.187811" stop-color="#CBAEFF" stop-opacity="0.5"/>
<stop offset="0.773374" stop-color="#A6FBF5"/>
</linearGradient>
<linearGradient id="paint14_linear_6_1324" x1="305.016" y1="223.119" x2="317.666" y2="185.915" gradientUnits="userSpaceOnUse">
<stop offset="0.187811" stop-color="#CBAEFF"/>
<stop offset="0.773374" stop-color="#A6FBF5"/>
</linearGradient>
<linearGradient id="paint15_linear_6_1324" x1="305.016" y1="223.119" x2="317.666" y2="185.915" gradientUnits="userSpaceOnUse">
<stop offset="0.187811" stop-color="#CBAEFF" stop-opacity="0.5"/>
<stop offset="0.773374" stop-color="#A6FBF5"/>
</linearGradient>
<linearGradient id="paint16_linear_6_1324" x1="143.7" y1="163.673" x2="169.862" y2="103.145" gradientUnits="userSpaceOnUse">
<stop offset="0.187811" stop-color="#CBAEFF" stop-opacity="0.5"/>
<stop offset="0.773374" stop-color="#A6FBF5"/>
</linearGradient>
<linearGradient id="paint17_linear_6_1324" x1="157.262" y1="158.684" x2="168.943" y2="122.496" gradientUnits="userSpaceOnUse">
<stop offset="0.187811" stop-color="#CBAEFF" stop-opacity="0.5"/>
<stop offset="0.773374" stop-color="#A6FBF5"/>
</linearGradient>
<linearGradient id="paint18_linear_6_1324" x1="143.7" y1="154.483" x2="162.39" y2="101.978" gradientUnits="userSpaceOnUse">
<stop offset="0.187811" stop-color="#CBAEFF"/>
<stop offset="0.773374" stop-color="#A6FBF5"/>
</linearGradient>
<linearGradient id="paint19_linear_6_1324" x1="279.951" y1="270.108" x2="292.48" y2="234.084" gradientUnits="userSpaceOnUse">
<stop offset="0.187811" stop-color="#CBAEFF"/>
<stop offset="0.773374" stop-color="#A6FBF5"/>
</linearGradient>
<linearGradient id="paint20_linear_6_1324" x1="264.783" y1="248.605" x2="323.686" y2="257.121" gradientUnits="userSpaceOnUse">
<stop stop-color="#7BDEB8"/>
<stop offset="0.526042" stop-color="#CCDDED"/>
<stop offset="0.994792" stop-color="#89A7DE"/>
</linearGradient>
<linearGradient id="paint21_linear_6_1324" x1="75.6809" y1="126.484" x2="92.5184" y2="118.492" gradientUnits="userSpaceOnUse">
<stop offset="0.187811" stop-color="#CBAEFF" stop-opacity="0.5"/>
<stop offset="0.773374" stop-color="#A6FBF5"/>
</linearGradient>
<linearGradient id="paint22_linear_6_1324" x1="75.6809" y1="157.104" x2="92.5184" y2="149.112" gradientUnits="userSpaceOnUse">
<stop offset="0.187811" stop-color="#CBAEFF" stop-opacity="0.5"/>
<stop offset="0.773374" stop-color="#A6FBF5"/>
</linearGradient>
<linearGradient id="paint23_linear_6_1324" x1="169.505" y1="336.019" x2="190.982" y2="267.941" gradientUnits="userSpaceOnUse">
<stop offset="0.187811" stop-color="#CBAEFF" stop-opacity="0.5"/>
<stop offset="0.773374" stop-color="#A6FBF5"/>
</linearGradient>
<linearGradient id="paint24_linear_6_1324" x1="169.505" y1="331.207" x2="190.982" y2="263.13" gradientUnits="userSpaceOnUse">
<stop offset="0.187811" stop-color="#CBAEFF"/>
<stop offset="0.773374" stop-color="#A6FBF5"/>
</linearGradient>
<linearGradient id="paint25_linear_6_1324" x1="258.557" y1="234.161" x2="261.376" y2="221.965" gradientUnits="userSpaceOnUse">
<stop offset="0.187811" stop-color="#CBAEFF" stop-opacity="0.5"/>
<stop offset="0.773374" stop-color="#A6FBF5"/>
</linearGradient>
<linearGradient id="paint26_linear_6_1324" x1="244.271" y1="281.783" x2="247.089" y2="269.587" gradientUnits="userSpaceOnUse">
<stop offset="0.187811" stop-color="#CBAEFF" stop-opacity="0.5"/>
<stop offset="0.773374" stop-color="#A6FBF5"/>
</linearGradient>
<linearGradient id="paint27_linear_6_1324" x1="362.427" y1="253.254" x2="365.246" y2="241.057" gradientUnits="userSpaceOnUse">
<stop offset="0.187811" stop-color="#CBAEFF" stop-opacity="0.5"/>
<stop offset="0.773374" stop-color="#A6FBF5"/>
</linearGradient>
<linearGradient id="paint28_linear_6_1324" x1="21.595" y1="283.788" x2="24.4135" y2="271.591" gradientUnits="userSpaceOnUse">
<stop offset="0.187811" stop-color="#CBAEFF" stop-opacity="0.5"/>
<stop offset="0.773374" stop-color="#A6FBF5"/>
</linearGradient>
<linearGradient id="paint29_linear_6_1324" x1="338.375" y1="266.951" x2="358.429" y2="236.42" gradientUnits="userSpaceOnUse">
<stop offset="0.0785171" stop-color="#A6FBF5"/>
<stop offset="1" stop-color="#CBAEFF" stop-opacity="0.5"/>
</linearGradient>
<linearGradient id="paint30_linear_6_1324" x1="321.403" y1="297.176" x2="350.551" y2="262.165" gradientUnits="userSpaceOnUse">
<stop offset="0.187811" stop-color="#CBAEFF" stop-opacity="0.5"/>
<stop offset="0.773374" stop-color="#A6FBF5"/>
</linearGradient>
<linearGradient id="paint31_linear_6_1324" x1="0.616655" y1="1.10488" x2="11.6109" y2="2.74436" gradientUnits="userSpaceOnUse">
<stop stop-color="#7BDEB8"/>
<stop offset="0.526042" stop-color="#CCDDED"/>
<stop offset="0.994792" stop-color="#89A7DE"/>
</linearGradient>
</defs>
</svg>
