<svg width="588" height="336" viewBox="0 0 588 336" fill="none" xmlns="http://www.w3.org/2000/svg">
<path d="M0.5 162.132C0.5 157.173 3.32075 152.647 7.77202 150.462L70.9048 119.475L76.1984 122.537L70.9048 207.834L10.0285 242.828C4.6968 242.584 0.5 238.19 0.5 232.853V162.132Z" fill="url(#paint0_linear_40_1085)"/>
<path d="M6.2937 165.194C6.2937 160.426 9.00596 156.074 13.286 153.973L75.6985 123.339V210.585L11.3359 242.176C9.01029 243.318 6.2937 241.625 6.2937 239.034V165.194Z" fill="#1E1E22" stroke="url(#paint1_linear_40_1085)"/>
<path d="M19.5566 167.209C19.5566 166.054 20.2199 165.001 21.262 164.503L46.867 152.254C48.1945 151.619 49.7301 152.586 49.7301 154.058V170.372C49.7301 172.683 48.4036 174.788 46.3194 175.785L20.9882 187.903C20.3244 188.22 19.5566 187.737 19.5566 187.001V167.209Z" fill="url(#paint2_linear_40_1085)"/>
<path d="M15.3218 206.085L39.6723 194.712V203.46L15.3218 214.833V206.085Z" fill="#D9D9D9"/>
<path d="M48.1421 192.087L72.4926 180.714V189.463L48.1421 200.836V192.087Z" fill="#D9D9D9"/>
<path d="M15.3218 220.957L73.022 194.274V203.023L15.3218 229.706V220.957Z" fill="#D9D9D9"/>
<path d="M64.2811 287.313C62.6117 286.712 62.493 284.397 64.0922 283.628L196.363 220.083L224.69 230.276C226.36 230.877 226.478 233.192 224.879 233.961L99.7815 294.061C95.1926 296.265 89.9108 296.536 85.1204 294.812L64.2811 287.313Z" fill="#86DEBF" fill-opacity="0.23"/>
<path d="M85.7271 76.6269C85.7271 68.9754 90.0926 61.9945 96.972 58.645L201.801 7.60574C207.115 5.01852 213.303 8.88828 213.303 14.7985V210.152C213.303 214.743 210.683 218.931 206.556 220.941L91.4781 276.97C88.8211 278.264 85.7271 276.329 85.7271 273.374V76.6269Z" fill="url(#paint3_linear_40_1085)"/>
<path d="M86.2271 256.662V85.8662L212.803 24.2388V195.035L86.2271 256.662Z" fill="#1E1E22" stroke="url(#paint4_linear_40_1085)"/>
<mask id="path-10-inside-1_40_1085" fill="white">
<path fill-rule="evenodd" clip-rule="evenodd" d="M190.213 2.03212L76.1985 55.8088L76.4882 56.0607C72.7267 58.855 70.3755 63.3179 70.3755 68.2144V261.949C70.3755 267.108 73.6723 271.689 78.5637 273.328L89.9618 277.146C87.3021 275.223 85.7269 272.14 85.7269 268.858V258.337V76.423C85.7269 70.3799 88.7594 64.74 93.8006 61.4074L96.3141 59.7459L96.2061 59.7012L199.467 9.3043C203.426 7.37177 208.126 7.76018 211.714 10.3166L204.039 4.84875L201.005 2.82728C197.796 0.688587 193.701 0.386877 190.213 2.03212Z"/>
</mask>
<path fill-rule="evenodd" clip-rule="evenodd" d="M190.213 2.03212L76.1985 55.8088L76.4882 56.0607C72.7267 58.855 70.3755 63.3179 70.3755 68.2144V261.949C70.3755 267.108 73.6723 271.689 78.5637 273.328L89.9618 277.146C87.3021 275.223 85.7269 272.14 85.7269 268.858V258.337V76.423C85.7269 70.3799 88.7594 64.74 93.8006 61.4074L96.3141 59.7459L96.2061 59.7012L199.467 9.3043C203.426 7.37177 208.126 7.76018 211.714 10.3166L204.039 4.84875L201.005 2.82728C197.796 0.688587 193.701 0.386877 190.213 2.03212Z" fill="#1E1E22"/>
<path d="M76.1985 55.8088L75.7719 54.9043L74.3863 55.5578L75.5422 56.5633L76.1985 55.8088ZM190.213 2.03212L189.786 1.12767V1.12767L190.213 2.03212ZM76.4882 56.0607L77.0845 56.8635L78.0825 56.1221L77.1445 55.3062L76.4882 56.0607ZM78.5637 273.328L78.2461 274.276H78.2461L78.5637 273.328ZM89.9618 277.146L89.6441 278.094L90.5477 276.336L89.9618 277.146ZM93.8006 61.4074L93.2492 60.5732L93.8006 61.4074ZM96.3141 59.7459L96.8656 60.5801L98.4373 59.5411L96.6959 58.8216L96.3141 59.7459ZM96.2061 59.7012L95.7674 58.8026L93.7707 59.7771L95.8242 60.6255L96.2061 59.7012ZM199.467 9.3043L199.028 8.40562V8.40562L199.467 9.3043ZM204.039 4.84875L204.619 4.03427L204.606 4.02523L204.593 4.0166L204.039 4.84875ZM201.005 2.82728L200.451 3.65944L200.451 3.65944L201.005 2.82728ZM76.6251 56.7132L190.639 2.93656L189.786 1.12767L75.7719 54.9043L76.6251 56.7132ZM77.1445 55.3062L76.8548 55.0543L75.5422 56.5633L75.8319 56.8153L77.1445 55.3062ZM75.8919 55.258C71.8826 58.2363 69.3755 62.9939 69.3755 68.2144H71.3755C71.3755 63.642 73.5707 59.4737 77.0845 56.8635L75.8919 55.258ZM69.3755 68.2144V261.949H71.3755V68.2144H69.3755ZM69.3755 261.949C69.3755 267.538 72.9471 272.501 78.2461 274.276L78.8814 272.38C74.3976 270.878 71.3755 266.678 71.3755 261.949H69.3755ZM78.2461 274.276L89.6441 278.094L90.2794 276.198L78.8814 272.38L78.2461 274.276ZM90.5477 276.336C88.1481 274.601 86.7269 271.819 86.7269 268.858H84.7269C84.7269 272.461 86.4561 275.845 89.3759 277.956L90.5477 276.336ZM86.7269 268.858V258.337H84.7269V268.858H86.7269ZM86.7269 258.337V76.423H84.7269V258.337H86.7269ZM86.7269 76.423C86.7269 70.7156 89.5909 65.3891 94.3521 62.2416L93.2492 60.5732C87.9279 64.0909 84.7269 70.0442 84.7269 76.423H86.7269ZM94.3521 62.2416L96.8656 60.5801L95.7626 58.9117L93.2492 60.5732L94.3521 62.2416ZM96.6959 58.8216L96.5879 58.777L95.8242 60.6255L95.9323 60.6701L96.6959 58.8216ZM199.028 8.40562L95.7674 58.8026L96.6447 60.5999L199.905 10.203L199.028 8.40562ZM212.295 9.50209C208.408 6.73306 203.317 6.31233 199.028 8.40562L199.905 10.203C203.535 8.4312 207.844 8.7873 211.134 11.131L212.295 9.50209ZM203.459 5.66323L211.134 11.131L212.295 9.50209L204.619 4.03427L203.459 5.66323ZM200.451 3.65944L203.484 5.68091L204.593 4.0166L201.56 1.99513L200.451 3.65944ZM190.639 2.93656C193.81 1.44089 197.533 1.71517 200.451 3.65944L201.56 1.99513C198.059 -0.337996 193.591 -0.667133 189.786 1.12767L190.639 2.93656Z" fill="url(#paint5_linear_40_1085)" mask="url(#path-10-inside-1_40_1085)"/>
<path d="M140.78 242.135C140.78 239.618 142.225 237.326 144.495 236.24L168.073 224.96C169.408 224.321 170.954 225.295 170.954 226.776C170.954 229.101 169.619 231.219 167.521 232.223L143.379 243.772C142.174 244.349 140.78 243.471 140.78 242.135Z" fill="url(#paint6_linear_40_1085)"/>
<path d="M140.78 242.135C140.78 239.618 142.225 237.326 144.495 236.24L168.073 224.96C169.408 224.321 170.954 225.295 170.954 226.776C170.954 229.101 169.619 231.219 167.521 232.223L143.379 243.772C142.174 244.349 140.78 243.471 140.78 242.135Z" fill="url(#paint7_linear_40_1085)"/>
<path d="M112.724 62.7244C112.724 61.3159 113.528 60.031 114.794 59.4147L167.737 33.6565C168.49 33.2905 169.366 33.8384 169.366 34.6752C169.366 35.9757 168.623 37.1622 167.454 37.7312L114.194 63.6438C113.515 63.9742 112.724 63.4796 112.724 62.7244Z" fill="url(#paint8_linear_40_1085)"/>
<path d="M172.013 33.8029C172.013 32.4203 172.784 31.1534 174.013 30.5189L174.592 30.2198C175.347 29.8297 176.248 30.378 176.248 31.2281C176.248 32.5016 175.537 33.6686 174.405 34.253L173.511 34.7151C172.827 35.0681 172.013 34.572 172.013 33.8029Z" fill="url(#paint9_linear_40_1085)"/>
<path d="M237.23 215.551C234.756 219.06 229.692 220.905 223.459 221.02C217.231 221.135 209.867 219.519 202.849 216.141C195.831 212.762 190.499 208.265 187.548 203.731C184.595 199.193 184.04 194.643 186.514 191.135C188.988 187.626 194.051 185.781 200.285 185.666C206.513 185.551 213.877 187.167 220.895 190.545C227.913 193.924 233.245 198.421 236.196 202.955C239.149 207.493 239.703 212.043 237.23 215.551Z" fill="#1E1E22" stroke="url(#paint10_linear_40_1085)" stroke-width="0.25"/>
<ellipse cx="28.2686" cy="15.7838" rx="28.2686" ry="15.7838" transform="matrix(0.90102 0.433778 -0.576235 0.817284 197.411 175.465)" fill="url(#paint11_linear_40_1085)"/>
<path d="M235.515 210.179C233.572 212.935 229.495 214.346 224.424 214.364C219.359 214.382 213.338 213.006 207.568 210.228C201.797 207.45 197.38 203.8 194.9 200.15C192.418 196.496 191.894 192.87 193.837 190.114C195.78 187.357 199.857 185.946 204.928 185.928C209.993 185.911 216.014 187.286 221.784 190.064C227.555 192.842 231.972 196.492 234.452 200.142C236.934 203.796 237.458 207.422 235.515 210.179Z" stroke="#1E1E22" stroke-width="0.25"/>
<path fill-rule="evenodd" clip-rule="evenodd" d="M337.087 223.636C336.908 231.88 323.567 238.367 307.289 238.125C291.012 237.883 277.961 231.004 278.141 222.76C278.153 222.216 278.222 221.68 278.345 221.152V217.457H280.193C284.553 211.909 295.371 208.084 307.939 208.271C319.895 208.449 330.11 212.207 334.62 217.457H337.104V223.581H337.088C337.088 223.599 337.088 223.618 337.087 223.636Z" fill="#1E1E22"/>
<path d="M337.03 218.383C336.941 222.433 333.616 226.085 328.238 228.7C322.866 231.312 315.482 232.871 307.358 232.751C299.235 232.63 291.923 230.854 286.669 228.084C281.408 225.311 278.245 221.564 278.333 217.514C278.421 213.464 281.746 209.813 287.125 207.197C292.496 204.585 299.881 203.026 308.004 203.147C316.128 203.267 323.44 205.044 328.694 207.813C333.955 210.586 337.118 214.333 337.03 218.383Z" fill="url(#paint12_linear_40_1085)" stroke="url(#paint13_linear_40_1085)" stroke-width="0.25"/>
<path d="M331.919 217.524C331.855 220.479 329.313 223.261 324.928 225.306C320.577 227.335 314.565 228.554 307.929 228.456C301.293 228.357 295.339 226.96 291.079 224.803C286.785 222.629 284.366 219.774 284.431 216.818C284.495 213.863 287.036 211.081 291.422 209.036C295.773 207.007 301.784 205.788 308.42 205.886C315.056 205.985 321.011 207.382 325.271 209.539C329.565 211.713 331.983 214.568 331.919 217.524Z" stroke="url(#paint14_linear_40_1085)"/>
<path fill-rule="evenodd" clip-rule="evenodd" d="M344.499 214.014C344.319 222.258 330.978 228.745 314.7 228.503C298.423 228.261 285.372 221.382 285.552 213.138C285.564 212.594 285.633 212.058 285.756 211.531V207.835H287.604C291.964 202.287 302.782 198.462 315.35 198.649C327.306 198.827 337.521 202.585 342.031 207.835H344.515V213.959H344.5C344.499 213.977 344.499 213.995 344.499 214.014Z" fill="#1E1E22"/>
<path d="M344.44 208.761C344.352 212.811 341.027 216.462 335.648 219.077C330.277 221.689 322.892 223.248 314.769 223.128C306.646 223.008 299.334 221.231 294.08 218.461C288.819 215.688 285.655 211.941 285.744 207.891C285.832 203.841 289.157 200.19 294.536 197.574C299.907 194.962 307.292 193.403 315.415 193.524C323.538 193.644 330.85 195.421 336.104 198.19C341.365 200.963 344.529 204.711 344.44 208.761Z" fill="url(#paint15_linear_40_1085)" stroke="url(#paint16_linear_40_1085)" stroke-width="0.25"/>
<path d="M339.33 207.901C339.266 210.856 336.724 213.638 332.339 215.683C327.988 217.712 321.976 218.931 315.34 218.833C308.704 218.734 302.749 217.337 298.489 215.18C294.196 213.006 291.777 210.151 291.841 207.195C291.906 204.24 294.447 201.458 298.833 199.413C303.184 197.384 309.195 196.165 315.831 196.263C322.467 196.362 328.422 197.759 332.682 199.916C336.976 202.09 339.394 204.945 339.33 207.901Z" stroke="url(#paint17_linear_40_1085)"/>
<path d="M118.017 148.782L194.774 111.601V126.473L118.017 163.654V148.782Z" fill="url(#paint18_linear_40_1085)"/>
<path d="M125.428 150.719L189.481 119.474V124.287L125.428 155.531V150.719Z" fill="#1E1E22"/>
<path d="M112.849 147.205L117.893 148.872L117.893 163.481L112.849 161.814L112.849 147.205Z" fill="#1E1E22" stroke="url(#paint19_linear_40_1085)" stroke-width="0.25"/>
<path d="M195.179 148.824C195.179 152.75 192.034 156.337 186.875 158.95C181.723 161.559 174.596 163.177 166.718 163.177C158.84 163.177 151.714 161.559 146.562 158.95C141.403 156.337 138.258 152.75 138.258 148.824C138.258 144.898 141.403 141.312 146.562 138.699C151.714 136.089 158.84 134.472 166.718 134.472C174.596 134.472 181.723 136.089 186.875 138.699C192.034 141.312 195.179 144.898 195.179 148.824Z" fill="url(#paint20_linear_40_1085)" stroke="#1E1E22" stroke-width="0.25"/>
<ellipse cx="166.718" cy="144.196" rx="28.5854" ry="14.4774" fill="#1E1E22"/>
<path d="M190.193 143.434C190.193 146.291 187.795 149.021 183.588 151.066C179.414 153.095 173.614 154.364 167.179 154.364C160.745 154.364 154.944 153.095 150.771 151.066C146.564 149.021 144.166 146.291 144.166 143.434C144.166 140.577 146.564 137.847 150.771 135.802C154.944 133.773 160.745 132.505 167.179 132.505C173.614 132.505 179.414 133.773 183.588 135.802C187.795 137.847 190.193 140.577 190.193 143.434Z" stroke="url(#paint21_linear_40_1085)"/>
<path d="M118.017 148.782L194.774 111.601V117.287L118.017 154.468V148.782Z" fill="url(#paint22_linear_40_1085)"/>
<path d="M189.49 109.986L194.443 111.623L118.009 148.648L113.056 147.011L189.49 109.986Z" fill="#1E1E22" stroke="url(#paint23_linear_40_1085)" stroke-width="0.25"/>
<path d="M318.165 261.065C318.041 264.99 314.785 268.508 309.545 271.009C304.313 273.507 297.138 274.971 289.263 274.802C281.387 274.633 274.314 272.863 269.246 270.144C264.171 267.421 261.14 263.768 261.263 259.844C261.386 255.919 264.643 252.401 269.882 249.9C275.115 247.402 282.289 245.938 290.165 246.107C298.04 246.276 305.113 248.046 310.182 250.765C315.257 253.487 318.288 257.141 318.165 261.065Z" fill="url(#paint24_linear_40_1085)" stroke="#1E1E22" stroke-width="0.25"/>
<path d="M318.31 256.439C318.186 260.363 314.93 263.881 309.69 266.383C304.458 268.88 297.284 270.344 289.408 270.175C281.532 270.006 274.459 268.236 269.391 265.517C264.316 262.795 261.285 259.142 261.408 255.217C261.532 251.293 264.788 247.774 270.028 245.273C275.26 242.775 282.435 241.311 290.31 241.48C298.186 241.649 305.259 243.419 310.327 246.138C315.402 248.861 318.433 252.514 318.31 256.439Z" fill="#1E1E22" stroke="url(#paint25_linear_40_1085)" stroke-width="0.25"/>
<path d="M313.725 255.577C313.628 258.658 310.967 261.427 306.66 263.398C302.362 265.365 296.465 266.515 289.989 266.376C283.513 266.237 277.696 264.835 273.527 262.687C269.35 260.534 266.866 257.654 266.963 254.574C267.06 251.493 269.722 248.724 274.028 246.753C278.326 244.786 284.223 243.636 290.699 243.775C297.176 243.914 302.993 245.316 307.161 247.464C311.338 249.617 313.822 252.497 313.725 255.577Z" stroke="url(#paint26_linear_40_1085)" stroke-width="0.25"/>
<path d="M72.4927 96.7285C73.0952 95.7328 74.3506 95.3502 75.4059 95.8408L80.8642 98.3778C81.5698 98.7058 82.0211 99.4133 82.0211 100.191V123.338C82.0211 124.8 80.5038 125.768 79.1781 125.152L75.2094 123.307C74.1912 122.834 73.5225 121.832 73.4765 120.71L72.4927 96.7285Z" fill="url(#paint27_linear_40_1085)"/>
<path d="M72.6177 96.9838C72.6177 96.3442 73.2815 95.9208 73.8615 96.1903L79.7527 98.9287C80.4143 99.2361 80.8374 99.8994 80.8374 100.629V123.338C80.8374 124.709 79.415 125.616 78.1721 125.039L74.2809 123.23C73.2665 122.758 72.6177 121.741 72.6177 120.623V96.9838Z" fill="#1E1E22" stroke="url(#paint28_linear_40_1085)" stroke-width="0.25"/>
<path d="M72.4927 127.348C73.0952 126.353 74.3506 125.97 75.4059 126.461L80.8642 128.998C81.5698 129.326 82.0211 130.033 82.0211 130.811V153.958C82.0211 155.42 80.5038 156.388 79.1781 155.772L75.2094 153.927C74.1912 153.454 73.5225 152.451 73.4765 151.33L72.4927 127.348Z" fill="url(#paint29_linear_40_1085)"/>
<path d="M72.6177 127.604C72.6177 126.964 73.2815 126.541 73.8615 126.81L79.7527 129.549C80.4143 129.856 80.8374 130.52 80.8374 131.249V153.958C80.8374 155.329 79.415 156.236 78.1721 155.659L74.2809 153.85C73.2665 153.379 72.6177 152.362 72.6177 151.243V127.604Z" fill="#1E1E22" stroke="url(#paint30_linear_40_1085)" stroke-width="0.25"/>
<path d="M201.127 335.86L133.121 302.317L174.13 281.899L242.136 315.441L201.127 335.86Z" fill="#1E1E22" stroke="url(#paint31_linear_40_1085)" stroke-width="0.25"/>
<path d="M132.84 297.506L174.13 276.948L242.417 310.629L201.127 331.188L132.84 297.506Z" fill="url(#paint32_linear_40_1085)"/>
<path d="M160.366 292.257L178.894 283.071L185.246 286.133L166.719 295.319L160.366 292.257Z" fill="#1E1E22"/>
<path d="M148.191 298.381L158.779 293.57L165.131 296.632L154.544 301.443L148.191 298.381Z" fill="#1E1E22"/>
<path fill-rule="evenodd" clip-rule="evenodd" d="M253.164 224.928L251.162 225.971L259.388 229.146L252.581 233.328L254.846 234.462L261.695 230.037L269.015 232.863L271.017 231.82L263.455 228.901L269.651 224.898L267.439 224.2L261.203 228.031L253.164 224.928Z" fill="url(#paint33_linear_40_1085)"/>
<path fill-rule="evenodd" clip-rule="evenodd" d="M238.878 272.55L236.876 273.593L245.101 276.768L238.295 280.95L240.559 282.083L247.409 277.659L254.729 280.484L256.731 279.441L249.168 276.522L255.364 272.52L253.152 271.821L246.916 275.653L238.878 272.55Z" fill="url(#paint34_linear_40_1085)"/>
<path fill-rule="evenodd" clip-rule="evenodd" d="M357.034 244.02L355.032 245.063L363.258 248.239L356.451 252.421L358.715 253.554L365.565 249.129L372.885 251.955L374.887 250.912L367.325 247.993L373.52 243.991L371.308 243.292L365.073 247.124L357.034 244.02Z" fill="url(#paint35_linear_40_1085)"/>
<path fill-rule="evenodd" clip-rule="evenodd" d="M16.2022 274.554L14.2002 275.597L22.4257 278.773L15.619 282.955L17.8834 284.088L24.7332 279.663L32.0531 282.489L34.0551 281.446L26.4928 278.527L32.6887 274.524L30.4768 273.826L24.2408 277.657L16.2022 274.554Z" fill="url(#paint36_linear_40_1085)"/>
<path d="M352.095 249.876L389.238 261.018L353.96 271.619L316.817 260.477L352.095 249.876Z" fill="url(#paint37_linear_40_1085)"/>
<path d="M318.224 260.955L354.323 271.784L355.08 306.747L318.981 295.918L318.224 260.955Z" fill="url(#paint38_linear_40_1085)" stroke="url(#paint39_linear_40_1085)"/>
<path d="M388.733 261.659L389.491 296.687L355.62 306.611L354.862 271.583L388.733 261.659Z" fill="#131313" stroke="url(#paint40_linear_40_1085)"/>
<ellipse cx="5.35719" cy="2.05192" rx="5.35719" ry="2.05192" transform="matrix(0.933083 -0.35966 0.491586 0.870829 91.5498 52.4651)" fill="url(#paint41_linear_40_1085)"/>
<defs>
<linearGradient id="paint0_linear_40_1085" x1="4.85674" y1="152.685" x2="84.1619" y2="155.465" gradientUnits="userSpaceOnUse">
<stop stop-color="#7BDEB8"/>
<stop offset="0.526042" stop-color="#CCDDED"/>
<stop offset="0.994792" stop-color="#89A7DE"/>
</linearGradient>
<linearGradient id="paint1_linear_40_1085" x1="9.84578" y1="155.63" x2="83.6168" y2="158.043" gradientUnits="userSpaceOnUse">
<stop stop-color="#7BDEB8"/>
<stop offset="0.526042" stop-color="#CCDDED"/>
<stop offset="0.994792" stop-color="#89A7DE"/>
</linearGradient>
<linearGradient id="paint2_linear_40_1085" x1="21.2932" y1="161.035" x2="52.8772" y2="162.479" gradientUnits="userSpaceOnUse">
<stop stop-color="#7BDEB8"/>
<stop offset="0.526042" stop-color="#CCDDED"/>
<stop offset="0.994792" stop-color="#89A7DE"/>
</linearGradient>
<linearGradient id="paint3_linear_40_1085" x1="93.0695" y1="76.7884" x2="226.796" y2="80.2966" gradientUnits="userSpaceOnUse">
<stop stop-color="#7BDEB8"/>
<stop offset="0.526042" stop-color="#CCDDED"/>
<stop offset="0.994792" stop-color="#89A7DE"/>
</linearGradient>
<linearGradient id="paint4_linear_40_1085" x1="93.0695" y1="86.4452" x2="226.758" y2="90.6079" gradientUnits="userSpaceOnUse">
<stop stop-color="#7BDEB8"/>
<stop offset="0.526042" stop-color="#CCDDED"/>
<stop offset="0.994792" stop-color="#89A7DE"/>
</linearGradient>
<linearGradient id="paint5_linear_40_1085" x1="78.5101" y1="75.3331" x2="226.639" y2="79.6632" gradientUnits="userSpaceOnUse">
<stop stop-color="#7BDEB8"/>
<stop offset="0.526042" stop-color="#CCDDED"/>
<stop offset="0.994792" stop-color="#89A7DE"/>
</linearGradient>
<linearGradient id="paint6_linear_40_1085" x1="155.867" y1="223.582" x2="155.867" y2="245.016" gradientUnits="userSpaceOnUse">
<stop stop-color="#75BCA6"/>
<stop offset="1" stop-color="#75BCA6" stop-opacity="0"/>
</linearGradient>
<linearGradient id="paint7_linear_40_1085" x1="155.867" y1="223.582" x2="155.867" y2="245.016" gradientUnits="userSpaceOnUse">
<stop stop-color="#75BCA6"/>
<stop offset="1" stop-color="#75BCA6" stop-opacity="0"/>
</linearGradient>
<linearGradient id="paint8_linear_40_1085" x1="127.811" y1="42.925" x2="127.811" y2="64.3589" gradientUnits="userSpaceOnUse">
<stop stop-color="#75BCA6"/>
<stop offset="1" stop-color="#75BCA6" stop-opacity="0"/>
</linearGradient>
<linearGradient id="paint9_linear_40_1085" x1="134.693" y1="39.4255" x2="134.693" y2="60.8593" gradientUnits="userSpaceOnUse">
<stop stop-color="#75BCA6"/>
<stop offset="1" stop-color="#75BCA6" stop-opacity="0"/>
</linearGradient>
<linearGradient id="paint10_linear_40_1085" x1="193.531" y1="186.538" x2="236.83" y2="223.983" gradientUnits="userSpaceOnUse">
<stop stop-color="#7BDEB8"/>
<stop offset="0.526042" stop-color="#CCDDED"/>
<stop offset="0.994792" stop-color="#89A7DE"/>
</linearGradient>
<linearGradient id="paint11_linear_40_1085" x1="3.25394" y1="8.49895" x2="61.9436" y2="14.5027" gradientUnits="userSpaceOnUse">
<stop stop-color="#7BDEB8"/>
<stop offset="0.526042" stop-color="#CCDDED"/>
<stop offset="0.994792" stop-color="#89A7DE"/>
</linearGradient>
<linearGradient id="paint12_linear_40_1085" x1="281.751" y1="210.673" x2="342.6" y2="218.877" gradientUnits="userSpaceOnUse">
<stop stop-color="#7BDEB8"/>
<stop offset="0.526042" stop-color="#CCDDED"/>
<stop offset="0.994792" stop-color="#89A7DE"/>
</linearGradient>
<linearGradient id="paint13_linear_40_1085" x1="292.108" y1="207.833" x2="317.372" y2="238.926" gradientUnits="userSpaceOnUse">
<stop stop-color="white"/>
<stop offset="1" stop-color="white" stop-opacity="0"/>
</linearGradient>
<linearGradient id="paint14_linear_40_1085" x1="308.431" y1="205.386" x2="308.081" y2="228.958" gradientUnits="userSpaceOnUse">
<stop stop-color="white"/>
<stop offset="1" stop-color="white" stop-opacity="0"/>
</linearGradient>
<linearGradient id="paint15_linear_40_1085" x1="289.162" y1="201.05" x2="350.01" y2="209.254" gradientUnits="userSpaceOnUse">
<stop stop-color="#7BDEB8"/>
<stop offset="0.526042" stop-color="#CCDDED"/>
<stop offset="0.994792" stop-color="#89A7DE"/>
</linearGradient>
<linearGradient id="paint16_linear_40_1085" x1="299.519" y1="198.211" x2="324.783" y2="229.303" gradientUnits="userSpaceOnUse">
<stop stop-color="white"/>
<stop offset="1" stop-color="white" stop-opacity="0"/>
</linearGradient>
<linearGradient id="paint17_linear_40_1085" x1="315.842" y1="195.764" x2="315.492" y2="219.335" gradientUnits="userSpaceOnUse">
<stop stop-color="white"/>
<stop offset="1" stop-color="white" stop-opacity="0"/>
</linearGradient>
<linearGradient id="paint18_linear_40_1085" x1="122.435" y1="125.615" x2="202.381" y2="132.348" gradientUnits="userSpaceOnUse">
<stop stop-color="#7BDEB8"/>
<stop offset="0.526042" stop-color="#CCDDED"/>
<stop offset="0.994792" stop-color="#89A7DE"/>
</linearGradient>
<linearGradient id="paint19_linear_40_1085" x1="113.029" y1="151.507" x2="118.58" y2="151.608" gradientUnits="userSpaceOnUse">
<stop stop-color="#7BDEB8"/>
<stop offset="0.526042" stop-color="#CCDDED"/>
<stop offset="0.994792" stop-color="#89A7DE"/>
</linearGradient>
<linearGradient id="paint20_linear_40_1085" x1="141.423" y1="142.142" x2="200.638" y2="148.821" gradientUnits="userSpaceOnUse">
<stop stop-color="#7BDEB8"/>
<stop offset="0.526042" stop-color="#CCDDED"/>
<stop offset="0.994792" stop-color="#89A7DE"/>
</linearGradient>
<linearGradient id="paint21_linear_40_1085" x1="146.372" y1="138.159" x2="195.029" y2="143.877" gradientUnits="userSpaceOnUse">
<stop stop-color="#7BDEB8"/>
<stop offset="0.526042" stop-color="#CCDDED"/>
<stop offset="0.994792" stop-color="#89A7DE"/>
</linearGradient>
<linearGradient id="paint22_linear_40_1085" x1="122.435" y1="123.142" x2="202.114" y2="131.291" gradientUnits="userSpaceOnUse">
<stop stop-color="#7BDEB8"/>
<stop offset="0.526042" stop-color="#CCDDED"/>
<stop offset="0.994792" stop-color="#89A7DE"/>
</linearGradient>
<linearGradient id="paint23_linear_40_1085" x1="117.446" y1="120.333" x2="202.283" y2="130.545" gradientUnits="userSpaceOnUse">
<stop stop-color="#7BDEB8"/>
<stop offset="0.526042" stop-color="#CCDDED"/>
<stop offset="0.994792" stop-color="#89A7DE"/>
</linearGradient>
<linearGradient id="paint24_linear_40_1085" x1="264.637" y1="253.232" x2="323.541" y2="261.747" gradientUnits="userSpaceOnUse">
<stop stop-color="#7BDEB8"/>
<stop offset="0.526042" stop-color="#CCDDED"/>
<stop offset="0.994792" stop-color="#89A7DE"/>
</linearGradient>
<linearGradient id="paint25_linear_40_1085" x1="264.783" y1="248.605" x2="323.686" y2="257.121" gradientUnits="userSpaceOnUse">
<stop stop-color="#7BDEB8"/>
<stop offset="0.526042" stop-color="#CCDDED"/>
<stop offset="0.994792" stop-color="#89A7DE"/>
</linearGradient>
<linearGradient id="paint26_linear_40_1085" x1="269.71" y1="249.356" x2="318.101" y2="256.581" gradientUnits="userSpaceOnUse">
<stop stop-color="#7BDEB8"/>
<stop offset="0.526042" stop-color="#CCDDED"/>
<stop offset="0.994792" stop-color="#89A7DE"/>
</linearGradient>
<linearGradient id="paint27_linear_40_1085" x1="73.0411" y1="103.458" x2="83.0328" y2="103.631" gradientUnits="userSpaceOnUse">
<stop stop-color="#7BDEB8"/>
<stop offset="0.526042" stop-color="#CCDDED"/>
<stop offset="0.994792" stop-color="#89A7DE"/>
</linearGradient>
<linearGradient id="paint28_linear_40_1085" x1="72.9801" y1="103.778" x2="81.8622" y2="103.916" gradientUnits="userSpaceOnUse">
<stop stop-color="#7BDEB8"/>
<stop offset="0.526042" stop-color="#CCDDED"/>
<stop offset="0.994792" stop-color="#89A7DE"/>
</linearGradient>
<linearGradient id="paint29_linear_40_1085" x1="73.0411" y1="134.078" x2="83.0328" y2="134.251" gradientUnits="userSpaceOnUse">
<stop stop-color="#7BDEB8"/>
<stop offset="0.526042" stop-color="#CCDDED"/>
<stop offset="0.994792" stop-color="#89A7DE"/>
</linearGradient>
<linearGradient id="paint30_linear_40_1085" x1="72.9801" y1="134.398" x2="81.8622" y2="134.536" gradientUnits="userSpaceOnUse">
<stop stop-color="#7BDEB8"/>
<stop offset="0.526042" stop-color="#CCDDED"/>
<stop offset="0.994792" stop-color="#89A7DE"/>
</linearGradient>
<linearGradient id="paint31_linear_40_1085" x1="139.146" y1="296.362" x2="252.576" y2="309.451" gradientUnits="userSpaceOnUse">
<stop stop-color="#7BDEB8"/>
<stop offset="0.526042" stop-color="#CCDDED"/>
<stop offset="0.994792" stop-color="#89A7DE"/>
</linearGradient>
<linearGradient id="paint32_linear_40_1085" x1="139.146" y1="291.551" x2="252.576" y2="304.639" gradientUnits="userSpaceOnUse">
<stop stop-color="#7BDEB8"/>
<stop offset="0.526042" stop-color="#CCDDED"/>
<stop offset="0.994792" stop-color="#89A7DE"/>
</linearGradient>
<linearGradient id="paint33_linear_40_1085" x1="252.46" y1="227.59" x2="272.361" y2="227.443" gradientUnits="userSpaceOnUse">
<stop stop-color="#7BDEB8"/>
<stop offset="0.526042" stop-color="#CCDDED"/>
<stop offset="0.994792" stop-color="#89A7DE"/>
</linearGradient>
<linearGradient id="paint34_linear_40_1085" x1="238.173" y1="275.211" x2="258.075" y2="275.064" gradientUnits="userSpaceOnUse">
<stop stop-color="#7BDEB8"/>
<stop offset="0.526042" stop-color="#CCDDED"/>
<stop offset="0.994792" stop-color="#89A7DE"/>
</linearGradient>
<linearGradient id="paint35_linear_40_1085" x1="356.329" y1="246.682" x2="376.231" y2="246.535" gradientUnits="userSpaceOnUse">
<stop stop-color="#7BDEB8"/>
<stop offset="0.526042" stop-color="#CCDDED"/>
<stop offset="0.994792" stop-color="#89A7DE"/>
</linearGradient>
<linearGradient id="paint36_linear_40_1085" x1="15.4974" y1="277.216" x2="35.3991" y2="277.069" gradientUnits="userSpaceOnUse">
<stop stop-color="#7BDEB8"/>
<stop offset="0.526042" stop-color="#CCDDED"/>
<stop offset="0.994792" stop-color="#89A7DE"/>
</linearGradient>
<linearGradient id="paint37_linear_40_1085" x1="326.361" y1="247.859" x2="382.778" y2="285.072" gradientUnits="userSpaceOnUse">
<stop stop-color="#7BDEB8"/>
<stop offset="0.526042" stop-color="#CCDDED"/>
<stop offset="0.994792" stop-color="#89A7DE"/>
</linearGradient>
<linearGradient id="paint38_linear_40_1085" x1="317.019" y1="269.706" x2="365.745" y2="295.641" gradientUnits="userSpaceOnUse">
<stop stop-color="#7BDEB8"/>
<stop offset="0.526042" stop-color="#CCDDED"/>
<stop offset="0.994792" stop-color="#89A7DE"/>
</linearGradient>
<linearGradient id="paint39_linear_40_1085" x1="320.823" y1="261.287" x2="328.534" y2="299.989" gradientUnits="userSpaceOnUse">
<stop stop-color="white"/>
<stop offset="1" stop-color="white" stop-opacity="0"/>
</linearGradient>
<linearGradient id="paint40_linear_40_1085" x1="358.787" y1="267.087" x2="399.15" y2="286.417" gradientUnits="userSpaceOnUse">
<stop stop-color="#7BDEB8"/>
<stop offset="0.526042" stop-color="#CCDDED"/>
<stop offset="0.994792" stop-color="#89A7DE"/>
</linearGradient>
<linearGradient id="paint41_linear_40_1085" x1="0.616655" y1="1.10488" x2="11.6109" y2="2.74436" gradientUnits="userSpaceOnUse">
<stop stop-color="#7BDEB8"/>
<stop offset="0.526042" stop-color="#CCDDED"/>
<stop offset="0.994792" stop-color="#89A7DE"/>
</linearGradient>
</defs>
</svg>
