<svg width="588" height="337" viewBox="0 0 588 337" fill="none" xmlns="http://www.w3.org/2000/svg">
<ellipse cx="117.566" cy="111.999" rx="21.912" ry="22.2255" fill="url(#paint0_linear_40_1051)"/>
<ellipse cx="129.167" cy="7.8443" rx="7.73363" ry="7.8443" fill="url(#paint1_linear_40_1051)"/>
<ellipse cx="202.207" cy="175.189" rx="7.73363" ry="7.8443" fill="url(#paint2_linear_40_1051)"/>
<ellipse cx="24.3332" cy="154.272" rx="7.73363" ry="7.8443" fill="url(#paint3_linear_40_1051)"/>
<path fill-rule="evenodd" clip-rule="evenodd" d="M117.566 223.998C142.482 223.998 162.679 174.245 162.679 112.871C162.679 73.4959 154.366 38.904 141.827 19.1644C152.824 38.5728 160.101 72.3151 160.101 110.692C160.101 170.863 142.212 219.641 120.144 219.641C98.0767 219.641 80.1873 170.863 80.1873 110.692C80.1873 51.6314 97.4226 3.54708 118.927 1.79275C118.475 1.75977 118.022 1.74316 117.566 1.74316C92.6513 1.74316 72.4536 51.4967 72.4536 112.871C72.4536 174.245 92.6513 223.998 117.566 223.998Z" fill="url(#paint4_linear_40_1051)"/>
<path fill-rule="evenodd" clip-rule="evenodd" d="M22.3303 61.1863C11.4582 80.6647 45.0223 120.791 97.2979 150.81C131.742 170.589 165.715 181.046 187.994 180.307C164.857 182.349 130.103 172.653 95.3406 152.69C42.6854 122.453 9.95084 80.113 22.2258 58.1212C34.5008 36.1294 87.1371 42.8137 139.792 73.051C192.447 103.288 225.182 145.628 212.907 167.62C212.682 168.023 212.444 168.416 212.192 168.799C221.267 148.944 187.983 109.739 136.669 80.2722C84.3938 50.2529 33.2025 41.7078 22.3303 61.1863Z" fill="url(#paint5_linear_40_1051)"/>
<path fill-rule="evenodd" clip-rule="evenodd" d="M206.71 53.6912C195.075 34.6714 144.544 45.1191 93.8444 77.0267C61.0015 97.6965 36.1449 122.301 25.8727 142.239C35.5244 120.852 60.3418 95.0342 93.7817 73.9888C145.197 41.6305 197.526 32.8071 210.662 54.281C223.798 75.755 192.767 119.395 141.351 151.753C89.9361 184.111 37.607 192.934 24.471 171.461C24.2309 171.068 24.0055 170.668 23.7947 170.261C36.6096 187.866 86.2129 177.223 135.978 145.903C186.677 113.996 218.345 72.711 206.71 53.6912Z" fill="url(#paint6_linear_40_1051)"/>
<rect y="0.248779" width="588" height="336.751" fill="url(#paint7_linear_40_1051)"/>
<ellipse cx="290.87" cy="167.246" rx="21.912" ry="22.2255" fill="url(#paint8_linear_40_1051)"/>
<ellipse cx="302.47" cy="63.0906" rx="7.73363" ry="7.8443" fill="url(#paint9_linear_40_1051)"/>
<ellipse cx="375.51" cy="230.436" rx="7.73363" ry="7.8443" fill="url(#paint10_linear_40_1051)"/>
<ellipse cx="197.637" cy="209.518" rx="7.73363" ry="7.8443" fill="url(#paint11_linear_40_1051)"/>
<path fill-rule="evenodd" clip-rule="evenodd" d="M290.87 279.245C315.785 279.245 335.983 229.491 335.983 168.117C335.983 128.742 327.67 94.1505 315.131 74.4109C326.128 93.8194 333.405 127.562 333.405 165.938C333.405 226.109 315.516 274.887 293.448 274.887C271.38 274.887 253.491 226.109 253.491 165.938C253.491 106.878 270.726 58.7934 292.231 57.0391C291.779 57.0061 291.325 56.9895 290.87 56.9895C265.955 56.9895 245.757 106.743 245.757 168.117C245.757 229.491 265.955 279.245 290.87 279.245Z" fill="url(#paint12_linear_40_1051)"/>
<path fill-rule="evenodd" clip-rule="evenodd" d="M195.634 116.433C184.762 135.911 218.326 176.037 270.601 206.056C305.046 225.836 339.02 236.293 361.299 235.553C338.162 237.596 303.407 227.899 268.644 207.937C215.989 177.699 183.254 135.359 195.529 113.368C207.804 91.3758 260.441 98.0601 313.096 128.297C365.751 158.535 398.485 200.875 386.21 222.867C385.986 223.269 385.747 223.662 385.496 224.046C394.571 204.19 361.286 164.985 309.973 135.518C257.697 105.499 206.506 96.9541 195.634 116.433Z" fill="url(#paint13_linear_40_1051)"/>
<path fill-rule="evenodd" clip-rule="evenodd" d="M380.014 108.937C368.379 89.9177 317.847 100.365 267.148 132.273C234.305 152.943 209.449 177.547 199.176 197.485C208.828 176.098 233.646 150.28 267.085 129.235C318.5 96.8769 370.829 88.0534 383.965 109.527C397.101 131.001 366.07 174.641 314.655 206.999C263.24 239.357 210.91 248.181 197.775 226.707C197.534 226.314 197.309 225.914 197.098 225.507C209.913 243.113 259.516 232.469 309.281 201.15C359.98 169.242 391.648 127.957 380.014 108.937Z" fill="url(#paint14_linear_40_1051)"/>
<defs>
<linearGradient id="paint0_linear_40_1051" x1="98.1768" y1="101.741" x2="144" y2="104.322" gradientUnits="userSpaceOnUse">
<stop stop-color="#7BDEB8"/>
<stop offset="0.526042" stop-color="#CCDDED"/>
<stop offset="0.994792" stop-color="#89A7DE"/>
</linearGradient>
<linearGradient id="paint1_linear_40_1051" x1="122.324" y1="4.22386" x2="138.496" y2="5.13457" gradientUnits="userSpaceOnUse">
<stop stop-color="#7BDEB8"/>
<stop offset="0.526042" stop-color="#CCDDED"/>
<stop offset="0.994792" stop-color="#89A7DE"/>
</linearGradient>
<linearGradient id="paint2_linear_40_1051" x1="195.363" y1="171.569" x2="211.536" y2="172.48" gradientUnits="userSpaceOnUse">
<stop stop-color="#7BDEB8"/>
<stop offset="0.526042" stop-color="#CCDDED"/>
<stop offset="0.994792" stop-color="#89A7DE"/>
</linearGradient>
<linearGradient id="paint3_linear_40_1051" x1="17.4898" y1="150.651" x2="33.6627" y2="151.562" gradientUnits="userSpaceOnUse">
<stop stop-color="#7BDEB8"/>
<stop offset="0.526042" stop-color="#CCDDED"/>
<stop offset="0.994792" stop-color="#89A7DE"/>
</linearGradient>
<linearGradient id="paint4_linear_40_1051" x1="77.6465" y1="61.5811" x2="172.236" y2="63.7744" gradientUnits="userSpaceOnUse">
<stop stop-color="#7BDEB8"/>
<stop offset="0.526042" stop-color="#CCDDED"/>
<stop offset="0.994792" stop-color="#89A7DE"/>
</linearGradient>
<linearGradient id="paint5_linear_40_1051" x1="181.237" y1="102.904" x2="131.677" y2="184.662" gradientUnits="userSpaceOnUse">
<stop stop-color="#7BDEB8"/>
<stop offset="0.526042" stop-color="#CCDDED"/>
<stop offset="0.994792" stop-color="#89A7DE"/>
</linearGradient>
<linearGradient id="paint6_linear_40_1051" x1="95.6463" y1="174.319" x2="46.647" y2="92.2134" gradientUnits="userSpaceOnUse">
<stop stop-color="#7BDEB8"/>
<stop offset="0.526042" stop-color="#CCDDED"/>
<stop offset="0.994792" stop-color="#89A7DE"/>
</linearGradient>
<linearGradient id="paint7_linear_40_1051" x1="303.8" y1="178.898" x2="580.073" y2="131.324" gradientUnits="userSpaceOnUse">
<stop stop-color="#323544"/>
<stop offset="1" stop-color="#354546"/>
</linearGradient>
<linearGradient id="paint8_linear_40_1051" x1="271.48" y1="156.988" x2="317.303" y2="159.568" gradientUnits="userSpaceOnUse">
<stop stop-color="#7BDEB8"/>
<stop offset="0.526042" stop-color="#CCDDED"/>
<stop offset="0.994792" stop-color="#89A7DE"/>
</linearGradient>
<linearGradient id="paint9_linear_40_1051" x1="295.627" y1="59.4702" x2="311.8" y2="60.3809" gradientUnits="userSpaceOnUse">
<stop stop-color="#7BDEB8"/>
<stop offset="0.526042" stop-color="#CCDDED"/>
<stop offset="0.994792" stop-color="#89A7DE"/>
</linearGradient>
<linearGradient id="paint10_linear_40_1051" x1="368.667" y1="226.815" x2="384.84" y2="227.726" gradientUnits="userSpaceOnUse">
<stop stop-color="#7BDEB8"/>
<stop offset="0.526042" stop-color="#CCDDED"/>
<stop offset="0.994792" stop-color="#89A7DE"/>
</linearGradient>
<linearGradient id="paint11_linear_40_1051" x1="190.793" y1="205.897" x2="206.966" y2="206.808" gradientUnits="userSpaceOnUse">
<stop stop-color="#7BDEB8"/>
<stop offset="0.526042" stop-color="#CCDDED"/>
<stop offset="0.994792" stop-color="#89A7DE"/>
</linearGradient>
<linearGradient id="paint12_linear_40_1051" x1="250.95" y1="116.827" x2="345.54" y2="119.021" gradientUnits="userSpaceOnUse">
<stop stop-color="#7BDEB8"/>
<stop offset="0.526042" stop-color="#CCDDED"/>
<stop offset="0.994792" stop-color="#89A7DE"/>
</linearGradient>
<linearGradient id="paint13_linear_40_1051" x1="354.541" y1="158.15" x2="304.981" y2="239.908" gradientUnits="userSpaceOnUse">
<stop stop-color="#7BDEB8"/>
<stop offset="0.526042" stop-color="#CCDDED"/>
<stop offset="0.994792" stop-color="#89A7DE"/>
</linearGradient>
<linearGradient id="paint14_linear_40_1051" x1="268.95" y1="229.565" x2="219.95" y2="147.46" gradientUnits="userSpaceOnUse">
<stop stop-color="#7BDEB8"/>
<stop offset="0.526042" stop-color="#CCDDED"/>
<stop offset="0.994792" stop-color="#89A7DE"/>
</linearGradient>
</defs>
</svg>
