<svg width="588" height="337" viewBox="0 0 588 337" fill="none" xmlns="http://www.w3.org/2000/svg">
<ellipse cx="117.566" cy="111.999" rx="21.912" ry="22.2255" fill="url(#paint0_linear_6_1205)"/>
<ellipse cx="129.167" cy="7.8443" rx="7.73363" ry="7.8443" fill="url(#paint1_linear_6_1205)"/>
<ellipse cx="202.207" cy="175.189" rx="7.73363" ry="7.8443" fill="url(#paint2_linear_6_1205)"/>
<ellipse cx="24.3332" cy="154.272" rx="7.73363" ry="7.8443" fill="url(#paint3_linear_6_1205)"/>
<path fill-rule="evenodd" clip-rule="evenodd" d="M117.566 223.998C142.482 223.998 162.679 174.245 162.679 112.871C162.679 73.4959 154.366 38.904 141.827 19.1644C152.824 38.5728 160.101 72.3151 160.101 110.692C160.101 170.863 142.212 219.641 120.144 219.641C98.0767 219.641 80.1873 170.863 80.1873 110.692C80.1873 51.6314 97.4226 3.54708 118.927 1.79275C118.475 1.75977 118.022 1.74316 117.566 1.74316C92.6513 1.74316 72.4536 51.4967 72.4536 112.871C72.4536 174.245 92.6513 223.998 117.566 223.998Z" fill="url(#paint4_linear_6_1205)"/>
<path fill-rule="evenodd" clip-rule="evenodd" d="M22.3303 61.1863C11.4582 80.6647 45.0223 120.791 97.2979 150.81C131.742 170.589 165.715 181.046 187.994 180.307C164.857 182.349 130.103 172.653 95.3406 152.69C42.6854 122.453 9.95084 80.113 22.2258 58.1212C34.5008 36.1294 87.1371 42.8137 139.792 73.051C192.447 103.288 225.182 145.628 212.907 167.62C212.682 168.023 212.444 168.416 212.192 168.799C221.267 148.944 187.983 109.739 136.669 80.2722C84.3938 50.2529 33.2025 41.7078 22.3303 61.1863Z" fill="url(#paint5_linear_6_1205)"/>
<path fill-rule="evenodd" clip-rule="evenodd" d="M206.71 53.6912C195.075 34.6714 144.544 45.1191 93.8444 77.0267C61.0014 97.6965 36.1448 122.301 25.8727 142.239C35.5243 120.852 60.3417 95.0342 93.7816 73.9888C145.197 41.6305 197.526 32.8071 210.662 54.281C223.798 75.755 192.766 119.395 141.351 151.753C89.9361 184.111 37.607 192.934 24.471 171.461C24.2308 171.068 24.0054 170.668 23.7947 170.261C36.6096 187.866 86.2128 177.223 135.977 145.903C186.677 113.996 218.345 72.711 206.71 53.6912Z" fill="url(#paint6_linear_6_1205)"/>
<rect y="0.248779" width="588" height="336.751" fill="#FAFAFA"/>
<ellipse cx="290.87" cy="167.246" rx="21.912" ry="22.2255" fill="url(#paint7_linear_6_1205)"/>
<ellipse cx="302.47" cy="63.0906" rx="7.73363" ry="7.8443" fill="url(#paint8_linear_6_1205)"/>
<ellipse cx="375.51" cy="230.436" rx="7.73363" ry="7.8443" fill="url(#paint9_linear_6_1205)"/>
<ellipse cx="197.637" cy="209.518" rx="7.73363" ry="7.8443" fill="url(#paint10_linear_6_1205)"/>
<path fill-rule="evenodd" clip-rule="evenodd" d="M290.87 279.245C315.785 279.245 335.983 229.491 335.983 168.117C335.983 128.742 327.67 94.1505 315.131 74.4109C326.128 93.8194 333.405 127.562 333.405 165.938C333.405 226.109 315.516 274.887 293.448 274.887C271.38 274.887 253.491 226.109 253.491 165.938C253.491 106.878 270.726 58.7934 292.231 57.0391C291.779 57.0061 291.325 56.9895 290.87 56.9895C265.955 56.9895 245.757 106.743 245.757 168.117C245.757 229.491 265.955 279.245 290.87 279.245Z" fill="url(#paint11_linear_6_1205)"/>
<path fill-rule="evenodd" clip-rule="evenodd" d="M195.634 116.433C184.762 135.911 218.326 176.037 270.601 206.056C305.046 225.836 339.02 236.293 361.299 235.553C338.162 237.596 303.407 227.899 268.644 207.937C215.989 177.699 183.254 135.359 195.529 113.368C207.804 91.3758 260.441 98.0601 313.096 128.297C365.751 158.535 398.485 200.875 386.21 222.867C385.986 223.269 385.747 223.662 385.496 224.046C394.571 204.19 361.286 164.985 309.973 135.518C257.697 105.499 206.506 96.9541 195.634 116.433Z" fill="url(#paint12_linear_6_1205)"/>
<path fill-rule="evenodd" clip-rule="evenodd" d="M380.013 108.937C368.379 89.9177 317.847 100.365 267.148 132.273C234.305 152.943 209.449 177.547 199.176 197.485C208.828 176.098 233.646 150.28 267.085 129.235C318.5 96.8769 370.829 88.0534 383.965 109.527C397.101 131.001 366.07 174.641 314.655 206.999C263.24 239.357 210.91 248.181 197.774 226.707C197.534 226.314 197.309 225.914 197.098 225.507C209.913 243.113 259.516 232.469 309.281 201.15C359.98 169.242 391.648 127.957 380.013 108.937Z" fill="url(#paint13_linear_6_1205)"/>
<mask id="path-16-inside-1_6_1205" fill="white">
<path fill-rule="evenodd" clip-rule="evenodd" d="M377.481 54.9538L375.124 56.4313L384.809 60.9292L376.794 66.8531L379.461 68.4588L387.526 62.191L396.146 66.1937L398.503 64.7162L389.598 60.5809L396.894 54.9111L394.29 53.922L386.946 59.3495L377.481 54.9538Z"/>
</mask>
<path fill-rule="evenodd" clip-rule="evenodd" d="M377.481 54.9538L375.124 56.4313L384.809 60.9292L376.794 66.8531L379.461 68.4588L387.526 62.191L396.146 66.1937L398.503 64.7162L389.598 60.5809L396.894 54.9111L394.29 53.922L386.946 59.3495L377.481 54.9538Z" fill="url(#paint14_linear_6_1205)"/>
<path d="M375.124 56.4313L375.07 56.3465L374.914 56.4443L375.082 56.5219L375.124 56.4313ZM377.481 54.9538L377.523 54.8631L377.474 54.8402L377.428 54.8691L377.481 54.9538ZM384.809 60.9292L384.869 61.0096L385.004 60.9095L384.851 60.8385L384.809 60.9292ZM376.794 66.8531L376.735 66.7727L376.615 66.8615L376.743 66.9387L376.794 66.8531ZM379.461 68.4588L379.409 68.5444L379.468 68.5798L379.522 68.5378L379.461 68.4588ZM387.526 62.191L387.568 62.1003L387.513 62.0746L387.465 62.112L387.526 62.191ZM396.146 66.1937L396.104 66.2844L396.153 66.3072L396.199 66.2784L396.146 66.1937ZM398.503 64.7162L398.556 64.8009L398.712 64.7032L398.545 64.6255L398.503 64.7162ZM389.598 60.5809L389.537 60.5019L389.407 60.6024L389.556 60.6716L389.598 60.5809ZM396.894 54.9111L396.956 54.9901L397.096 54.8809L396.93 54.8176L396.894 54.9111ZM394.29 53.922L394.325 53.8286L394.274 53.8092L394.23 53.8416L394.29 53.922ZM386.946 59.3495L386.904 59.4401L386.958 59.4652L387.006 59.4299L386.946 59.3495ZM375.177 56.516L377.534 55.0385L377.428 54.8691L375.07 56.3465L375.177 56.516ZM384.851 60.8385L375.166 56.3406L375.082 56.5219L384.767 61.0198L384.851 60.8385ZM384.75 60.8488L376.735 66.7727L376.854 66.9335L384.869 61.0096L384.75 60.8488ZM376.743 66.9387L379.409 68.5444L379.512 68.3732L376.846 66.7675L376.743 66.9387ZM379.522 68.5378L387.588 62.27L387.465 62.112L379.399 68.3798L379.522 68.5378ZM396.188 66.103L387.568 62.1003L387.484 62.2816L396.104 66.2844L396.188 66.103ZM398.45 64.6315L396.092 66.109L396.199 66.2784L398.556 64.8009L398.45 64.6315ZM389.556 60.6716L398.461 64.8069L398.545 64.6255L389.64 60.4902L389.556 60.6716ZM389.66 60.6599L396.956 54.9901L396.833 54.8321L389.537 60.5019L389.66 60.6599ZM396.93 54.8176L394.325 53.8286L394.254 54.0155L396.859 55.0046L396.93 54.8176ZM394.23 53.8416L386.887 59.269L387.006 59.4299L394.349 54.0025L394.23 53.8416ZM377.439 55.0445L386.904 59.4401L386.988 59.2588L377.523 54.8631L377.439 55.0445Z" fill="#5D4EA4" mask="url(#path-16-inside-1_6_1205)"/>
<mask id="path-18-inside-2_6_1205" fill="white">
<path fill-rule="evenodd" clip-rule="evenodd" d="M207.481 301.954L205.124 303.431L214.809 307.929L206.794 313.853L209.461 315.459L217.526 309.191L226.146 313.194L228.503 311.716L219.598 307.581L226.894 301.911L224.289 300.922L216.946 306.349L207.481 301.954Z"/>
</mask>
<path fill-rule="evenodd" clip-rule="evenodd" d="M207.481 301.954L205.124 303.431L214.809 307.929L206.794 313.853L209.461 315.459L217.526 309.191L226.146 313.194L228.503 311.716L219.598 307.581L226.894 301.911L224.289 300.922L216.946 306.349L207.481 301.954Z" fill="url(#paint15_linear_6_1205)"/>
<path d="M205.124 303.431L205.07 303.347L204.914 303.444L205.082 303.522L205.124 303.431ZM207.481 301.954L207.523 301.863L207.474 301.84L207.428 301.869L207.481 301.954ZM214.809 307.929L214.869 308.01L215.004 307.909L214.851 307.838L214.809 307.929ZM206.794 313.853L206.735 313.772L206.615 313.861L206.743 313.939L206.794 313.853ZM209.461 315.459L209.409 315.544L209.468 315.58L209.522 315.538L209.461 315.459ZM217.526 309.191L217.568 309.1L217.513 309.075L217.465 309.112L217.526 309.191ZM226.146 313.194L226.104 313.284L226.153 313.307L226.199 313.278L226.146 313.194ZM228.503 311.716L228.556 311.801L228.712 311.703L228.545 311.626L228.503 311.716ZM219.598 307.581L219.536 307.502L219.407 307.602L219.556 307.671L219.598 307.581ZM226.894 301.911L226.956 301.99L227.096 301.881L226.929 301.817L226.894 301.911ZM224.289 300.922L224.325 300.828L224.274 300.809L224.23 300.841L224.289 300.922ZM216.946 306.349L216.904 306.44L216.958 306.465L217.006 306.43L216.946 306.349ZM205.177 303.516L207.534 302.039L207.428 301.869L205.07 303.347L205.177 303.516ZM214.851 307.838L205.166 303.341L205.082 303.522L214.767 308.02L214.851 307.838ZM214.749 307.849L206.735 313.772L206.854 313.933L214.869 308.01L214.749 307.849ZM206.743 313.939L209.409 315.544L209.512 315.373L206.846 313.767L206.743 313.939ZM209.522 315.538L217.588 309.27L217.465 309.112L209.399 315.38L209.522 315.538ZM226.188 313.103L217.568 309.1L217.484 309.282L226.104 313.284L226.188 313.103ZM228.45 311.631L226.092 313.109L226.199 313.278L228.556 311.801L228.45 311.631ZM219.556 307.671L228.461 311.807L228.545 311.626L219.64 307.49L219.556 307.671ZM219.659 307.66L226.956 301.99L226.833 301.832L219.536 307.502L219.659 307.66ZM226.929 301.817L224.325 300.828L224.254 301.015L226.859 302.004L226.929 301.817ZM224.23 300.841L216.887 306.269L217.006 306.43L224.349 301.002L224.23 300.841ZM207.439 302.044L216.904 306.44L216.988 306.259L207.523 301.863L207.439 302.044Z" fill="#5D4EA4" mask="url(#path-18-inside-2_6_1205)"/>
<mask id="path-20-inside-3_6_1205" fill="white">
<path fill-rule="evenodd" clip-rule="evenodd" d="M469.481 203.954L467.124 205.431L476.809 209.929L468.794 215.853L471.461 217.459L479.526 211.191L488.146 215.194L490.503 213.716L481.598 209.581L488.894 203.911L486.289 202.922L478.947 208.35L469.481 203.954Z"/>
</mask>
<path fill-rule="evenodd" clip-rule="evenodd" d="M469.481 203.954L467.124 205.431L476.809 209.929L468.794 215.853L471.461 217.459L479.526 211.191L488.146 215.194L490.503 213.716L481.598 209.581L488.894 203.911L486.289 202.922L478.947 208.35L469.481 203.954Z" fill="url(#paint16_linear_6_1205)"/>
<path d="M467.124 205.431L467.07 205.347L466.914 205.444L467.082 205.522L467.124 205.431ZM469.481 203.954L469.523 203.863L469.474 203.84L469.428 203.869L469.481 203.954ZM476.809 209.929L476.869 210.01L477.004 209.91L476.851 209.839L476.809 209.929ZM468.794 215.853L468.735 215.773L468.614 215.862L468.743 215.939L468.794 215.853ZM471.461 217.459L471.409 217.545L471.468 217.58L471.522 217.538L471.461 217.459ZM479.526 211.191L479.568 211.1L479.513 211.075L479.465 211.112L479.526 211.191ZM488.146 215.194L488.104 215.284L488.153 215.307L488.199 215.278L488.146 215.194ZM490.503 213.716L490.556 213.801L490.712 213.703L490.545 213.626L490.503 213.716ZM481.598 209.581L481.537 209.502L481.407 209.602L481.556 209.672L481.598 209.581ZM488.894 203.911L488.955 203.99L489.096 203.881L488.929 203.818L488.894 203.911ZM486.289 202.922L486.325 202.829L486.274 202.809L486.23 202.842L486.289 202.922ZM478.947 208.35L478.905 208.44L478.958 208.465L479.006 208.43L478.947 208.35ZM467.177 205.516L469.534 204.039L469.428 203.869L467.07 205.347L467.177 205.516ZM476.851 209.839L467.166 205.341L467.082 205.522L476.767 210.02L476.851 209.839ZM476.75 209.849L468.735 215.773L468.854 215.934L476.869 210.01L476.75 209.849ZM468.743 215.939L471.409 217.545L471.512 217.373L468.846 215.768L468.743 215.939ZM471.522 217.538L479.588 211.27L479.465 211.112L471.399 217.38L471.522 217.538ZM488.188 215.103L479.568 211.1L479.484 211.282L488.104 215.284L488.188 215.103ZM490.45 213.631L488.092 215.109L488.199 215.278L490.556 213.801L490.45 213.631ZM481.556 209.672L490.461 213.807L490.545 213.626L481.64 209.49L481.556 209.672ZM481.66 209.66L488.955 203.99L488.832 203.832L481.537 209.502L481.66 209.66ZM488.929 203.818L486.325 202.829L486.254 203.016L488.859 204.005L488.929 203.818ZM486.23 202.842L478.887 208.269L479.006 208.43L486.349 203.003L486.23 202.842ZM469.439 204.044L478.905 208.44L478.989 208.259L469.523 203.863L469.439 204.044Z" fill="#5D4EA4" mask="url(#path-20-inside-3_6_1205)"/>
<mask id="path-22-inside-4_6_1205" fill="white">
<path fill-rule="evenodd" clip-rule="evenodd" d="M101.481 147.954L99.1236 149.431L108.809 153.929L100.794 159.853L103.461 161.459L111.526 155.191L120.146 159.194L122.503 157.716L113.598 153.581L120.894 147.911L118.289 146.922L110.946 152.349L101.481 147.954Z"/>
</mask>
<path fill-rule="evenodd" clip-rule="evenodd" d="M101.481 147.954L99.1236 149.431L108.809 153.929L100.794 159.853L103.461 161.459L111.526 155.191L120.146 159.194L122.503 157.716L113.598 153.581L120.894 147.911L118.289 146.922L110.946 152.349L101.481 147.954Z" fill="url(#paint17_linear_6_1205)"/>
<path d="M99.1236 149.431L99.0704 149.347L98.9144 149.444L99.0816 149.522L99.1236 149.431ZM101.481 147.954L101.523 147.863L101.474 147.84L101.428 147.869L101.481 147.954ZM108.809 153.929L108.868 154.009L109.004 153.909L108.851 153.838L108.809 153.929ZM100.794 159.853L100.735 159.772L100.614 159.861L100.743 159.939L100.794 159.853ZM103.461 161.459L103.409 161.544L103.468 161.58L103.522 161.538L103.461 161.459ZM111.526 155.191L111.568 155.1L111.513 155.074L111.465 155.112L111.526 155.191ZM120.146 159.194L120.104 159.284L120.153 159.307L120.199 159.278L120.146 159.194ZM122.503 157.716L122.556 157.801L122.712 157.703L122.545 157.626L122.503 157.716ZM113.598 153.581L113.536 153.502L113.407 153.602L113.556 153.671L113.598 153.581ZM120.894 147.911L120.955 147.99L121.096 147.881L120.929 147.817L120.894 147.911ZM118.289 146.922L118.325 146.828L118.274 146.809L118.23 146.841L118.289 146.922ZM110.946 152.349L110.904 152.44L110.958 152.465L111.006 152.43L110.946 152.349ZM99.1768 149.516L101.534 148.039L101.428 147.869L99.0704 149.347L99.1768 149.516ZM108.851 153.838L99.1656 149.341L99.0816 149.522L108.767 154.02L108.851 153.838ZM108.749 153.849L100.735 159.772L100.854 159.933L108.868 154.009L108.749 153.849ZM100.743 159.939L103.409 161.544L103.512 161.373L100.846 159.767L100.743 159.939ZM103.522 161.538L111.587 155.27L111.465 155.112L103.399 161.38L103.522 161.538ZM120.188 159.103L111.568 155.1L111.484 155.281L120.104 159.284L120.188 159.103ZM122.45 157.631L120.092 159.109L120.199 159.278L122.556 157.801L122.45 157.631ZM113.556 153.671L122.461 157.807L122.545 157.626L113.64 153.49L113.556 153.671ZM113.659 153.66L120.955 147.99L120.832 147.832L113.536 153.502L113.659 153.66ZM120.929 147.817L118.325 146.828L118.254 147.015L120.859 148.004L120.929 147.817ZM118.23 146.841L110.887 152.269L111.006 152.43L118.349 147.002L118.23 146.841ZM101.439 148.044L110.904 152.44L110.988 152.259L101.523 147.863L101.439 148.044Z" fill="#5D4EA4" mask="url(#path-22-inside-4_6_1205)"/>
<defs>
<linearGradient id="paint0_linear_6_1205" x1="98.1767" y1="101.741" x2="144" y2="104.322" gradientUnits="userSpaceOnUse">
<stop stop-color="#7BDEB8"/>
<stop offset="0.526042" stop-color="#CCDDED"/>
<stop offset="0.994792" stop-color="#89A7DE"/>
</linearGradient>
<linearGradient id="paint1_linear_6_1205" x1="122.323" y1="4.22386" x2="138.496" y2="5.13457" gradientUnits="userSpaceOnUse">
<stop stop-color="#7BDEB8"/>
<stop offset="0.526042" stop-color="#CCDDED"/>
<stop offset="0.994792" stop-color="#89A7DE"/>
</linearGradient>
<linearGradient id="paint2_linear_6_1205" x1="195.363" y1="171.569" x2="211.536" y2="172.48" gradientUnits="userSpaceOnUse">
<stop stop-color="#7BDEB8"/>
<stop offset="0.526042" stop-color="#CCDDED"/>
<stop offset="0.994792" stop-color="#89A7DE"/>
</linearGradient>
<linearGradient id="paint3_linear_6_1205" x1="17.4898" y1="150.651" x2="33.6626" y2="151.562" gradientUnits="userSpaceOnUse">
<stop stop-color="#7BDEB8"/>
<stop offset="0.526042" stop-color="#CCDDED"/>
<stop offset="0.994792" stop-color="#89A7DE"/>
</linearGradient>
<linearGradient id="paint4_linear_6_1205" x1="77.6465" y1="61.5811" x2="172.236" y2="63.7744" gradientUnits="userSpaceOnUse">
<stop stop-color="#7BDEB8"/>
<stop offset="0.526042" stop-color="#CCDDED"/>
<stop offset="0.994792" stop-color="#89A7DE"/>
</linearGradient>
<linearGradient id="paint5_linear_6_1205" x1="181.237" y1="102.904" x2="131.677" y2="184.662" gradientUnits="userSpaceOnUse">
<stop stop-color="#7BDEB8"/>
<stop offset="0.526042" stop-color="#CCDDED"/>
<stop offset="0.994792" stop-color="#89A7DE"/>
</linearGradient>
<linearGradient id="paint6_linear_6_1205" x1="95.6463" y1="174.319" x2="46.6469" y2="92.2134" gradientUnits="userSpaceOnUse">
<stop stop-color="#7BDEB8"/>
<stop offset="0.526042" stop-color="#CCDDED"/>
<stop offset="0.994792" stop-color="#89A7DE"/>
</linearGradient>
<linearGradient id="paint7_linear_6_1205" x1="283.622" y1="189.487" x2="311.59" y2="146.224" gradientUnits="userSpaceOnUse">
<stop offset="0.187811" stop-color="#CBAEFF" stop-opacity="0.5"/>
<stop offset="0.773374" stop-color="#A6FBF5"/>
</linearGradient>
<linearGradient id="paint8_linear_6_1205" x1="299.912" y1="70.9405" x2="309.783" y2="55.6712" gradientUnits="userSpaceOnUse">
<stop offset="0.187811" stop-color="#CBAEFF" stop-opacity="0.5"/>
<stop offset="0.773374" stop-color="#A6FBF5"/>
</linearGradient>
<linearGradient id="paint9_linear_6_1205" x1="372.952" y1="238.285" x2="382.823" y2="223.016" gradientUnits="userSpaceOnUse">
<stop offset="0.187811" stop-color="#CBAEFF" stop-opacity="0.5"/>
<stop offset="0.773374" stop-color="#A6FBF5"/>
</linearGradient>
<linearGradient id="paint10_linear_6_1205" x1="195.078" y1="217.367" x2="204.95" y2="202.098" gradientUnits="userSpaceOnUse">
<stop offset="0.187811" stop-color="#CBAEFF" stop-opacity="0.5"/>
<stop offset="0.773374" stop-color="#A6FBF5"/>
</linearGradient>
<linearGradient id="paint11_linear_6_1205" x1="275.947" y1="279.323" x2="414.925" y2="190.802" gradientUnits="userSpaceOnUse">
<stop offset="0.187811" stop-color="#CBAEFF" stop-opacity="0.5"/>
<stop offset="0.773374" stop-color="#A6FBF5"/>
</linearGradient>
<linearGradient id="paint12_linear_6_1205" x1="202.814" y1="100.157" x2="212.674" y2="266.299" gradientUnits="userSpaceOnUse">
<stop offset="0.187811" stop-color="#CBAEFF" stop-opacity="0.5"/>
<stop offset="0.773374" stop-color="#A6FBF5"/>
</linearGradient>
<linearGradient id="paint13_linear_6_1205" x1="391.899" y1="122.348" x2="242.801" y2="52.8114" gradientUnits="userSpaceOnUse">
<stop offset="0.187811" stop-color="#CBAEFF" stop-opacity="0.5"/>
<stop offset="0.773374" stop-color="#A6FBF5"/>
</linearGradient>
<linearGradient id="paint14_linear_6_1205" x1="383.831" y1="68.0334" x2="388.528" y2="51.1392" gradientUnits="userSpaceOnUse">
<stop offset="0.187811" stop-color="#CBAEFF" stop-opacity="0.5"/>
<stop offset="0.773374" stop-color="#A6FBF5"/>
</linearGradient>
<linearGradient id="paint15_linear_6_1205" x1="213.831" y1="315.033" x2="218.528" y2="298.139" gradientUnits="userSpaceOnUse">
<stop offset="0.187811" stop-color="#CBAEFF" stop-opacity="0.5"/>
<stop offset="0.773374" stop-color="#A6FBF5"/>
</linearGradient>
<linearGradient id="paint16_linear_6_1205" x1="475.831" y1="217.034" x2="480.528" y2="200.139" gradientUnits="userSpaceOnUse">
<stop offset="0.187811" stop-color="#CBAEFF" stop-opacity="0.5"/>
<stop offset="0.773374" stop-color="#A6FBF5"/>
</linearGradient>
<linearGradient id="paint17_linear_6_1205" x1="107.831" y1="161.033" x2="112.528" y2="144.139" gradientUnits="userSpaceOnUse">
<stop offset="0.187811" stop-color="#CBAEFF" stop-opacity="0.5"/>
<stop offset="0.773374" stop-color="#A6FBF5"/>
</linearGradient>
</defs>
</svg>
