<svg width="44" height="44" viewBox="0 0 44 44" fill="none" xmlns="http://www.w3.org/2000/svg">
<path fill-rule="evenodd" clip-rule="evenodd" d="M21.8718 0C33.9526 0 43.7437 9.79107 43.7437 21.8718C43.7437 33.9526 33.9526 43.7437 21.8718 43.7437C9.79107 43.7437 0 33.9526 0 21.8718C0 9.79107 9.79107 0 21.8718 0Z" fill="url(#paint0_radial_1_9)"/>
<path d="M13.9006 16.8909C18.3006 12.5934 25.4431 12.5934 29.8431 16.8909L30.3728 17.412C30.595 17.6256 30.595 17.9759 30.3728 18.1895L28.5616 19.9581C28.4505 20.0691 28.2711 20.0691 28.16 19.9581L27.4338 19.2489C24.3581 16.2501 19.3856 16.2501 16.3099 19.2489L15.5324 20.0093C15.4214 20.1204 15.2419 20.1204 15.1309 20.0093L13.3196 18.2408C13.0975 18.0272 13.0975 17.6769 13.3196 17.4633L13.9006 16.8909ZM33.5938 20.5476L35.2085 22.1196C35.4307 22.3332 35.4307 22.6835 35.2085 22.8971L27.9379 29.9969C27.7157 30.2105 27.3569 30.2105 27.1433 29.9969L21.9829 24.9561C21.9316 24.9049 21.8377 24.9049 21.7864 24.9561L16.626 29.9969C16.4039 30.2105 16.045 30.2105 15.8315 29.9969L8.53514 22.8971C8.31301 22.6835 8.31301 22.3332 8.53514 22.1196L10.1499 20.5476C10.372 20.334 10.7309 20.334 10.9445 20.5476L16.1049 25.5884C16.1561 25.6396 16.2501 25.6396 16.3014 25.5884L21.4617 20.5476C21.6839 20.334 22.0427 20.334 22.2563 20.5476L27.4167 25.5884C27.468 25.6396 27.5619 25.6396 27.6132 25.5884L32.7736 20.5476C33.0128 20.334 33.3717 20.334 33.5938 20.5476Z" fill="white"/>
<defs>
<radialGradient id="paint0_radial_1_9" cx="0" cy="0" r="1" gradientUnits="userSpaceOnUse" gradientTransform="translate(0.000135581 21.8725) scale(43.7437)">
<stop stop-color="#5D9DF6"/>
<stop offset="1" stop-color="#006FFF"/>
</radialGradient>
</defs>
</svg>
